<?xml version="1.0" encoding="utf-8" standalone="no"?>
<!DOCTYPE svg PUBLIC "-//W3C//DTD SVG 1.1//EN"
  "http://www.w3.org/Graphics/SVG/1.1/DTD/svg11.dtd">
<!-- Created with matplotlib (https://matplotlib.org/) -->
<svg height="386.293625pt" version="1.1" viewBox="0 0 383.055937 386.293625" width="383.055937pt" xmlns="http://www.w3.org/2000/svg" xmlns:xlink="http://www.w3.org/1999/xlink">
 <defs>
  <style type="text/css">
*{stroke-linecap:butt;stroke-linejoin:round;}
  </style>
 </defs>
 <g id="figure_1">
  <g id="patch_1">
   <path d="M 0 386.293625 
L 383.055937 386.293625 
L 383.055937 0 
L 0 0 
z
" style="fill:none;"/>
  </g>
  <g id="axes_1">
   <g id="patch_2">
    <path d="M 41.055938 350.30175 
L 375.855938 350.30175 
L 375.855938 24.14175 
L 41.055938 24.14175 
z
" style="fill:#eeeeee;"/>
   </g>
   <g id="PolyCollection_1">
    <path clip-path="url(#p9260c8b9c8)" d="M 56.274119 193.334348 
L 56.274119 193.334348 
L 60.956637 181.688488 
L 103.099294 207.220675 
L 107.781812 212.395097 
L 112.464329 211.565308 
L 131.194399 215.28047 
L 140.559434 223.593424 
L 140.559434 225.627326 
L 149.924469 225.138865 
L 149.924469 226.962242 
L 149.924469 224.295977 
L 154.606986 230.546145 
L 154.606986 235.035252 
L 159.289504 240.231837 
L 159.289504 228.07617 
L 168.654539 232.173329 
L 168.654539 239.247177 
L 173.337056 240.329755 
L 173.337056 236.103901 
L 173.337056 231.890167 
L 173.337056 243.78792 
L 178.019574 240.061268 
L 178.019574 241.248352 
L 178.019574 241.078861 
L 182.702091 243.188176 
L 182.702091 245.676815 
L 182.702091 240.675247 
L 187.384609 246.631267 
L 201.432161 262.699313 
L 201.432161 247.811877 
L 201.432161 251.726782 
L 206.114679 248.703934 
L 206.114679 255.591286 
L 206.114679 257.817008 
L 206.114679 250.550084 
L 206.114679 256.281331 
L 215.479714 259.2968 
L 224.844749 265.703225 
L 224.844749 257.648264 
L 229.527266 258.799489 
L 229.527266 271.318824 
L 234.209784 267.202202 
L 238.892301 265.487858 
L 248.257336 278.510708 
L 262.304889 284.482075 
L 266.987406 277.763584 
L 290.399993 294.222029 
L 299.765028 304.767368 
L 304.447546 302.549494 
L 360.637756 335.476295 
L 360.637756 335.476295 
L 360.637756 188.453263 
L 304.447546 165.153672 
L 299.765028 162.433852 
L 290.399993 160.71699 
L 266.987406 151.669942 
L 262.304889 149.22377 
L 248.257336 141.156756 
L 238.892301 135.303649 
L 234.209784 136.053242 
L 229.527266 138.280651 
L 229.527266 126.2176 
L 224.844749 126.759888 
L 224.844749 129.035664 
L 215.479714 122.997254 
L 206.114679 119.984341 
L 206.114679 113.148858 
L 206.114679 126.034175 
L 206.114679 119.954608 
L 206.114679 117.318601 
L 201.432161 118.524012 
L 201.432161 113.898642 
L 201.432161 125.848698 
L 187.384609 115.904877 
L 182.702091 110.61457 
L 182.702091 112.84927 
L 182.702091 112.415239 
L 178.019574 107.600642 
L 178.019574 103.586858 
L 178.019574 110.076727 
L 173.337056 111.243126 
L 173.337056 103.66235 
L 173.337056 106.195137 
L 173.337056 105.20311 
L 168.654539 105.512076 
L 168.654539 96.774443 
L 159.289504 92.6205 
L 159.289504 102.744448 
L 154.606986 100.390832 
L 154.606986 94.26211 
L 149.924469 92.14512 
L 149.924469 94.255972 
L 149.924469 94.243348 
L 140.559434 90.51909 
L 140.559434 88.250541 
L 131.194399 76.052151 
L 112.464329 74.112715 
L 107.781812 72.563754 
L 103.099294 71.958052 
L 60.956637 38.967205 
L 56.274119 53.475851 
z
" style="fill:#348abd;fill-opacity:0.3;"/>
   </g>
   <g id="matplotlib.axis_1">
    <g id="xtick_1">
     <g id="line2d_1">
      <path clip-path="url(#p9260c8b9c8)" d="M 74.617302 350.30175 
L 74.617302 24.14175 
" style="fill:none;stroke:#b2b2b2;stroke-dasharray:1.85,0.8;stroke-dashoffset:0;stroke-width:0.5;"/>
     </g>
     <g id="line2d_2">
      <defs>
       <path d="M 0 0 
L 0 -3.5 
" id="m1bbc1ffe1d" style="stroke:#000000;stroke-width:0.8;"/>
      </defs>
      <g>
       <use style="stroke:#000000;stroke-width:0.8;" x="74.617302" xlink:href="#m1bbc1ffe1d" y="350.30175"/>
      </g>
     </g>
     <g id="text_1">
      <!-- −2 -->
      <defs>
       <path d="M 10.59375 35.5 
L 73.1875 35.5 
L 73.1875 27.203125 
L 10.59375 27.203125 
z
" id="DejaVuSans-8722"/>
       <path d="M 19.1875 8.296875 
L 53.609375 8.296875 
L 53.609375 0 
L 7.328125 0 
L 7.328125 8.296875 
Q 12.9375 14.109375 22.625 23.890625 
Q 32.328125 33.6875 34.8125 36.53125 
Q 39.546875 41.84375 41.421875 45.53125 
Q 43.3125 49.21875 43.3125 52.78125 
Q 43.3125 58.59375 39.234375 62.25 
Q 35.15625 65.921875 28.609375 65.921875 
Q 23.96875 65.921875 18.8125 64.3125 
Q 13.671875 62.703125 7.8125 59.421875 
L 7.8125 69.390625 
Q 13.765625 71.78125 18.9375 73 
Q 24.125 74.21875 28.421875 74.21875 
Q 39.75 74.21875 46.484375 68.546875 
Q 53.21875 62.890625 53.21875 53.421875 
Q 53.21875 48.921875 51.53125 44.890625 
Q 49.859375 40.875 45.40625 35.40625 
Q 44.1875 33.984375 37.640625 27.21875 
Q 31.109375 20.453125 19.1875 8.296875 
z
" id="DejaVuSans-50"/>
      </defs>
      <g transform="translate(67.246208 361.400188)scale(0.1 -0.1)">
       <use xlink:href="#DejaVuSans-8722"/>
       <use x="83.789062" xlink:href="#DejaVuSans-50"/>
      </g>
     </g>
    </g>
    <g id="xtick_2">
     <g id="line2d_3">
      <path clip-path="url(#p9260c8b9c8)" d="M 132.265235 350.30175 
L 132.265235 24.14175 
" style="fill:none;stroke:#b2b2b2;stroke-dasharray:1.85,0.8;stroke-dashoffset:0;stroke-width:0.5;"/>
     </g>
     <g id="line2d_4">
      <g>
       <use style="stroke:#000000;stroke-width:0.8;" x="132.265235" xlink:href="#m1bbc1ffe1d" y="350.30175"/>
      </g>
     </g>
     <g id="text_2">
      <!-- −1 -->
      <defs>
       <path d="M 12.40625 8.296875 
L 28.515625 8.296875 
L 28.515625 63.921875 
L 10.984375 60.40625 
L 10.984375 69.390625 
L 28.421875 72.90625 
L 38.28125 72.90625 
L 38.28125 8.296875 
L 54.390625 8.296875 
L 54.390625 0 
L 12.40625 0 
z
" id="DejaVuSans-49"/>
      </defs>
      <g transform="translate(124.894141 361.400188)scale(0.1 -0.1)">
       <use xlink:href="#DejaVuSans-8722"/>
       <use x="83.789062" xlink:href="#DejaVuSans-49"/>
      </g>
     </g>
    </g>
    <g id="xtick_3">
     <g id="line2d_5">
      <path clip-path="url(#p9260c8b9c8)" d="M 189.913168 350.30175 
L 189.913168 24.14175 
" style="fill:none;stroke:#b2b2b2;stroke-dasharray:1.85,0.8;stroke-dashoffset:0;stroke-width:0.5;"/>
     </g>
     <g id="line2d_6">
      <g>
       <use style="stroke:#000000;stroke-width:0.8;" x="189.913168" xlink:href="#m1bbc1ffe1d" y="350.30175"/>
      </g>
     </g>
     <g id="text_3">
      <!-- 0 -->
      <defs>
       <path d="M 31.78125 66.40625 
Q 24.171875 66.40625 20.328125 58.90625 
Q 16.5 51.421875 16.5 36.375 
Q 16.5 21.390625 20.328125 13.890625 
Q 24.171875 6.390625 31.78125 6.390625 
Q 39.453125 6.390625 43.28125 13.890625 
Q 47.125 21.390625 47.125 36.375 
Q 47.125 51.421875 43.28125 58.90625 
Q 39.453125 66.40625 31.78125 66.40625 
z
M 31.78125 74.21875 
Q 44.046875 74.21875 50.515625 64.515625 
Q 56.984375 54.828125 56.984375 36.375 
Q 56.984375 17.96875 50.515625 8.265625 
Q 44.046875 -1.421875 31.78125 -1.421875 
Q 19.53125 -1.421875 13.0625 8.265625 
Q 6.59375 17.96875 6.59375 36.375 
Q 6.59375 54.828125 13.0625 64.515625 
Q 19.53125 74.21875 31.78125 74.21875 
z
" id="DejaVuSans-48"/>
      </defs>
      <g transform="translate(186.731918 361.400188)scale(0.1 -0.1)">
       <use xlink:href="#DejaVuSans-48"/>
      </g>
     </g>
    </g>
    <g id="xtick_4">
     <g id="line2d_7">
      <path clip-path="url(#p9260c8b9c8)" d="M 247.561101 350.30175 
L 247.561101 24.14175 
" style="fill:none;stroke:#b2b2b2;stroke-dasharray:1.85,0.8;stroke-dashoffset:0;stroke-width:0.5;"/>
     </g>
     <g id="line2d_8">
      <g>
       <use style="stroke:#000000;stroke-width:0.8;" x="247.561101" xlink:href="#m1bbc1ffe1d" y="350.30175"/>
      </g>
     </g>
     <g id="text_4">
      <!-- 1 -->
      <g transform="translate(244.379851 361.400188)scale(0.1 -0.1)">
       <use xlink:href="#DejaVuSans-49"/>
      </g>
     </g>
    </g>
    <g id="xtick_5">
     <g id="line2d_9">
      <path clip-path="url(#p9260c8b9c8)" d="M 305.209034 350.30175 
L 305.209034 24.14175 
" style="fill:none;stroke:#b2b2b2;stroke-dasharray:1.85,0.8;stroke-dashoffset:0;stroke-width:0.5;"/>
     </g>
     <g id="line2d_10">
      <g>
       <use style="stroke:#000000;stroke-width:0.8;" x="305.209034" xlink:href="#m1bbc1ffe1d" y="350.30175"/>
      </g>
     </g>
     <g id="text_5">
      <!-- 2 -->
      <g transform="translate(302.027784 361.400188)scale(0.1 -0.1)">
       <use xlink:href="#DejaVuSans-50"/>
      </g>
     </g>
    </g>
    <g id="xtick_6">
     <g id="line2d_11">
      <path clip-path="url(#p9260c8b9c8)" d="M 362.856967 350.30175 
L 362.856967 24.14175 
" style="fill:none;stroke:#b2b2b2;stroke-dasharray:1.85,0.8;stroke-dashoffset:0;stroke-width:0.5;"/>
     </g>
     <g id="line2d_12">
      <g>
       <use style="stroke:#000000;stroke-width:0.8;" x="362.856967" xlink:href="#m1bbc1ffe1d" y="350.30175"/>
      </g>
     </g>
     <g id="text_6">
      <!-- 3 -->
      <defs>
       <path d="M 40.578125 39.3125 
Q 47.65625 37.796875 51.625 33 
Q 55.609375 28.21875 55.609375 21.1875 
Q 55.609375 10.40625 48.1875 4.484375 
Q 40.765625 -1.421875 27.09375 -1.421875 
Q 22.515625 -1.421875 17.65625 -0.515625 
Q 12.796875 0.390625 7.625 2.203125 
L 7.625 11.71875 
Q 11.71875 9.328125 16.59375 8.109375 
Q 21.484375 6.890625 26.8125 6.890625 
Q 36.078125 6.890625 40.9375 10.546875 
Q 45.796875 14.203125 45.796875 21.1875 
Q 45.796875 27.640625 41.28125 31.265625 
Q 36.765625 34.90625 28.71875 34.90625 
L 20.21875 34.90625 
L 20.21875 43.015625 
L 29.109375 43.015625 
Q 36.375 43.015625 40.234375 45.921875 
Q 44.09375 48.828125 44.09375 54.296875 
Q 44.09375 59.90625 40.109375 62.90625 
Q 36.140625 65.921875 28.71875 65.921875 
Q 24.65625 65.921875 20.015625 65.03125 
Q 15.375 64.15625 9.8125 62.3125 
L 9.8125 71.09375 
Q 15.4375 72.65625 20.34375 73.4375 
Q 25.25 74.21875 29.59375 74.21875 
Q 40.828125 74.21875 47.359375 69.109375 
Q 53.90625 64.015625 53.90625 55.328125 
Q 53.90625 49.265625 50.4375 45.09375 
Q 46.96875 40.921875 40.578125 39.3125 
z
" id="DejaVuSans-51"/>
      </defs>
      <g transform="translate(359.675717 361.400188)scale(0.1 -0.1)">
       <use xlink:href="#DejaVuSans-51"/>
      </g>
     </g>
    </g>
    <g id="text_7">
     <!-- Median Age -->
     <defs>
      <path d="M 9.8125 72.90625 
L 24.515625 72.90625 
L 43.109375 23.296875 
L 61.8125 72.90625 
L 76.515625 72.90625 
L 76.515625 0 
L 66.890625 0 
L 66.890625 64.015625 
L 48.09375 14.015625 
L 38.1875 14.015625 
L 19.390625 64.015625 
L 19.390625 0 
L 9.8125 0 
z
" id="DejaVuSans-77"/>
      <path d="M 56.203125 29.59375 
L 56.203125 25.203125 
L 14.890625 25.203125 
Q 15.484375 15.921875 20.484375 11.0625 
Q 25.484375 6.203125 34.421875 6.203125 
Q 39.59375 6.203125 44.453125 7.46875 
Q 49.3125 8.734375 54.109375 11.28125 
L 54.109375 2.78125 
Q 49.265625 0.734375 44.1875 -0.34375 
Q 39.109375 -1.421875 33.890625 -1.421875 
Q 20.796875 -1.421875 13.15625 6.1875 
Q 5.515625 13.8125 5.515625 26.8125 
Q 5.515625 40.234375 12.765625 48.109375 
Q 20.015625 56 32.328125 56 
Q 43.359375 56 49.78125 48.890625 
Q 56.203125 41.796875 56.203125 29.59375 
z
M 47.21875 32.234375 
Q 47.125 39.59375 43.09375 43.984375 
Q 39.0625 48.390625 32.421875 48.390625 
Q 24.90625 48.390625 20.390625 44.140625 
Q 15.875 39.890625 15.1875 32.171875 
z
" id="DejaVuSans-101"/>
      <path d="M 45.40625 46.390625 
L 45.40625 75.984375 
L 54.390625 75.984375 
L 54.390625 0 
L 45.40625 0 
L 45.40625 8.203125 
Q 42.578125 3.328125 38.25 0.953125 
Q 33.9375 -1.421875 27.875 -1.421875 
Q 17.96875 -1.421875 11.734375 6.484375 
Q 5.515625 14.40625 5.515625 27.296875 
Q 5.515625 40.1875 11.734375 48.09375 
Q 17.96875 56 27.875 56 
Q 33.9375 56 38.25 53.625 
Q 42.578125 51.265625 45.40625 46.390625 
z
M 14.796875 27.296875 
Q 14.796875 17.390625 18.875 11.75 
Q 22.953125 6.109375 30.078125 6.109375 
Q 37.203125 6.109375 41.296875 11.75 
Q 45.40625 17.390625 45.40625 27.296875 
Q 45.40625 37.203125 41.296875 42.84375 
Q 37.203125 48.484375 30.078125 48.484375 
Q 22.953125 48.484375 18.875 42.84375 
Q 14.796875 37.203125 14.796875 27.296875 
z
" id="DejaVuSans-100"/>
      <path d="M 9.421875 54.6875 
L 18.40625 54.6875 
L 18.40625 0 
L 9.421875 0 
z
M 9.421875 75.984375 
L 18.40625 75.984375 
L 18.40625 64.59375 
L 9.421875 64.59375 
z
" id="DejaVuSans-105"/>
      <path d="M 34.28125 27.484375 
Q 23.390625 27.484375 19.1875 25 
Q 14.984375 22.515625 14.984375 16.5 
Q 14.984375 11.71875 18.140625 8.90625 
Q 21.296875 6.109375 26.703125 6.109375 
Q 34.1875 6.109375 38.703125 11.40625 
Q 43.21875 16.703125 43.21875 25.484375 
L 43.21875 27.484375 
z
M 52.203125 31.203125 
L 52.203125 0 
L 43.21875 0 
L 43.21875 8.296875 
Q 40.140625 3.328125 35.546875 0.953125 
Q 30.953125 -1.421875 24.3125 -1.421875 
Q 15.921875 -1.421875 10.953125 3.296875 
Q 6 8.015625 6 15.921875 
Q 6 25.140625 12.171875 29.828125 
Q 18.359375 34.515625 30.609375 34.515625 
L 43.21875 34.515625 
L 43.21875 35.40625 
Q 43.21875 41.609375 39.140625 45 
Q 35.0625 48.390625 27.6875 48.390625 
Q 23 48.390625 18.546875 47.265625 
Q 14.109375 46.140625 10.015625 43.890625 
L 10.015625 52.203125 
Q 14.9375 54.109375 19.578125 55.046875 
Q 24.21875 56 28.609375 56 
Q 40.484375 56 46.34375 49.84375 
Q 52.203125 43.703125 52.203125 31.203125 
z
" id="DejaVuSans-97"/>
      <path d="M 54.890625 33.015625 
L 54.890625 0 
L 45.90625 0 
L 45.90625 32.71875 
Q 45.90625 40.484375 42.875 44.328125 
Q 39.84375 48.1875 33.796875 48.1875 
Q 26.515625 48.1875 22.3125 43.546875 
Q 18.109375 38.921875 18.109375 30.90625 
L 18.109375 0 
L 9.078125 0 
L 9.078125 54.6875 
L 18.109375 54.6875 
L 18.109375 46.1875 
Q 21.34375 51.125 25.703125 53.5625 
Q 30.078125 56 35.796875 56 
Q 45.21875 56 50.046875 50.171875 
Q 54.890625 44.34375 54.890625 33.015625 
z
" id="DejaVuSans-110"/>
      <path id="DejaVuSans-32"/>
      <path d="M 34.1875 63.1875 
L 20.796875 26.90625 
L 47.609375 26.90625 
z
M 28.609375 72.90625 
L 39.796875 72.90625 
L 67.578125 0 
L 57.328125 0 
L 50.6875 18.703125 
L 17.828125 18.703125 
L 11.1875 0 
L 0.78125 0 
z
" id="DejaVuSans-65"/>
      <path d="M 45.40625 27.984375 
Q 45.40625 37.75 41.375 43.109375 
Q 37.359375 48.484375 30.078125 48.484375 
Q 22.859375 48.484375 18.828125 43.109375 
Q 14.796875 37.75 14.796875 27.984375 
Q 14.796875 18.265625 18.828125 12.890625 
Q 22.859375 7.515625 30.078125 7.515625 
Q 37.359375 7.515625 41.375 12.890625 
Q 45.40625 18.265625 45.40625 27.984375 
z
M 54.390625 6.78125 
Q 54.390625 -7.171875 48.1875 -13.984375 
Q 42 -20.796875 29.203125 -20.796875 
Q 24.46875 -20.796875 20.265625 -20.09375 
Q 16.0625 -19.390625 12.109375 -17.921875 
L 12.109375 -9.1875 
Q 16.0625 -11.328125 19.921875 -12.34375 
Q 23.78125 -13.375 27.78125 -13.375 
Q 36.625 -13.375 41.015625 -8.765625 
Q 45.40625 -4.15625 45.40625 5.171875 
L 45.40625 9.625 
Q 42.625 4.78125 38.28125 2.390625 
Q 33.9375 0 27.875 0 
Q 17.828125 0 11.671875 7.65625 
Q 5.515625 15.328125 5.515625 27.984375 
Q 5.515625 40.671875 11.671875 48.328125 
Q 17.828125 56 27.875 56 
Q 33.9375 56 38.28125 53.609375 
Q 42.625 51.21875 45.40625 46.390625 
L 45.40625 54.6875 
L 54.390625 54.6875 
z
" id="DejaVuSans-103"/>
     </defs>
     <g transform="translate(173.119687 376.598)scale(0.12 -0.12)">
      <use xlink:href="#DejaVuSans-77"/>
      <use x="86.279297" xlink:href="#DejaVuSans-101"/>
      <use x="147.802734" xlink:href="#DejaVuSans-100"/>
      <use x="211.279297" xlink:href="#DejaVuSans-105"/>
      <use x="239.0625" xlink:href="#DejaVuSans-97"/>
      <use x="300.341797" xlink:href="#DejaVuSans-110"/>
      <use x="363.720703" xlink:href="#DejaVuSans-32"/>
      <use x="395.507812" xlink:href="#DejaVuSans-65"/>
      <use x="463.916016" xlink:href="#DejaVuSans-103"/>
      <use x="527.392578" xlink:href="#DejaVuSans-101"/>
     </g>
    </g>
   </g>
   <g id="matplotlib.axis_2">
    <g id="ytick_1">
     <g id="line2d_13">
      <path clip-path="url(#p9260c8b9c8)" d="M 41.055938 326.049046 
L 375.855938 326.049046 
" style="fill:none;stroke:#b2b2b2;stroke-dasharray:1.85,0.8;stroke-dashoffset:0;stroke-width:0.5;"/>
     </g>
     <g id="line2d_14">
      <defs>
       <path d="M 0 0 
L 3.5 0 
" id="m49dc62086b" style="stroke:#000000;stroke-width:0.8;"/>
      </defs>
      <g>
       <use style="stroke:#000000;stroke-width:0.8;" x="41.055938" xlink:href="#m49dc62086b" y="326.049046"/>
      </g>
     </g>
     <g id="text_8">
      <!-- −3 -->
      <g transform="translate(22.81375 329.848265)scale(0.1 -0.1)">
       <use xlink:href="#DejaVuSans-8722"/>
       <use x="83.789062" xlink:href="#DejaVuSans-51"/>
      </g>
     </g>
    </g>
    <g id="ytick_2">
     <g id="line2d_15">
      <path clip-path="url(#p9260c8b9c8)" d="M 41.055938 277.428925 
L 375.855938 277.428925 
" style="fill:none;stroke:#b2b2b2;stroke-dasharray:1.85,0.8;stroke-dashoffset:0;stroke-width:0.5;"/>
     </g>
     <g id="line2d_16">
      <g>
       <use style="stroke:#000000;stroke-width:0.8;" x="41.055938" xlink:href="#m49dc62086b" y="277.428925"/>
      </g>
     </g>
     <g id="text_9">
      <!-- −2 -->
      <g transform="translate(22.81375 281.228143)scale(0.1 -0.1)">
       <use xlink:href="#DejaVuSans-8722"/>
       <use x="83.789062" xlink:href="#DejaVuSans-50"/>
      </g>
     </g>
    </g>
    <g id="ytick_3">
     <g id="line2d_17">
      <path clip-path="url(#p9260c8b9c8)" d="M 41.055938 228.808803 
L 375.855938 228.808803 
" style="fill:none;stroke:#b2b2b2;stroke-dasharray:1.85,0.8;stroke-dashoffset:0;stroke-width:0.5;"/>
     </g>
     <g id="line2d_18">
      <g>
       <use style="stroke:#000000;stroke-width:0.8;" x="41.055938" xlink:href="#m49dc62086b" y="228.808803"/>
      </g>
     </g>
     <g id="text_10">
      <!-- −1 -->
      <g transform="translate(22.81375 232.608022)scale(0.1 -0.1)">
       <use xlink:href="#DejaVuSans-8722"/>
       <use x="83.789062" xlink:href="#DejaVuSans-49"/>
      </g>
     </g>
    </g>
    <g id="ytick_4">
     <g id="line2d_19">
      <path clip-path="url(#p9260c8b9c8)" d="M 41.055938 180.188682 
L 375.855938 180.188682 
" style="fill:none;stroke:#b2b2b2;stroke-dasharray:1.85,0.8;stroke-dashoffset:0;stroke-width:0.5;"/>
     </g>
     <g id="line2d_20">
      <g>
       <use style="stroke:#000000;stroke-width:0.8;" x="41.055938" xlink:href="#m49dc62086b" y="180.188682"/>
      </g>
     </g>
     <g id="text_11">
      <!-- 0 -->
      <g transform="translate(31.193438 183.987901)scale(0.1 -0.1)">
       <use xlink:href="#DejaVuSans-48"/>
      </g>
     </g>
    </g>
    <g id="ytick_5">
     <g id="line2d_21">
      <path clip-path="url(#p9260c8b9c8)" d="M 41.055938 131.568561 
L 375.855938 131.568561 
" style="fill:none;stroke:#b2b2b2;stroke-dasharray:1.85,0.8;stroke-dashoffset:0;stroke-width:0.5;"/>
     </g>
     <g id="line2d_22">
      <g>
       <use style="stroke:#000000;stroke-width:0.8;" x="41.055938" xlink:href="#m49dc62086b" y="131.568561"/>
      </g>
     </g>
     <g id="text_12">
      <!-- 1 -->
      <g transform="translate(31.193438 135.36778)scale(0.1 -0.1)">
       <use xlink:href="#DejaVuSans-49"/>
      </g>
     </g>
    </g>
    <g id="ytick_6">
     <g id="line2d_23">
      <path clip-path="url(#p9260c8b9c8)" d="M 41.055938 82.94844 
L 375.855938 82.94844 
" style="fill:none;stroke:#b2b2b2;stroke-dasharray:1.85,0.8;stroke-dashoffset:0;stroke-width:0.5;"/>
     </g>
     <g id="line2d_24">
      <g>
       <use style="stroke:#000000;stroke-width:0.8;" x="41.055938" xlink:href="#m49dc62086b" y="82.94844"/>
      </g>
     </g>
     <g id="text_13">
      <!-- 2 -->
      <g transform="translate(31.193438 86.747659)scale(0.1 -0.1)">
       <use xlink:href="#DejaVuSans-50"/>
      </g>
     </g>
    </g>
    <g id="ytick_7">
     <g id="line2d_25">
      <path clip-path="url(#p9260c8b9c8)" d="M 41.055938 34.328319 
L 375.855938 34.328319 
" style="fill:none;stroke:#b2b2b2;stroke-dasharray:1.85,0.8;stroke-dashoffset:0;stroke-width:0.5;"/>
     </g>
     <g id="line2d_26">
      <g>
       <use style="stroke:#000000;stroke-width:0.8;" x="41.055938" xlink:href="#m49dc62086b" y="34.328319"/>
      </g>
     </g>
     <g id="text_14">
      <!-- 3 -->
      <g transform="translate(31.193438 38.127537)scale(0.1 -0.1)">
       <use xlink:href="#DejaVuSans-51"/>
      </g>
     </g>
    </g>
    <g id="text_15">
     <!-- Divorce rate -->
     <defs>
      <path d="M 19.671875 64.796875 
L 19.671875 8.109375 
L 31.59375 8.109375 
Q 46.6875 8.109375 53.6875 14.9375 
Q 60.6875 21.78125 60.6875 36.53125 
Q 60.6875 51.171875 53.6875 57.984375 
Q 46.6875 64.796875 31.59375 64.796875 
z
M 9.8125 72.90625 
L 30.078125 72.90625 
Q 51.265625 72.90625 61.171875 64.09375 
Q 71.09375 55.28125 71.09375 36.53125 
Q 71.09375 17.671875 61.125 8.828125 
Q 51.171875 0 30.078125 0 
L 9.8125 0 
z
" id="DejaVuSans-68"/>
      <path d="M 2.984375 54.6875 
L 12.5 54.6875 
L 29.59375 8.796875 
L 46.6875 54.6875 
L 56.203125 54.6875 
L 35.6875 0 
L 23.484375 0 
z
" id="DejaVuSans-118"/>
      <path d="M 30.609375 48.390625 
Q 23.390625 48.390625 19.1875 42.75 
Q 14.984375 37.109375 14.984375 27.296875 
Q 14.984375 17.484375 19.15625 11.84375 
Q 23.34375 6.203125 30.609375 6.203125 
Q 37.796875 6.203125 41.984375 11.859375 
Q 46.1875 17.53125 46.1875 27.296875 
Q 46.1875 37.015625 41.984375 42.703125 
Q 37.796875 48.390625 30.609375 48.390625 
z
M 30.609375 56 
Q 42.328125 56 49.015625 48.375 
Q 55.71875 40.765625 55.71875 27.296875 
Q 55.71875 13.875 49.015625 6.21875 
Q 42.328125 -1.421875 30.609375 -1.421875 
Q 18.84375 -1.421875 12.171875 6.21875 
Q 5.515625 13.875 5.515625 27.296875 
Q 5.515625 40.765625 12.171875 48.375 
Q 18.84375 56 30.609375 56 
z
" id="DejaVuSans-111"/>
      <path d="M 41.109375 46.296875 
Q 39.59375 47.171875 37.8125 47.578125 
Q 36.03125 48 33.890625 48 
Q 26.265625 48 22.1875 43.046875 
Q 18.109375 38.09375 18.109375 28.8125 
L 18.109375 0 
L 9.078125 0 
L 9.078125 54.6875 
L 18.109375 54.6875 
L 18.109375 46.1875 
Q 20.953125 51.171875 25.484375 53.578125 
Q 30.03125 56 36.53125 56 
Q 37.453125 56 38.578125 55.875 
Q 39.703125 55.765625 41.0625 55.515625 
z
" id="DejaVuSans-114"/>
      <path d="M 48.78125 52.59375 
L 48.78125 44.1875 
Q 44.96875 46.296875 41.140625 47.34375 
Q 37.3125 48.390625 33.40625 48.390625 
Q 24.65625 48.390625 19.8125 42.84375 
Q 14.984375 37.3125 14.984375 27.296875 
Q 14.984375 17.28125 19.8125 11.734375 
Q 24.65625 6.203125 33.40625 6.203125 
Q 37.3125 6.203125 41.140625 7.25 
Q 44.96875 8.296875 48.78125 10.40625 
L 48.78125 2.09375 
Q 45.015625 0.34375 40.984375 -0.53125 
Q 36.96875 -1.421875 32.421875 -1.421875 
Q 20.0625 -1.421875 12.78125 6.34375 
Q 5.515625 14.109375 5.515625 27.296875 
Q 5.515625 40.671875 12.859375 48.328125 
Q 20.21875 56 33.015625 56 
Q 37.15625 56 41.109375 55.140625 
Q 45.0625 54.296875 48.78125 52.59375 
z
" id="DejaVuSans-99"/>
      <path d="M 18.3125 70.21875 
L 18.3125 54.6875 
L 36.8125 54.6875 
L 36.8125 47.703125 
L 18.3125 47.703125 
L 18.3125 18.015625 
Q 18.3125 11.328125 20.140625 9.421875 
Q 21.96875 7.515625 27.59375 7.515625 
L 36.8125 7.515625 
L 36.8125 0 
L 27.59375 0 
Q 17.1875 0 13.234375 3.875 
Q 9.28125 7.765625 9.28125 18.015625 
L 9.28125 47.703125 
L 2.6875 47.703125 
L 2.6875 54.6875 
L 9.28125 54.6875 
L 9.28125 70.21875 
z
" id="DejaVuSans-116"/>
     </defs>
     <g transform="translate(16.318125 224.281125)rotate(-90)scale(0.12 -0.12)">
      <use xlink:href="#DejaVuSans-68"/>
      <use x="77.001953" xlink:href="#DejaVuSans-105"/>
      <use x="104.785156" xlink:href="#DejaVuSans-118"/>
      <use x="163.964844" xlink:href="#DejaVuSans-111"/>
      <use x="225.146484" xlink:href="#DejaVuSans-114"/>
      <use x="266.228516" xlink:href="#DejaVuSans-99"/>
      <use x="321.208984" xlink:href="#DejaVuSans-101"/>
      <use x="382.732422" xlink:href="#DejaVuSans-32"/>
      <use x="414.519531" xlink:href="#DejaVuSans-114"/>
      <use x="455.632812" xlink:href="#DejaVuSans-97"/>
      <use x="516.912109" xlink:href="#DejaVuSans-116"/>
      <use x="556.121094" xlink:href="#DejaVuSans-101"/>
     </g>
    </g>
   </g>
   <g id="line2d_27">
    <path clip-path="url(#p9260c8b9c8)" d="M 56.274119 117.272013 
L 60.956637 118.757323 
L 103.099294 139.101097 
L 107.781812 141.67238 
L 112.464329 144.210041 
L 131.194399 151.355325 
L 140.559434 156.809647 
L 140.559434 158.261971 
L 149.924469 160.927797 
L 149.924469 161.25864 
L 149.924469 162.013308 
L 154.606986 162.645462 
L 154.606986 162.571295 
L 159.289504 167.298465 
L 159.289504 165.427803 
L 168.654539 169.901203 
L 168.654539 169.566401 
L 173.337056 174.018192 
L 173.337056 171.584289 
L 173.337056 170.94936 
L 173.337056 171.542606 
L 178.019574 174.795175 
L 178.019574 175.012782 
L 178.019574 174.684129 
L 182.702091 177.388432 
L 182.702091 178.078977 
L 182.702091 177.38527 
L 187.384609 179.791624 
L 201.432161 185.990601 
L 201.432161 185.764874 
L 201.432161 185.543499 
L 206.114679 186.257783 
L 206.114679 188.508191 
L 206.114679 188.740407 
L 206.114679 188.454375 
L 206.114679 187.856042 
L 215.479714 192.318946 
L 224.844749 197.618429 
L 224.844749 195.090614 
L 229.527266 197.663441 
L 229.527266 199.809694 
L 234.209784 203.430482 
L 238.892301 202.66982 
L 248.257336 206.883048 
L 262.304889 214.809736 
L 266.987406 216.369121 
L 290.399993 228.935729 
L 299.765028 232.118749 
L 304.447546 234.490216 
L 360.637756 261.253386 
" style="fill:none;stroke:#348abd;stroke-linecap:square;stroke-width:2;"/>
   </g>
   <g id="line2d_28">
    <defs>
     <path d="M 0 3 
C 0.795609 3 1.55874 2.683901 2.12132 2.12132 
C 2.683901 1.55874 3 0.795609 3 0 
C 3 -0.795609 2.683901 -1.55874 2.12132 -2.12132 
C 1.55874 -2.683901 0.795609 -3 0 -3 
C -0.795609 -3 -1.55874 -2.683901 -2.12132 -2.12132 
C -2.683901 -1.55874 -3 -0.795609 -3 0 
C -3 0.795609 -2.683901 1.55874 -2.12132 2.12132 
C -1.55874 2.683901 -0.795609 3 0 3 
z
" id="m2f5b9cfea3" style="stroke:#a60628;"/>
    </defs>
    <g clip-path="url(#p9260c8b9c8)">
     <use style="fill:#a60628;stroke:#a60628;" x="56.274119" xlink:href="#m2f5b9cfea3" y="233.812017"/>
     <use style="fill:#a60628;stroke:#a60628;" x="60.956637" xlink:href="#m2f5b9cfea3" y="166.378246"/>
     <use style="fill:#a60628;stroke:#a60628;" x="103.099294" xlink:href="#m2f5b9cfea3" y="163.680895"/>
     <use style="fill:#a60628;stroke:#a60628;" x="107.781812" xlink:href="#m2f5b9cfea3" y="77.365668"/>
     <use style="fill:#a60628;stroke:#a60628;" x="112.464329" xlink:href="#m2f5b9cfea3" y="96.247124"/>
     <use style="fill:#a60628;stroke:#a60628;" x="131.194399" xlink:href="#m2f5b9cfea3" y="101.641826"/>
     <use style="fill:#a60628;stroke:#a60628;" x="140.559434" xlink:href="#m2f5b9cfea3" y="147.49679"/>
     <use style="fill:#a60628;stroke:#a60628;" x="140.559434" xlink:href="#m2f5b9cfea3" y="155.588843"/>
     <use style="fill:#a60628;stroke:#a60628;" x="149.924469" xlink:href="#m2f5b9cfea3" y="104.339177"/>
     <use style="fill:#a60628;stroke:#a60628;" x="149.924469" xlink:href="#m2f5b9cfea3" y="171.772948"/>
     <use style="fill:#a60628;stroke:#a60628;" x="149.924469" xlink:href="#m2f5b9cfea3" y="134.010036"/>
     <use style="fill:#a60628;stroke:#a60628;" x="154.606986" xlink:href="#m2f5b9cfea3" y="98.944475"/>
     <use style="fill:#a60628;stroke:#a60628;" x="154.606986" xlink:href="#m2f5b9cfea3" y="225.719964"/>
     <use style="fill:#a60628;stroke:#a60628;" x="159.289504" xlink:href="#m2f5b9cfea3" y="166.378246"/>
     <use style="fill:#a60628;stroke:#a60628;" x="159.289504" xlink:href="#m2f5b9cfea3" y="204.141158"/>
     <use style="fill:#a60628;stroke:#a60628;" x="168.654539" xlink:href="#m2f5b9cfea3" y="185.259702"/>
     <use style="fill:#a60628;stroke:#a60628;" x="168.654539" xlink:href="#m2f5b9cfea3" y="147.49679"/>
     <use style="fill:#a60628;stroke:#a60628;" x="173.337056" xlink:href="#m2f5b9cfea3" y="144.799439"/>
     <use style="fill:#a60628;stroke:#a60628;" x="173.337056" xlink:href="#m2f5b9cfea3" y="128.615334"/>
     <use style="fill:#a60628;stroke:#a60628;" x="173.337056" xlink:href="#m2f5b9cfea3" y="174.470298"/>
     <use style="fill:#a60628;stroke:#a60628;" x="173.337056" xlink:href="#m2f5b9cfea3" y="196.049105"/>
     <use style="fill:#a60628;stroke:#a60628;" x="178.019574" xlink:href="#m2f5b9cfea3" y="150.194141"/>
     <use style="fill:#a60628;stroke:#a60628;" x="178.019574" xlink:href="#m2f5b9cfea3" y="166.378246"/>
     <use style="fill:#a60628;stroke:#a60628;" x="178.019574" xlink:href="#m2f5b9cfea3" y="142.102088"/>
     <use style="fill:#a60628;stroke:#a60628;" x="182.702091" xlink:href="#m2f5b9cfea3" y="131.312685"/>
     <use style="fill:#a60628;stroke:#a60628;" x="182.702091" xlink:href="#m2f5b9cfea3" y="144.799439"/>
     <use style="fill:#a60628;stroke:#a60628;" x="182.702091" xlink:href="#m2f5b9cfea3" y="171.772948"/>
     <use style="fill:#a60628;stroke:#a60628;" x="187.384609" xlink:href="#m2f5b9cfea3" y="160.983544"/>
     <use style="fill:#a60628;stroke:#a60628;" x="201.432161" xlink:href="#m2f5b9cfea3" y="241.90407"/>
     <use style="fill:#a60628;stroke:#a60628;" x="201.432161" xlink:href="#m2f5b9cfea3" y="185.259702"/>
     <use style="fill:#a60628;stroke:#a60628;" x="201.432161" xlink:href="#m2f5b9cfea3" y="217.627912"/>
     <use style="fill:#a60628;stroke:#a60628;" x="206.114679" xlink:href="#m2f5b9cfea3" y="193.351754"/>
     <use style="fill:#a60628;stroke:#a60628;" x="206.114679" xlink:href="#m2f5b9cfea3" y="90.852422"/>
     <use style="fill:#a60628;stroke:#a60628;" x="206.114679" xlink:href="#m2f5b9cfea3" y="223.022614"/>
     <use style="fill:#a60628;stroke:#a60628;" x="206.114679" xlink:href="#m2f5b9cfea3" y="212.23321"/>
     <use style="fill:#a60628;stroke:#a60628;" x="206.114679" xlink:href="#m2f5b9cfea3" y="201.443807"/>
     <use style="fill:#a60628;stroke:#a60628;" x="215.479714" xlink:href="#m2f5b9cfea3" y="201.443807"/>
     <use style="fill:#a60628;stroke:#a60628;" x="224.844749" xlink:href="#m2f5b9cfea3" y="169.075597"/>
     <use style="fill:#a60628;stroke:#a60628;" x="224.844749" xlink:href="#m2f5b9cfea3" y="225.719964"/>
     <use style="fill:#a60628;stroke:#a60628;" x="229.527266" xlink:href="#m2f5b9cfea3" y="217.627912"/>
     <use style="fill:#a60628;stroke:#a60628;" x="229.527266" xlink:href="#m2f5b9cfea3" y="182.562351"/>
     <use style="fill:#a60628;stroke:#a60628;" x="234.209784" xlink:href="#m2f5b9cfea3" y="225.719964"/>
     <use style="fill:#a60628;stroke:#a60628;" x="238.892301" xlink:href="#m2f5b9cfea3" y="233.812017"/>
     <use style="fill:#a60628;stroke:#a60628;" x="248.257336" xlink:href="#m2f5b9cfea3" y="204.141158"/>
     <use style="fill:#a60628;stroke:#a60628;" x="262.304889" xlink:href="#m2f5b9cfea3" y="260.785525"/>
     <use style="fill:#a60628;stroke:#a60628;" x="266.987406" xlink:href="#m2f5b9cfea3" y="276.96963"/>
     <use style="fill:#a60628;stroke:#a60628;" x="290.399993" xlink:href="#m2f5b9cfea3" y="187.957053"/>
     <use style="fill:#a60628;stroke:#a60628;" x="299.765028" xlink:href="#m2f5b9cfea3" y="263.482876"/>
     <use style="fill:#a60628;stroke:#a60628;" x="304.447546" xlink:href="#m2f5b9cfea3" y="231.114666"/>
     <use style="fill:#a60628;stroke:#a60628;" x="360.637756" xlink:href="#m2f5b9cfea3" y="271.574929"/>
    </g>
   </g>
   <g id="patch_3">
    <path d="M 41.055938 350.30175 
L 41.055938 24.14175 
" style="fill:none;stroke:#bcbcbc;stroke-linecap:square;stroke-linejoin:miter;stroke-width:0.8;"/>
   </g>
   <g id="patch_4">
    <path d="M 375.855938 350.30175 
L 375.855938 24.14175 
" style="fill:none;stroke:#bcbcbc;stroke-linecap:square;stroke-linejoin:miter;stroke-width:0.8;"/>
   </g>
   <g id="patch_5">
    <path d="M 41.055937 350.30175 
L 375.855937 350.30175 
" style="fill:none;stroke:#bcbcbc;stroke-linecap:square;stroke-linejoin:miter;stroke-width:0.8;"/>
   </g>
   <g id="patch_6">
    <path d="M 41.055937 24.14175 
L 375.855937 24.14175 
" style="fill:none;stroke:#bcbcbc;stroke-linecap:square;stroke-linejoin:miter;stroke-width:0.8;"/>
   </g>
   <g id="text_16">
    <!-- Predictions with 90% CI -->
    <defs>
     <path d="M 19.671875 64.796875 
L 19.671875 37.40625 
L 32.078125 37.40625 
Q 38.96875 37.40625 42.71875 40.96875 
Q 46.484375 44.53125 46.484375 51.125 
Q 46.484375 57.671875 42.71875 61.234375 
Q 38.96875 64.796875 32.078125 64.796875 
z
M 9.8125 72.90625 
L 32.078125 72.90625 
Q 44.34375 72.90625 50.609375 67.359375 
Q 56.890625 61.8125 56.890625 51.125 
Q 56.890625 40.328125 50.609375 34.8125 
Q 44.34375 29.296875 32.078125 29.296875 
L 19.671875 29.296875 
L 19.671875 0 
L 9.8125 0 
z
" id="DejaVuSans-80"/>
     <path d="M 44.28125 53.078125 
L 44.28125 44.578125 
Q 40.484375 46.53125 36.375 47.5 
Q 32.28125 48.484375 27.875 48.484375 
Q 21.1875 48.484375 17.84375 46.4375 
Q 14.5 44.390625 14.5 40.28125 
Q 14.5 37.15625 16.890625 35.375 
Q 19.28125 33.59375 26.515625 31.984375 
L 29.59375 31.296875 
Q 39.15625 29.25 43.1875 25.515625 
Q 47.21875 21.78125 47.21875 15.09375 
Q 47.21875 7.46875 41.1875 3.015625 
Q 35.15625 -1.421875 24.609375 -1.421875 
Q 20.21875 -1.421875 15.453125 -0.5625 
Q 10.6875 0.296875 5.421875 2 
L 5.421875 11.28125 
Q 10.40625 8.6875 15.234375 7.390625 
Q 20.0625 6.109375 24.8125 6.109375 
Q 31.15625 6.109375 34.5625 8.28125 
Q 37.984375 10.453125 37.984375 14.40625 
Q 37.984375 18.0625 35.515625 20.015625 
Q 33.0625 21.96875 24.703125 23.78125 
L 21.578125 24.515625 
Q 13.234375 26.265625 9.515625 29.90625 
Q 5.8125 33.546875 5.8125 39.890625 
Q 5.8125 47.609375 11.28125 51.796875 
Q 16.75 56 26.8125 56 
Q 31.78125 56 36.171875 55.265625 
Q 40.578125 54.546875 44.28125 53.078125 
z
" id="DejaVuSans-115"/>
     <path d="M 4.203125 54.6875 
L 13.1875 54.6875 
L 24.421875 12.015625 
L 35.59375 54.6875 
L 46.1875 54.6875 
L 57.421875 12.015625 
L 68.609375 54.6875 
L 77.59375 54.6875 
L 63.28125 0 
L 52.6875 0 
L 40.921875 44.828125 
L 29.109375 0 
L 18.5 0 
z
" id="DejaVuSans-119"/>
     <path d="M 54.890625 33.015625 
L 54.890625 0 
L 45.90625 0 
L 45.90625 32.71875 
Q 45.90625 40.484375 42.875 44.328125 
Q 39.84375 48.1875 33.796875 48.1875 
Q 26.515625 48.1875 22.3125 43.546875 
Q 18.109375 38.921875 18.109375 30.90625 
L 18.109375 0 
L 9.078125 0 
L 9.078125 75.984375 
L 18.109375 75.984375 
L 18.109375 46.1875 
Q 21.34375 51.125 25.703125 53.5625 
Q 30.078125 56 35.796875 56 
Q 45.21875 56 50.046875 50.171875 
Q 54.890625 44.34375 54.890625 33.015625 
z
" id="DejaVuSans-104"/>
     <path d="M 10.984375 1.515625 
L 10.984375 10.5 
Q 14.703125 8.734375 18.5 7.8125 
Q 22.3125 6.890625 25.984375 6.890625 
Q 35.75 6.890625 40.890625 13.453125 
Q 46.046875 20.015625 46.78125 33.40625 
Q 43.953125 29.203125 39.59375 26.953125 
Q 35.25 24.703125 29.984375 24.703125 
Q 19.046875 24.703125 12.671875 31.3125 
Q 6.296875 37.9375 6.296875 49.421875 
Q 6.296875 60.640625 12.9375 67.421875 
Q 19.578125 74.21875 30.609375 74.21875 
Q 43.265625 74.21875 49.921875 64.515625 
Q 56.59375 54.828125 56.59375 36.375 
Q 56.59375 19.140625 48.40625 8.859375 
Q 40.234375 -1.421875 26.421875 -1.421875 
Q 22.703125 -1.421875 18.890625 -0.6875 
Q 15.09375 0.046875 10.984375 1.515625 
z
M 30.609375 32.421875 
Q 37.25 32.421875 41.125 36.953125 
Q 45.015625 41.5 45.015625 49.421875 
Q 45.015625 57.28125 41.125 61.84375 
Q 37.25 66.40625 30.609375 66.40625 
Q 23.96875 66.40625 20.09375 61.84375 
Q 16.21875 57.28125 16.21875 49.421875 
Q 16.21875 41.5 20.09375 36.953125 
Q 23.96875 32.421875 30.609375 32.421875 
z
" id="DejaVuSans-57"/>
     <path d="M 72.703125 32.078125 
Q 68.453125 32.078125 66.03125 28.46875 
Q 63.625 24.859375 63.625 18.40625 
Q 63.625 12.0625 66.03125 8.421875 
Q 68.453125 4.78125 72.703125 4.78125 
Q 76.859375 4.78125 79.265625 8.421875 
Q 81.6875 12.0625 81.6875 18.40625 
Q 81.6875 24.8125 79.265625 28.4375 
Q 76.859375 32.078125 72.703125 32.078125 
z
M 72.703125 38.28125 
Q 80.421875 38.28125 84.953125 32.90625 
Q 89.5 27.546875 89.5 18.40625 
Q 89.5 9.28125 84.9375 3.921875 
Q 80.375 -1.421875 72.703125 -1.421875 
Q 64.890625 -1.421875 60.34375 3.921875 
Q 55.8125 9.28125 55.8125 18.40625 
Q 55.8125 27.59375 60.375 32.9375 
Q 64.9375 38.28125 72.703125 38.28125 
z
M 22.3125 68.015625 
Q 18.109375 68.015625 15.6875 64.375 
Q 13.28125 60.75 13.28125 54.390625 
Q 13.28125 47.953125 15.671875 44.328125 
Q 18.0625 40.71875 22.3125 40.71875 
Q 26.5625 40.71875 28.96875 44.328125 
Q 31.390625 47.953125 31.390625 54.390625 
Q 31.390625 60.6875 28.953125 64.34375 
Q 26.515625 68.015625 22.3125 68.015625 
z
M 66.40625 74.21875 
L 74.21875 74.21875 
L 28.609375 -1.421875 
L 20.796875 -1.421875 
z
M 22.3125 74.21875 
Q 30.03125 74.21875 34.609375 68.875 
Q 39.203125 63.53125 39.203125 54.390625 
Q 39.203125 45.171875 34.640625 39.84375 
Q 30.078125 34.515625 22.3125 34.515625 
Q 14.546875 34.515625 10.03125 39.859375 
Q 5.515625 45.21875 5.515625 54.390625 
Q 5.515625 63.484375 10.046875 68.84375 
Q 14.59375 74.21875 22.3125 74.21875 
z
" id="DejaVuSans-37"/>
     <path d="M 64.40625 67.28125 
L 64.40625 56.890625 
Q 59.421875 61.53125 53.78125 63.8125 
Q 48.140625 66.109375 41.796875 66.109375 
Q 29.296875 66.109375 22.65625 58.46875 
Q 16.015625 50.828125 16.015625 36.375 
Q 16.015625 21.96875 22.65625 14.328125 
Q 29.296875 6.6875 41.796875 6.6875 
Q 48.140625 6.6875 53.78125 8.984375 
Q 59.421875 11.28125 64.40625 15.921875 
L 64.40625 5.609375 
Q 59.234375 2.09375 53.4375 0.328125 
Q 47.65625 -1.421875 41.21875 -1.421875 
Q 24.65625 -1.421875 15.125 8.703125 
Q 5.609375 18.84375 5.609375 36.375 
Q 5.609375 53.953125 15.125 64.078125 
Q 24.65625 74.21875 41.21875 74.21875 
Q 47.75 74.21875 53.53125 72.484375 
Q 59.328125 70.75 64.40625 67.28125 
z
" id="DejaVuSans-67"/>
     <path d="M 9.8125 72.90625 
L 19.671875 72.90625 
L 19.671875 0 
L 9.8125 0 
z
" id="DejaVuSans-73"/>
    </defs>
    <g transform="translate(123.362063 18.14175)scale(0.144 -0.144)">
     <use xlink:href="#DejaVuSans-80"/>
     <use x="60.287109" xlink:href="#DejaVuSans-114"/>
     <use x="101.369141" xlink:href="#DejaVuSans-101"/>
     <use x="162.892578" xlink:href="#DejaVuSans-100"/>
     <use x="226.369141" xlink:href="#DejaVuSans-105"/>
     <use x="254.152344" xlink:href="#DejaVuSans-99"/>
     <use x="309.132812" xlink:href="#DejaVuSans-116"/>
     <use x="348.341797" xlink:href="#DejaVuSans-105"/>
     <use x="376.125" xlink:href="#DejaVuSans-111"/>
     <use x="437.306641" xlink:href="#DejaVuSans-110"/>
     <use x="500.685547" xlink:href="#DejaVuSans-115"/>
     <use x="552.785156" xlink:href="#DejaVuSans-32"/>
     <use x="584.572266" xlink:href="#DejaVuSans-119"/>
     <use x="666.359375" xlink:href="#DejaVuSans-105"/>
     <use x="694.142578" xlink:href="#DejaVuSans-116"/>
     <use x="733.351562" xlink:href="#DejaVuSans-104"/>
     <use x="796.730469" xlink:href="#DejaVuSans-32"/>
     <use x="828.517578" xlink:href="#DejaVuSans-57"/>
     <use x="892.140625" xlink:href="#DejaVuSans-48"/>
     <use x="955.763672" xlink:href="#DejaVuSans-37"/>
     <use x="1050.783203" xlink:href="#DejaVuSans-32"/>
     <use x="1082.570312" xlink:href="#DejaVuSans-67"/>
     <use x="1152.394531" xlink:href="#DejaVuSans-73"/>
    </g>
   </g>
  </g>
 </g>
 <defs>
  <clipPath id="p9260c8b9c8">
   <rect height="326.16" width="334.8" x="41.055938" y="24.14175"/>
  </clipPath>
 </defs>
</svg>
