<?xml version="1.0" encoding="utf-8" standalone="no"?>
<!DOCTYPE svg PUBLIC "-//W3C//DTD SVG 1.1//EN"
  "http://www.w3.org/Graphics/SVG/1.1/DTD/svg11.dtd">
<!-- Created with matplotlib (https://matplotlib.org/) -->
<svg height="386.293625pt" version="1.1" viewBox="0 0 606.255938 386.293625" width="606.255938pt" xmlns="http://www.w3.org/2000/svg" xmlns:xlink="http://www.w3.org/1999/xlink">
 <defs>
  <style type="text/css">
*{stroke-linecap:butt;stroke-linejoin:round;}
  </style>
 </defs>
 <g id="figure_1">
  <g id="patch_1">
   <path d="M 0 386.293625 
L 606.255938 386.293625 
L 606.255938 0 
L 0 0 
z
" style="fill:none;"/>
  </g>
  <g id="axes_1">
   <g id="patch_2">
    <path d="M 41.055938 350.30175 
L 599.055938 350.30175 
L 599.055938 24.14175 
L 41.055938 24.14175 
z
" style="fill:#eeeeee;"/>
   </g>
   <g id="matplotlib.axis_1">
    <g id="xtick_1">
     <g id="line2d_1">
      <path clip-path="url(#p1b7a74a69a)" d="M 93.467256 350.30175 
L 93.467256 24.14175 
" style="fill:none;stroke:#b2b2b2;stroke-dasharray:1.85,0.8;stroke-dashoffset:0;stroke-width:0.5;"/>
     </g>
     <g id="line2d_2">
      <defs>
       <path d="M 0 0 
L 0 -3.5 
" id="m3df53a40c6" style="stroke:#000000;stroke-width:0.8;"/>
      </defs>
      <g>
       <use style="stroke:#000000;stroke-width:0.8;" x="93.467256" xlink:href="#m3df53a40c6" y="350.30175"/>
      </g>
     </g>
     <g id="text_1">
      <!-- 0.2 -->
      <defs>
       <path d="M 31.78125 66.40625 
Q 24.171875 66.40625 20.328125 58.90625 
Q 16.5 51.421875 16.5 36.375 
Q 16.5 21.390625 20.328125 13.890625 
Q 24.171875 6.390625 31.78125 6.390625 
Q 39.453125 6.390625 43.28125 13.890625 
Q 47.125 21.390625 47.125 36.375 
Q 47.125 51.421875 43.28125 58.90625 
Q 39.453125 66.40625 31.78125 66.40625 
z
M 31.78125 74.21875 
Q 44.046875 74.21875 50.515625 64.515625 
Q 56.984375 54.828125 56.984375 36.375 
Q 56.984375 17.96875 50.515625 8.265625 
Q 44.046875 -1.421875 31.78125 -1.421875 
Q 19.53125 -1.421875 13.0625 8.265625 
Q 6.59375 17.96875 6.59375 36.375 
Q 6.59375 54.828125 13.0625 64.515625 
Q 19.53125 74.21875 31.78125 74.21875 
z
" id="DejaVuSans-48"/>
       <path d="M 10.6875 12.40625 
L 21 12.40625 
L 21 0 
L 10.6875 0 
z
" id="DejaVuSans-46"/>
       <path d="M 19.1875 8.296875 
L 53.609375 8.296875 
L 53.609375 0 
L 7.328125 0 
L 7.328125 8.296875 
Q 12.9375 14.109375 22.625 23.890625 
Q 32.328125 33.6875 34.8125 36.53125 
Q 39.546875 41.84375 41.421875 45.53125 
Q 43.3125 49.21875 43.3125 52.78125 
Q 43.3125 58.59375 39.234375 62.25 
Q 35.15625 65.921875 28.609375 65.921875 
Q 23.96875 65.921875 18.8125 64.3125 
Q 13.671875 62.703125 7.8125 59.421875 
L 7.8125 69.390625 
Q 13.765625 71.78125 18.9375 73 
Q 24.125 74.21875 28.421875 74.21875 
Q 39.75 74.21875 46.484375 68.546875 
Q 53.21875 62.890625 53.21875 53.421875 
Q 53.21875 48.921875 51.53125 44.890625 
Q 49.859375 40.875 45.40625 35.40625 
Q 44.1875 33.984375 37.640625 27.21875 
Q 31.109375 20.453125 19.1875 8.296875 
z
" id="DejaVuSans-50"/>
      </defs>
      <g transform="translate(85.515693 361.400188)scale(0.1 -0.1)">
       <use xlink:href="#DejaVuSans-48"/>
       <use x="63.623047" xlink:href="#DejaVuSans-46"/>
       <use x="95.410156" xlink:href="#DejaVuSans-50"/>
      </g>
     </g>
    </g>
    <g id="xtick_2">
     <g id="line2d_3">
      <path clip-path="url(#p1b7a74a69a)" d="M 174.38461 350.30175 
L 174.38461 24.14175 
" style="fill:none;stroke:#b2b2b2;stroke-dasharray:1.85,0.8;stroke-dashoffset:0;stroke-width:0.5;"/>
     </g>
     <g id="line2d_4">
      <g>
       <use style="stroke:#000000;stroke-width:0.8;" x="174.38461" xlink:href="#m3df53a40c6" y="350.30175"/>
      </g>
     </g>
     <g id="text_2">
      <!-- 0.4 -->
      <defs>
       <path d="M 37.796875 64.3125 
L 12.890625 25.390625 
L 37.796875 25.390625 
z
M 35.203125 72.90625 
L 47.609375 72.90625 
L 47.609375 25.390625 
L 58.015625 25.390625 
L 58.015625 17.1875 
L 47.609375 17.1875 
L 47.609375 0 
L 37.796875 0 
L 37.796875 17.1875 
L 4.890625 17.1875 
L 4.890625 26.703125 
z
" id="DejaVuSans-52"/>
      </defs>
      <g transform="translate(166.433048 361.400188)scale(0.1 -0.1)">
       <use xlink:href="#DejaVuSans-48"/>
       <use x="63.623047" xlink:href="#DejaVuSans-46"/>
       <use x="95.410156" xlink:href="#DejaVuSans-52"/>
      </g>
     </g>
    </g>
    <g id="xtick_3">
     <g id="line2d_5">
      <path clip-path="url(#p1b7a74a69a)" d="M 255.301964 350.30175 
L 255.301964 24.14175 
" style="fill:none;stroke:#b2b2b2;stroke-dasharray:1.85,0.8;stroke-dashoffset:0;stroke-width:0.5;"/>
     </g>
     <g id="line2d_6">
      <g>
       <use style="stroke:#000000;stroke-width:0.8;" x="255.301964" xlink:href="#m3df53a40c6" y="350.30175"/>
      </g>
     </g>
     <g id="text_3">
      <!-- 0.6 -->
      <defs>
       <path d="M 33.015625 40.375 
Q 26.375 40.375 22.484375 35.828125 
Q 18.609375 31.296875 18.609375 23.390625 
Q 18.609375 15.53125 22.484375 10.953125 
Q 26.375 6.390625 33.015625 6.390625 
Q 39.65625 6.390625 43.53125 10.953125 
Q 47.40625 15.53125 47.40625 23.390625 
Q 47.40625 31.296875 43.53125 35.828125 
Q 39.65625 40.375 33.015625 40.375 
z
M 52.59375 71.296875 
L 52.59375 62.3125 
Q 48.875 64.0625 45.09375 64.984375 
Q 41.3125 65.921875 37.59375 65.921875 
Q 27.828125 65.921875 22.671875 59.328125 
Q 17.53125 52.734375 16.796875 39.40625 
Q 19.671875 43.65625 24.015625 45.921875 
Q 28.375 48.1875 33.59375 48.1875 
Q 44.578125 48.1875 50.953125 41.515625 
Q 57.328125 34.859375 57.328125 23.390625 
Q 57.328125 12.15625 50.6875 5.359375 
Q 44.046875 -1.421875 33.015625 -1.421875 
Q 20.359375 -1.421875 13.671875 8.265625 
Q 6.984375 17.96875 6.984375 36.375 
Q 6.984375 53.65625 15.1875 63.9375 
Q 23.390625 74.21875 37.203125 74.21875 
Q 40.921875 74.21875 44.703125 73.484375 
Q 48.484375 72.75 52.59375 71.296875 
z
" id="DejaVuSans-54"/>
      </defs>
      <g transform="translate(247.350402 361.400188)scale(0.1 -0.1)">
       <use xlink:href="#DejaVuSans-48"/>
       <use x="63.623047" xlink:href="#DejaVuSans-46"/>
       <use x="95.410156" xlink:href="#DejaVuSans-54"/>
      </g>
     </g>
    </g>
    <g id="xtick_4">
     <g id="line2d_7">
      <path clip-path="url(#p1b7a74a69a)" d="M 336.219318 350.30175 
L 336.219318 24.14175 
" style="fill:none;stroke:#b2b2b2;stroke-dasharray:1.85,0.8;stroke-dashoffset:0;stroke-width:0.5;"/>
     </g>
     <g id="line2d_8">
      <g>
       <use style="stroke:#000000;stroke-width:0.8;" x="336.219318" xlink:href="#m3df53a40c6" y="350.30175"/>
      </g>
     </g>
     <g id="text_4">
      <!-- 0.8 -->
      <defs>
       <path d="M 31.78125 34.625 
Q 24.75 34.625 20.71875 30.859375 
Q 16.703125 27.09375 16.703125 20.515625 
Q 16.703125 13.921875 20.71875 10.15625 
Q 24.75 6.390625 31.78125 6.390625 
Q 38.8125 6.390625 42.859375 10.171875 
Q 46.921875 13.96875 46.921875 20.515625 
Q 46.921875 27.09375 42.890625 30.859375 
Q 38.875 34.625 31.78125 34.625 
z
M 21.921875 38.8125 
Q 15.578125 40.375 12.03125 44.71875 
Q 8.5 49.078125 8.5 55.328125 
Q 8.5 64.0625 14.71875 69.140625 
Q 20.953125 74.21875 31.78125 74.21875 
Q 42.671875 74.21875 48.875 69.140625 
Q 55.078125 64.0625 55.078125 55.328125 
Q 55.078125 49.078125 51.53125 44.71875 
Q 48 40.375 41.703125 38.8125 
Q 48.828125 37.15625 52.796875 32.3125 
Q 56.78125 27.484375 56.78125 20.515625 
Q 56.78125 9.90625 50.3125 4.234375 
Q 43.84375 -1.421875 31.78125 -1.421875 
Q 19.734375 -1.421875 13.25 4.234375 
Q 6.78125 9.90625 6.78125 20.515625 
Q 6.78125 27.484375 10.78125 32.3125 
Q 14.796875 37.15625 21.921875 38.8125 
z
M 18.3125 54.390625 
Q 18.3125 48.734375 21.84375 45.5625 
Q 25.390625 42.390625 31.78125 42.390625 
Q 38.140625 42.390625 41.71875 45.5625 
Q 45.3125 48.734375 45.3125 54.390625 
Q 45.3125 60.0625 41.71875 63.234375 
Q 38.140625 66.40625 31.78125 66.40625 
Q 25.390625 66.40625 21.84375 63.234375 
Q 18.3125 60.0625 18.3125 54.390625 
z
" id="DejaVuSans-56"/>
      </defs>
      <g transform="translate(328.267756 361.400188)scale(0.1 -0.1)">
       <use xlink:href="#DejaVuSans-48"/>
       <use x="63.623047" xlink:href="#DejaVuSans-46"/>
       <use x="95.410156" xlink:href="#DejaVuSans-56"/>
      </g>
     </g>
    </g>
    <g id="xtick_5">
     <g id="line2d_9">
      <path clip-path="url(#p1b7a74a69a)" d="M 417.136672 350.30175 
L 417.136672 24.14175 
" style="fill:none;stroke:#b2b2b2;stroke-dasharray:1.85,0.8;stroke-dashoffset:0;stroke-width:0.5;"/>
     </g>
     <g id="line2d_10">
      <g>
       <use style="stroke:#000000;stroke-width:0.8;" x="417.136672" xlink:href="#m3df53a40c6" y="350.30175"/>
      </g>
     </g>
     <g id="text_5">
      <!-- 1.0 -->
      <defs>
       <path d="M 12.40625 8.296875 
L 28.515625 8.296875 
L 28.515625 63.921875 
L 10.984375 60.40625 
L 10.984375 69.390625 
L 28.421875 72.90625 
L 38.28125 72.90625 
L 38.28125 8.296875 
L 54.390625 8.296875 
L 54.390625 0 
L 12.40625 0 
z
" id="DejaVuSans-49"/>
      </defs>
      <g transform="translate(409.18511 361.400188)scale(0.1 -0.1)">
       <use xlink:href="#DejaVuSans-49"/>
       <use x="63.623047" xlink:href="#DejaVuSans-46"/>
       <use x="95.410156" xlink:href="#DejaVuSans-48"/>
      </g>
     </g>
    </g>
    <g id="xtick_6">
     <g id="line2d_11">
      <path clip-path="url(#p1b7a74a69a)" d="M 498.054026 350.30175 
L 498.054026 24.14175 
" style="fill:none;stroke:#b2b2b2;stroke-dasharray:1.85,0.8;stroke-dashoffset:0;stroke-width:0.5;"/>
     </g>
     <g id="line2d_12">
      <g>
       <use style="stroke:#000000;stroke-width:0.8;" x="498.054026" xlink:href="#m3df53a40c6" y="350.30175"/>
      </g>
     </g>
     <g id="text_6">
      <!-- 1.2 -->
      <g transform="translate(490.102464 361.400188)scale(0.1 -0.1)">
       <use xlink:href="#DejaVuSans-49"/>
       <use x="63.623047" xlink:href="#DejaVuSans-46"/>
       <use x="95.410156" xlink:href="#DejaVuSans-50"/>
      </g>
     </g>
    </g>
    <g id="xtick_7">
     <g id="line2d_13">
      <path clip-path="url(#p1b7a74a69a)" d="M 578.97138 350.30175 
L 578.97138 24.14175 
" style="fill:none;stroke:#b2b2b2;stroke-dasharray:1.85,0.8;stroke-dashoffset:0;stroke-width:0.5;"/>
     </g>
     <g id="line2d_14">
      <g>
       <use style="stroke:#000000;stroke-width:0.8;" x="578.97138" xlink:href="#m3df53a40c6" y="350.30175"/>
      </g>
     </g>
     <g id="text_7">
      <!-- 1.4 -->
      <g transform="translate(571.019818 361.400188)scale(0.1 -0.1)">
       <use xlink:href="#DejaVuSans-49"/>
       <use x="63.623047" xlink:href="#DejaVuSans-46"/>
       <use x="95.410156" xlink:href="#DejaVuSans-52"/>
      </g>
     </g>
    </g>
    <g id="text_8">
     <!-- Measurement Noise -->
     <defs>
      <path d="M 9.8125 72.90625 
L 24.515625 72.90625 
L 43.109375 23.296875 
L 61.8125 72.90625 
L 76.515625 72.90625 
L 76.515625 0 
L 66.890625 0 
L 66.890625 64.015625 
L 48.09375 14.015625 
L 38.1875 14.015625 
L 19.390625 64.015625 
L 19.390625 0 
L 9.8125 0 
z
" id="DejaVuSans-77"/>
      <path d="M 56.203125 29.59375 
L 56.203125 25.203125 
L 14.890625 25.203125 
Q 15.484375 15.921875 20.484375 11.0625 
Q 25.484375 6.203125 34.421875 6.203125 
Q 39.59375 6.203125 44.453125 7.46875 
Q 49.3125 8.734375 54.109375 11.28125 
L 54.109375 2.78125 
Q 49.265625 0.734375 44.1875 -0.34375 
Q 39.109375 -1.421875 33.890625 -1.421875 
Q 20.796875 -1.421875 13.15625 6.1875 
Q 5.515625 13.8125 5.515625 26.8125 
Q 5.515625 40.234375 12.765625 48.109375 
Q 20.015625 56 32.328125 56 
Q 43.359375 56 49.78125 48.890625 
Q 56.203125 41.796875 56.203125 29.59375 
z
M 47.21875 32.234375 
Q 47.125 39.59375 43.09375 43.984375 
Q 39.0625 48.390625 32.421875 48.390625 
Q 24.90625 48.390625 20.390625 44.140625 
Q 15.875 39.890625 15.1875 32.171875 
z
" id="DejaVuSans-101"/>
      <path d="M 34.28125 27.484375 
Q 23.390625 27.484375 19.1875 25 
Q 14.984375 22.515625 14.984375 16.5 
Q 14.984375 11.71875 18.140625 8.90625 
Q 21.296875 6.109375 26.703125 6.109375 
Q 34.1875 6.109375 38.703125 11.40625 
Q 43.21875 16.703125 43.21875 25.484375 
L 43.21875 27.484375 
z
M 52.203125 31.203125 
L 52.203125 0 
L 43.21875 0 
L 43.21875 8.296875 
Q 40.140625 3.328125 35.546875 0.953125 
Q 30.953125 -1.421875 24.3125 -1.421875 
Q 15.921875 -1.421875 10.953125 3.296875 
Q 6 8.015625 6 15.921875 
Q 6 25.140625 12.171875 29.828125 
Q 18.359375 34.515625 30.609375 34.515625 
L 43.21875 34.515625 
L 43.21875 35.40625 
Q 43.21875 41.609375 39.140625 45 
Q 35.0625 48.390625 27.6875 48.390625 
Q 23 48.390625 18.546875 47.265625 
Q 14.109375 46.140625 10.015625 43.890625 
L 10.015625 52.203125 
Q 14.9375 54.109375 19.578125 55.046875 
Q 24.21875 56 28.609375 56 
Q 40.484375 56 46.34375 49.84375 
Q 52.203125 43.703125 52.203125 31.203125 
z
" id="DejaVuSans-97"/>
      <path d="M 44.28125 53.078125 
L 44.28125 44.578125 
Q 40.484375 46.53125 36.375 47.5 
Q 32.28125 48.484375 27.875 48.484375 
Q 21.1875 48.484375 17.84375 46.4375 
Q 14.5 44.390625 14.5 40.28125 
Q 14.5 37.15625 16.890625 35.375 
Q 19.28125 33.59375 26.515625 31.984375 
L 29.59375 31.296875 
Q 39.15625 29.25 43.1875 25.515625 
Q 47.21875 21.78125 47.21875 15.09375 
Q 47.21875 7.46875 41.1875 3.015625 
Q 35.15625 -1.421875 24.609375 -1.421875 
Q 20.21875 -1.421875 15.453125 -0.5625 
Q 10.6875 0.296875 5.421875 2 
L 5.421875 11.28125 
Q 10.40625 8.6875 15.234375 7.390625 
Q 20.0625 6.109375 24.8125 6.109375 
Q 31.15625 6.109375 34.5625 8.28125 
Q 37.984375 10.453125 37.984375 14.40625 
Q 37.984375 18.0625 35.515625 20.015625 
Q 33.0625 21.96875 24.703125 23.78125 
L 21.578125 24.515625 
Q 13.234375 26.265625 9.515625 29.90625 
Q 5.8125 33.546875 5.8125 39.890625 
Q 5.8125 47.609375 11.28125 51.796875 
Q 16.75 56 26.8125 56 
Q 31.78125 56 36.171875 55.265625 
Q 40.578125 54.546875 44.28125 53.078125 
z
" id="DejaVuSans-115"/>
      <path d="M 8.5 21.578125 
L 8.5 54.6875 
L 17.484375 54.6875 
L 17.484375 21.921875 
Q 17.484375 14.15625 20.5 10.265625 
Q 23.53125 6.390625 29.59375 6.390625 
Q 36.859375 6.390625 41.078125 11.03125 
Q 45.3125 15.671875 45.3125 23.6875 
L 45.3125 54.6875 
L 54.296875 54.6875 
L 54.296875 0 
L 45.3125 0 
L 45.3125 8.40625 
Q 42.046875 3.421875 37.71875 1 
Q 33.40625 -1.421875 27.6875 -1.421875 
Q 18.265625 -1.421875 13.375 4.4375 
Q 8.5 10.296875 8.5 21.578125 
z
M 31.109375 56 
z
" id="DejaVuSans-117"/>
      <path d="M 41.109375 46.296875 
Q 39.59375 47.171875 37.8125 47.578125 
Q 36.03125 48 33.890625 48 
Q 26.265625 48 22.1875 43.046875 
Q 18.109375 38.09375 18.109375 28.8125 
L 18.109375 0 
L 9.078125 0 
L 9.078125 54.6875 
L 18.109375 54.6875 
L 18.109375 46.1875 
Q 20.953125 51.171875 25.484375 53.578125 
Q 30.03125 56 36.53125 56 
Q 37.453125 56 38.578125 55.875 
Q 39.703125 55.765625 41.0625 55.515625 
z
" id="DejaVuSans-114"/>
      <path d="M 52 44.1875 
Q 55.375 50.25 60.0625 53.125 
Q 64.75 56 71.09375 56 
Q 79.640625 56 84.28125 50.015625 
Q 88.921875 44.046875 88.921875 33.015625 
L 88.921875 0 
L 79.890625 0 
L 79.890625 32.71875 
Q 79.890625 40.578125 77.09375 44.375 
Q 74.3125 48.1875 68.609375 48.1875 
Q 61.625 48.1875 57.5625 43.546875 
Q 53.515625 38.921875 53.515625 30.90625 
L 53.515625 0 
L 44.484375 0 
L 44.484375 32.71875 
Q 44.484375 40.625 41.703125 44.40625 
Q 38.921875 48.1875 33.109375 48.1875 
Q 26.21875 48.1875 22.15625 43.53125 
Q 18.109375 38.875 18.109375 30.90625 
L 18.109375 0 
L 9.078125 0 
L 9.078125 54.6875 
L 18.109375 54.6875 
L 18.109375 46.1875 
Q 21.1875 51.21875 25.484375 53.609375 
Q 29.78125 56 35.6875 56 
Q 41.65625 56 45.828125 52.96875 
Q 50 49.953125 52 44.1875 
z
" id="DejaVuSans-109"/>
      <path d="M 54.890625 33.015625 
L 54.890625 0 
L 45.90625 0 
L 45.90625 32.71875 
Q 45.90625 40.484375 42.875 44.328125 
Q 39.84375 48.1875 33.796875 48.1875 
Q 26.515625 48.1875 22.3125 43.546875 
Q 18.109375 38.921875 18.109375 30.90625 
L 18.109375 0 
L 9.078125 0 
L 9.078125 54.6875 
L 18.109375 54.6875 
L 18.109375 46.1875 
Q 21.34375 51.125 25.703125 53.5625 
Q 30.078125 56 35.796875 56 
Q 45.21875 56 50.046875 50.171875 
Q 54.890625 44.34375 54.890625 33.015625 
z
" id="DejaVuSans-110"/>
      <path d="M 18.3125 70.21875 
L 18.3125 54.6875 
L 36.8125 54.6875 
L 36.8125 47.703125 
L 18.3125 47.703125 
L 18.3125 18.015625 
Q 18.3125 11.328125 20.140625 9.421875 
Q 21.96875 7.515625 27.59375 7.515625 
L 36.8125 7.515625 
L 36.8125 0 
L 27.59375 0 
Q 17.1875 0 13.234375 3.875 
Q 9.28125 7.765625 9.28125 18.015625 
L 9.28125 47.703125 
L 2.6875 47.703125 
L 2.6875 54.6875 
L 9.28125 54.6875 
L 9.28125 70.21875 
z
" id="DejaVuSans-116"/>
      <path id="DejaVuSans-32"/>
      <path d="M 9.8125 72.90625 
L 23.09375 72.90625 
L 55.421875 11.921875 
L 55.421875 72.90625 
L 64.984375 72.90625 
L 64.984375 0 
L 51.703125 0 
L 19.390625 60.984375 
L 19.390625 0 
L 9.8125 0 
z
" id="DejaVuSans-78"/>
      <path d="M 30.609375 48.390625 
Q 23.390625 48.390625 19.1875 42.75 
Q 14.984375 37.109375 14.984375 27.296875 
Q 14.984375 17.484375 19.15625 11.84375 
Q 23.34375 6.203125 30.609375 6.203125 
Q 37.796875 6.203125 41.984375 11.859375 
Q 46.1875 17.53125 46.1875 27.296875 
Q 46.1875 37.015625 41.984375 42.703125 
Q 37.796875 48.390625 30.609375 48.390625 
z
M 30.609375 56 
Q 42.328125 56 49.015625 48.375 
Q 55.71875 40.765625 55.71875 27.296875 
Q 55.71875 13.875 49.015625 6.21875 
Q 42.328125 -1.421875 30.609375 -1.421875 
Q 18.84375 -1.421875 12.171875 6.21875 
Q 5.515625 13.875 5.515625 27.296875 
Q 5.515625 40.765625 12.171875 48.375 
Q 18.84375 56 30.609375 56 
z
" id="DejaVuSans-111"/>
      <path d="M 9.421875 54.6875 
L 18.40625 54.6875 
L 18.40625 0 
L 9.421875 0 
z
M 9.421875 75.984375 
L 18.40625 75.984375 
L 18.40625 64.59375 
L 9.421875 64.59375 
z
" id="DejaVuSans-105"/>
     </defs>
     <g transform="translate(260.183438 376.598)scale(0.12 -0.12)">
      <use xlink:href="#DejaVuSans-77"/>
      <use x="86.279297" xlink:href="#DejaVuSans-101"/>
      <use x="147.802734" xlink:href="#DejaVuSans-97"/>
      <use x="209.082031" xlink:href="#DejaVuSans-115"/>
      <use x="261.181641" xlink:href="#DejaVuSans-117"/>
      <use x="324.560547" xlink:href="#DejaVuSans-114"/>
      <use x="365.642578" xlink:href="#DejaVuSans-101"/>
      <use x="427.166016" xlink:href="#DejaVuSans-109"/>
      <use x="524.578125" xlink:href="#DejaVuSans-101"/>
      <use x="586.101562" xlink:href="#DejaVuSans-110"/>
      <use x="649.480469" xlink:href="#DejaVuSans-116"/>
      <use x="688.689453" xlink:href="#DejaVuSans-32"/>
      <use x="720.476562" xlink:href="#DejaVuSans-78"/>
      <use x="795.28125" xlink:href="#DejaVuSans-111"/>
      <use x="856.462891" xlink:href="#DejaVuSans-105"/>
      <use x="884.246094" xlink:href="#DejaVuSans-115"/>
      <use x="936.345703" xlink:href="#DejaVuSans-101"/>
     </g>
    </g>
   </g>
   <g id="matplotlib.axis_2">
    <g id="ytick_1">
     <g id="line2d_15">
      <path clip-path="url(#p1b7a74a69a)" d="M 41.055938 307.657325 
L 599.055938 307.657325 
" style="fill:none;stroke:#b2b2b2;stroke-dasharray:1.85,0.8;stroke-dashoffset:0;stroke-width:0.5;"/>
     </g>
     <g id="line2d_16">
      <defs>
       <path d="M 0 0 
L 3.5 0 
" id="m576646f37b" style="stroke:#000000;stroke-width:0.8;"/>
      </defs>
      <g>
       <use style="stroke:#000000;stroke-width:0.8;" x="41.055938" xlink:href="#m576646f37b" y="307.657325"/>
      </g>
     </g>
     <g id="text_9">
      <!-- −2 -->
      <defs>
       <path d="M 10.59375 35.5 
L 73.1875 35.5 
L 73.1875 27.203125 
L 10.59375 27.203125 
z
" id="DejaVuSans-8722"/>
      </defs>
      <g transform="translate(22.81375 311.456544)scale(0.1 -0.1)">
       <use xlink:href="#DejaVuSans-8722"/>
       <use x="83.789062" xlink:href="#DejaVuSans-50"/>
      </g>
     </g>
    </g>
    <g id="ytick_2">
     <g id="line2d_17">
      <path clip-path="url(#p1b7a74a69a)" d="M 41.055938 238.433688 
L 599.055938 238.433688 
" style="fill:none;stroke:#b2b2b2;stroke-dasharray:1.85,0.8;stroke-dashoffset:0;stroke-width:0.5;"/>
     </g>
     <g id="line2d_18">
      <g>
       <use style="stroke:#000000;stroke-width:0.8;" x="41.055938" xlink:href="#m576646f37b" y="238.433688"/>
      </g>
     </g>
     <g id="text_10">
      <!-- −1 -->
      <g transform="translate(22.81375 242.232907)scale(0.1 -0.1)">
       <use xlink:href="#DejaVuSans-8722"/>
       <use x="83.789062" xlink:href="#DejaVuSans-49"/>
      </g>
     </g>
    </g>
    <g id="ytick_3">
     <g id="line2d_19">
      <path clip-path="url(#p1b7a74a69a)" d="M 41.055938 169.210051 
L 599.055938 169.210051 
" style="fill:none;stroke:#b2b2b2;stroke-dasharray:1.85,0.8;stroke-dashoffset:0;stroke-width:0.5;"/>
     </g>
     <g id="line2d_20">
      <g>
       <use style="stroke:#000000;stroke-width:0.8;" x="41.055938" xlink:href="#m576646f37b" y="169.210051"/>
      </g>
     </g>
     <g id="text_11">
      <!-- 0 -->
      <g transform="translate(31.193438 173.00927)scale(0.1 -0.1)">
       <use xlink:href="#DejaVuSans-48"/>
      </g>
     </g>
    </g>
    <g id="ytick_4">
     <g id="line2d_21">
      <path clip-path="url(#p1b7a74a69a)" d="M 41.055938 99.986414 
L 599.055938 99.986414 
" style="fill:none;stroke:#b2b2b2;stroke-dasharray:1.85,0.8;stroke-dashoffset:0;stroke-width:0.5;"/>
     </g>
     <g id="line2d_22">
      <g>
       <use style="stroke:#000000;stroke-width:0.8;" x="41.055938" xlink:href="#m576646f37b" y="99.986414"/>
      </g>
     </g>
     <g id="text_12">
      <!-- 1 -->
      <g transform="translate(31.193438 103.785632)scale(0.1 -0.1)">
       <use xlink:href="#DejaVuSans-49"/>
      </g>
     </g>
    </g>
    <g id="ytick_5">
     <g id="line2d_23">
      <path clip-path="url(#p1b7a74a69a)" d="M 41.055938 30.762776 
L 599.055938 30.762776 
" style="fill:none;stroke:#b2b2b2;stroke-dasharray:1.85,0.8;stroke-dashoffset:0;stroke-width:0.5;"/>
     </g>
     <g id="line2d_24">
      <g>
       <use style="stroke:#000000;stroke-width:0.8;" x="41.055938" xlink:href="#m576646f37b" y="30.762776"/>
      </g>
     </g>
     <g id="text_13">
      <!-- 2 -->
      <g transform="translate(31.193438 34.561995)scale(0.1 -0.1)">
       <use xlink:href="#DejaVuSans-50"/>
      </g>
     </g>
    </g>
    <g id="text_14">
     <!-- Residual -->
     <defs>
      <path d="M 44.390625 34.1875 
Q 47.5625 33.109375 50.5625 29.59375 
Q 53.5625 26.078125 56.59375 19.921875 
L 66.609375 0 
L 56 0 
L 46.6875 18.703125 
Q 43.0625 26.03125 39.671875 28.421875 
Q 36.28125 30.8125 30.421875 30.8125 
L 19.671875 30.8125 
L 19.671875 0 
L 9.8125 0 
L 9.8125 72.90625 
L 32.078125 72.90625 
Q 44.578125 72.90625 50.734375 67.671875 
Q 56.890625 62.453125 56.890625 51.90625 
Q 56.890625 45.015625 53.6875 40.46875 
Q 50.484375 35.9375 44.390625 34.1875 
z
M 19.671875 64.796875 
L 19.671875 38.921875 
L 32.078125 38.921875 
Q 39.203125 38.921875 42.84375 42.21875 
Q 46.484375 45.515625 46.484375 51.90625 
Q 46.484375 58.296875 42.84375 61.546875 
Q 39.203125 64.796875 32.078125 64.796875 
z
" id="DejaVuSans-82"/>
      <path d="M 45.40625 46.390625 
L 45.40625 75.984375 
L 54.390625 75.984375 
L 54.390625 0 
L 45.40625 0 
L 45.40625 8.203125 
Q 42.578125 3.328125 38.25 0.953125 
Q 33.9375 -1.421875 27.875 -1.421875 
Q 17.96875 -1.421875 11.734375 6.484375 
Q 5.515625 14.40625 5.515625 27.296875 
Q 5.515625 40.1875 11.734375 48.09375 
Q 17.96875 56 27.875 56 
Q 33.9375 56 38.25 53.625 
Q 42.578125 51.265625 45.40625 46.390625 
z
M 14.796875 27.296875 
Q 14.796875 17.390625 18.875 11.75 
Q 22.953125 6.109375 30.078125 6.109375 
Q 37.203125 6.109375 41.296875 11.75 
Q 45.40625 17.390625 45.40625 27.296875 
Q 45.40625 37.203125 41.296875 42.84375 
Q 37.203125 48.484375 30.078125 48.484375 
Q 22.953125 48.484375 18.875 42.84375 
Q 14.796875 37.203125 14.796875 27.296875 
z
" id="DejaVuSans-100"/>
      <path d="M 9.421875 75.984375 
L 18.40625 75.984375 
L 18.40625 0 
L 9.421875 0 
z
" id="DejaVuSans-108"/>
     </defs>
     <g transform="translate(16.318125 212.82675)rotate(-90)scale(0.12 -0.12)">
      <use xlink:href="#DejaVuSans-82"/>
      <use x="69.419922" xlink:href="#DejaVuSans-101"/>
      <use x="130.943359" xlink:href="#DejaVuSans-115"/>
      <use x="183.042969" xlink:href="#DejaVuSans-105"/>
      <use x="210.826172" xlink:href="#DejaVuSans-100"/>
      <use x="274.302734" xlink:href="#DejaVuSans-117"/>
      <use x="337.681641" xlink:href="#DejaVuSans-97"/>
      <use x="398.960938" xlink:href="#DejaVuSans-108"/>
     </g>
    </g>
   </g>
   <g id="line2d_25">
    <defs>
     <path d="M 0 3 
C 0.795609 3 1.55874 2.683901 2.12132 2.12132 
C 2.683901 1.55874 3 0.795609 3 0 
C 3 -0.795609 2.683901 -1.55874 2.12132 -2.12132 
C 1.55874 -2.683901 0.795609 -3 0 -3 
C -0.795609 -3 -1.55874 -2.683901 -2.12132 -2.12132 
C -2.683901 -1.55874 -3 -0.795609 -3 0 
C -3 0.795609 -2.683901 1.55874 -2.12132 2.12132 
C -1.55874 2.683901 -0.795609 3 0 3 
z
" id="m2cbd9f7f11" style="stroke:#348abd;"/>
    </defs>
    <g clip-path="url(#p1b7a74a69a)">
     <use style="fill:#348abd;stroke:#348abd;" x="189.870908" xlink:href="#m2cbd9f7f11" y="81.661749"/>
     <use style="fill:#348abd;stroke:#348abd;" x="472.686683" xlink:href="#m2cbd9f7f11" y="83.292125"/>
     <use style="fill:#348abd;stroke:#348abd;" x="178.648056" xlink:href="#m2cbd9f7f11" y="137.882686"/>
     <use style="fill:#348abd;stroke:#348abd;" x="286.3874" xlink:href="#m2cbd9f7f11" y="76.205188"/>
     <use style="fill:#348abd;stroke:#348abd;" x="66.419574" xlink:href="#m2cbd9f7f11" y="209.770103"/>
     <use style="fill:#348abd;stroke:#348abd;" x="223.539439" xlink:href="#m2cbd9f7f11" y="106.638131"/>
     <use style="fill:#348abd;stroke:#348abd;" x="185.381758" xlink:href="#m2cbd9f7f11" y="234.37965"/>
     <use style="fill:#348abd;stroke:#348abd;" x="324.545082" xlink:href="#m2cbd9f7f11" y="178.671003"/>
     <use style="fill:#348abd;stroke:#348abd;" x="436.773576" xlink:href="#m2cbd9f7f11" y="174.803228"/>
     <use style="fill:#348abd;stroke:#348abd;" x="84.376127" xlink:href="#m2cbd9f7f11" y="206.298201"/>
     <use style="fill:#348abd;stroke:#348abd;" x="142.734937" xlink:href="#m2cbd9f7f11" y="102.017128"/>
     <use style="fill:#348abd;stroke:#348abd;" x="297.610252" xlink:href="#m2cbd9f7f11" y="189.500982"/>
     <use style="fill:#348abd;stroke:#348abd;" x="248.229694" xlink:href="#m2cbd9f7f11" y="335.476295"/>
     <use style="fill:#348abd;stroke:#348abd;" x="113.555532" xlink:href="#m2cbd9f7f11" y="201.285085"/>
     <use style="fill:#348abd;stroke:#348abd;" x="153.957789" xlink:href="#m2cbd9f7f11" y="132.369951"/>
     <use style="fill:#348abd;stroke:#348abd;" x="216.805738" xlink:href="#m2cbd9f7f11" y="171.501205"/>
     <use style="fill:#348abd;stroke:#348abd;" x="257.207995" xlink:href="#m2cbd9f7f11" y="168.335547"/>
     <use style="fill:#348abd;stroke:#348abd;" x="180.892631" xlink:href="#m2cbd9f7f11" y="98.339888"/>
     <use style="fill:#348abd;stroke:#348abd;" x="212.3166" xlink:href="#m2cbd9f7f11" y="123.740498"/>
     <use style="fill:#348abd;stroke:#348abd;" x="344.74621" xlink:href="#m2cbd9f7f11" y="38.967205"/>
     <use style="fill:#348abd;stroke:#348abd;" x="167.425204" xlink:href="#m2cbd9f7f11" y="163.575129"/>
     <use style="fill:#348abd;stroke:#348abd;" x="129.267522" xlink:href="#m2cbd9f7f11" y="162.735455"/>
     <use style="fill:#348abd;stroke:#348abd;" x="131.512086" xlink:href="#m2cbd9f7f11" y="180.610546"/>
     <use style="fill:#348abd;stroke:#348abd;" x="147.224088" xlink:href="#m2cbd9f7f11" y="254.56973"/>
     <use style="fill:#348abd;stroke:#348abd;" x="239.251442" xlink:href="#m2cbd9f7f11" y="125.237256"/>
     <use style="fill:#348abd;stroke:#348abd;" x="162.936066" xlink:href="#m2cbd9f7f11" y="193.491007"/>
     <use style="fill:#348abd;stroke:#348abd;" x="396.371319" xlink:href="#m2cbd9f7f11" y="206.77396"/>
     <use style="fill:#348abd;stroke:#348abd;" x="223.539439" xlink:href="#m2cbd9f7f11" y="227.274595"/>
     <use style="fill:#348abd;stroke:#348abd;" x="373.925615" xlink:href="#m2cbd9f7f11" y="131.356886"/>
     <use style="fill:#348abd;stroke:#348abd;" x="115.800108" xlink:href="#m2cbd9f7f11" y="256.268565"/>
     <use style="fill:#348abd;stroke:#348abd;" x="261.697145" xlink:href="#m2cbd9f7f11" y="156.158695"/>
     <use style="fill:#348abd;stroke:#348abd;" x="82.131564" xlink:href="#m2cbd9f7f11" y="212.079528"/>
     <use style="fill:#348abd;stroke:#348abd;" x="120.289246" xlink:href="#m2cbd9f7f11" y="173.75038"/>
     <use style="fill:#348abd;stroke:#348abd;" x="335.767934" xlink:href="#m2cbd9f7f11" y="248.851214"/>
     <use style="fill:#348abd;stroke:#348abd;" x="113.555532" xlink:href="#m2cbd9f7f11" y="171.395914"/>
     <use style="fill:#348abd;stroke:#348abd;" x="239.251442" xlink:href="#m2cbd9f7f11" y="102.469566"/>
     <use style="fill:#348abd;stroke:#348abd;" x="192.115471" xlink:href="#m2cbd9f7f11" y="146.067695"/>
     <use style="fill:#348abd;stroke:#348abd;" x="109.0664" xlink:href="#m2cbd9f7f11" y="214.000444"/>
     <use style="fill:#348abd;stroke:#348abd;" x="414.327848" xlink:href="#m2cbd9f7f11" y="113.337454"/>
     <use style="fill:#348abd;stroke:#348abd;" x="169.669779" xlink:href="#m2cbd9f7f11" y="222.120082"/>
     <use style="fill:#348abd;stroke:#348abd;" x="573.692301" xlink:href="#m2cbd9f7f11" y="137.322201"/>
     <use style="fill:#348abd;stroke:#348abd;" x="180.892631" xlink:href="#m2cbd9f7f11" y="134.572684"/>
     <use style="fill:#348abd;stroke:#348abd;" x="91.109841" xlink:href="#m2cbd9f7f11" y="186.286567"/>
     <use style="fill:#348abd;stroke:#348abd;" x="221.294888" xlink:href="#m2cbd9f7f11" y="234.147378"/>
     <use style="fill:#348abd;stroke:#348abd;" x="432.284426" xlink:href="#m2cbd9f7f11" y="148.768073"/>
     <use style="fill:#348abd;stroke:#348abd;" x="129.267522" xlink:href="#m2cbd9f7f11" y="188.312572"/>
     <use style="fill:#348abd;stroke:#348abd;" x="158.446928" xlink:href="#m2cbd9f7f11" y="161.131189"/>
     <use style="fill:#348abd;stroke:#348abd;" x="313.32223" xlink:href="#m2cbd9f7f11" y="157.961598"/>
     <use style="fill:#348abd;stroke:#348abd;" x="140.490374" xlink:href="#m2cbd9f7f11" y="214.552963"/>
     <use style="fill:#348abd;stroke:#348abd;" x="439.018127" xlink:href="#m2cbd9f7f11" y="198.052882"/>
    </g>
   </g>
   <g id="line2d_26">
    <defs>
     <path d="M 0 3 
C 0.795609 3 1.55874 2.683901 2.12132 2.12132 
C 2.683901 1.55874 3 0.795609 3 0 
C 3 -0.795609 2.683901 -1.55874 2.12132 -2.12132 
C 1.55874 -2.683901 0.795609 -3 0 -3 
C -0.795609 -3 -1.55874 -2.683901 -2.12132 -2.12132 
C -2.683901 -1.55874 -3 -0.795609 -3 0 
C -3 0.795609 -2.683901 1.55874 -2.12132 2.12132 
C -1.55874 2.683901 -0.795609 3 0 3 
z
" id="m3c644a2e68" style="stroke:#a60628;"/>
    </defs>
    <g clip-path="url(#p1b7a74a69a)">
     <use style="fill:#a60628;stroke:#a60628;" x="189.870908" xlink:href="#m3c644a2e68" y="133.873768"/>
     <use style="fill:#a60628;stroke:#a60628;" x="472.686683" xlink:href="#m3c644a2e68" y="108.3458"/>
     <use style="fill:#a60628;stroke:#a60628;" x="178.648056" xlink:href="#m3c644a2e68" y="155.329934"/>
     <use style="fill:#a60628;stroke:#a60628;" x="286.3874" xlink:href="#m3c644a2e68" y="121.964312"/>
     <use style="fill:#a60628;stroke:#a60628;" x="66.419574" xlink:href="#m3c644a2e68" y="170.726291"/>
     <use style="fill:#a60628;stroke:#a60628;" x="223.539439" xlink:href="#m3c644a2e68" y="140.799129"/>
     <use style="fill:#a60628;stroke:#a60628;" x="185.381758" xlink:href="#m3c644a2e68" y="189.168489"/>
     <use style="fill:#a60628;stroke:#a60628;" x="324.545082" xlink:href="#m3c644a2e68" y="177.101405"/>
     <use style="fill:#a60628;stroke:#a60628;" x="436.773576" xlink:href="#m3c644a2e68" y="166.47194"/>
     <use style="fill:#a60628;stroke:#a60628;" x="84.376127" xlink:href="#m3c644a2e68" y="171.75176"/>
     <use style="fill:#a60628;stroke:#a60628;" x="142.734937" xlink:href="#m3c644a2e68" y="152.51244"/>
     <use style="fill:#a60628;stroke:#a60628;" x="297.610252" xlink:href="#m3c644a2e68" y="184.879259"/>
     <use style="fill:#a60628;stroke:#a60628;" x="248.229694" xlink:href="#m3c644a2e68" y="258.883607"/>
     <use style="fill:#a60628;stroke:#a60628;" x="113.555532" xlink:href="#m3c644a2e68" y="173.35568"/>
     <use style="fill:#a60628;stroke:#a60628;" x="153.957789" xlink:href="#m3c644a2e68" y="157.116943"/>
     <use style="fill:#a60628;stroke:#a60628;" x="216.805738" xlink:href="#m3c644a2e68" y="169.647432"/>
     <use style="fill:#a60628;stroke:#a60628;" x="257.207995" xlink:href="#m3c644a2e68" y="169.43861"/>
     <use style="fill:#a60628;stroke:#a60628;" x="180.892631" xlink:href="#m3c644a2e68" y="144.607859"/>
     <use style="fill:#a60628;stroke:#a60628;" x="212.3166" xlink:href="#m3c644a2e68" y="149.327995"/>
     <use style="fill:#a60628;stroke:#a60628;" x="344.74621" xlink:href="#m3c644a2e68" y="71.727186"/>
     <use style="fill:#a60628;stroke:#a60628;" x="167.425204" xlink:href="#m3c644a2e68" y="165.66035"/>
     <use style="fill:#a60628;stroke:#a60628;" x="129.267522" xlink:href="#m3c644a2e68" y="164.297014"/>
     <use style="fill:#a60628;stroke:#a60628;" x="131.512086" xlink:href="#m3c644a2e68" y="169.1263"/>
     <use style="fill:#a60628;stroke:#a60628;" x="147.224088" xlink:href="#m3c644a2e68" y="186.728068"/>
     <use style="fill:#a60628;stroke:#a60628;" x="239.251442" xlink:href="#m3c644a2e68" y="144.708454"/>
     <use style="fill:#a60628;stroke:#a60628;" x="162.936066" xlink:href="#m3c644a2e68" y="174.671061"/>
     <use style="fill:#a60628;stroke:#a60628;" x="396.371319" xlink:href="#m3c644a2e68" y="189.76279"/>
     <use style="fill:#a60628;stroke:#a60628;" x="223.539439" xlink:href="#m3c644a2e68" y="192.931477"/>
     <use style="fill:#a60628;stroke:#a60628;" x="373.925615" xlink:href="#m3c644a2e68" y="134.442936"/>
     <use style="fill:#a60628;stroke:#a60628;" x="115.800108" xlink:href="#m3c644a2e68" y="181.153177"/>
     <use style="fill:#a60628;stroke:#a60628;" x="261.697145" xlink:href="#m3c644a2e68" y="162.018263"/>
     <use style="fill:#a60628;stroke:#a60628;" x="82.131564" xlink:href="#m3c644a2e68" y="171.257578"/>
     <use style="fill:#a60628;stroke:#a60628;" x="120.289246" xlink:href="#m3c644a2e68" y="168.788895"/>
     <use style="fill:#a60628;stroke:#a60628;" x="335.767934" xlink:href="#m3c644a2e68" y="229.384067"/>
     <use style="fill:#a60628;stroke:#a60628;" x="113.555532" xlink:href="#m3c644a2e68" y="167.799565"/>
     <use style="fill:#a60628;stroke:#a60628;" x="239.251442" xlink:href="#m3c644a2e68" y="138.622181"/>
     <use style="fill:#a60628;stroke:#a60628;" x="192.115471" xlink:href="#m3c644a2e68" y="157.59529"/>
     <use style="fill:#a60628;stroke:#a60628;" x="109.0664" xlink:href="#m3c644a2e68" y="173.861142"/>
     <use style="fill:#a60628;stroke:#a60628;" x="414.327848" xlink:href="#m3c644a2e68" y="116.279704"/>
     <use style="fill:#a60628;stroke:#a60628;" x="169.669779" xlink:href="#m3c644a2e68" y="182.432079"/>
     <use style="fill:#a60628;stroke:#a60628;" x="573.692301" xlink:href="#m3c644a2e68" y="142.440874"/>
     <use style="fill:#a60628;stroke:#a60628;" x="180.892631" xlink:href="#m3c644a2e68" y="155.873564"/>
     <use style="fill:#a60628;stroke:#a60628;" x="91.109841" xlink:href="#m3c644a2e68" y="170.756143"/>
     <use style="fill:#a60628;stroke:#a60628;" x="221.294888" xlink:href="#m3c644a2e68" y="206.051723"/>
     <use style="fill:#a60628;stroke:#a60628;" x="432.284426" xlink:href="#m3c644a2e68" y="143.522336"/>
     <use style="fill:#a60628;stroke:#a60628;" x="129.267522" xlink:href="#m3c644a2e68" y="172.48435"/>
     <use style="fill:#a60628;stroke:#a60628;" x="158.446928" xlink:href="#m3c644a2e68" y="166.381149"/>
     <use style="fill:#a60628;stroke:#a60628;" x="313.32223" xlink:href="#m3c644a2e68" y="161.53811"/>
     <use style="fill:#a60628;stroke:#a60628;" x="140.490374" xlink:href="#m3c644a2e68" y="177.626444"/>
     <use style="fill:#a60628;stroke:#a60628;" x="439.018127" xlink:href="#m3c644a2e68" y="205.266404"/>
    </g>
   </g>
   <g id="line2d_27">
    <path clip-path="url(#p1b7a74a69a)" d="M 189.870908 81.661749 
L 189.870908 133.873768 
" style="fill:none;stroke:#808080;stroke-dasharray:7.4,3.2;stroke-dashoffset:0;stroke-width:2;"/>
   </g>
   <g id="line2d_28">
    <path clip-path="url(#p1b7a74a69a)" d="M 472.686683 83.292125 
L 472.686683 108.3458 
" style="fill:none;stroke:#808080;stroke-dasharray:7.4,3.2;stroke-dashoffset:0;stroke-width:2;"/>
   </g>
   <g id="line2d_29">
    <path clip-path="url(#p1b7a74a69a)" d="M 178.648056 137.882686 
L 178.648056 155.329934 
" style="fill:none;stroke:#808080;stroke-dasharray:7.4,3.2;stroke-dashoffset:0;stroke-width:2;"/>
   </g>
   <g id="line2d_30">
    <path clip-path="url(#p1b7a74a69a)" d="M 286.3874 76.205188 
L 286.3874 121.964312 
" style="fill:none;stroke:#808080;stroke-dasharray:7.4,3.2;stroke-dashoffset:0;stroke-width:2;"/>
   </g>
   <g id="line2d_31">
    <path clip-path="url(#p1b7a74a69a)" d="M 66.419574 209.770103 
L 66.419574 170.726291 
" style="fill:none;stroke:#808080;stroke-dasharray:7.4,3.2;stroke-dashoffset:0;stroke-width:2;"/>
   </g>
   <g id="line2d_32">
    <path clip-path="url(#p1b7a74a69a)" d="M 223.539439 106.638131 
L 223.539439 140.799129 
" style="fill:none;stroke:#808080;stroke-dasharray:7.4,3.2;stroke-dashoffset:0;stroke-width:2;"/>
   </g>
   <g id="line2d_33">
    <path clip-path="url(#p1b7a74a69a)" d="M 185.381758 234.37965 
L 185.381758 189.168489 
" style="fill:none;stroke:#808080;stroke-dasharray:7.4,3.2;stroke-dashoffset:0;stroke-width:2;"/>
   </g>
   <g id="line2d_34">
    <path clip-path="url(#p1b7a74a69a)" d="M 324.545082 178.671003 
L 324.545082 177.101405 
" style="fill:none;stroke:#808080;stroke-dasharray:7.4,3.2;stroke-dashoffset:0;stroke-width:2;"/>
   </g>
   <g id="line2d_35">
    <path clip-path="url(#p1b7a74a69a)" d="M 436.773576 174.803228 
L 436.773576 166.47194 
" style="fill:none;stroke:#808080;stroke-dasharray:7.4,3.2;stroke-dashoffset:0;stroke-width:2;"/>
   </g>
   <g id="line2d_36">
    <path clip-path="url(#p1b7a74a69a)" d="M 84.376127 206.298201 
L 84.376127 171.75176 
" style="fill:none;stroke:#808080;stroke-dasharray:7.4,3.2;stroke-dashoffset:0;stroke-width:2;"/>
   </g>
   <g id="line2d_37">
    <path clip-path="url(#p1b7a74a69a)" d="M 142.734937 102.017128 
L 142.734937 152.51244 
" style="fill:none;stroke:#808080;stroke-dasharray:7.4,3.2;stroke-dashoffset:0;stroke-width:2;"/>
   </g>
   <g id="line2d_38">
    <path clip-path="url(#p1b7a74a69a)" d="M 297.610252 189.500982 
L 297.610252 184.879259 
" style="fill:none;stroke:#808080;stroke-dasharray:7.4,3.2;stroke-dashoffset:0;stroke-width:2;"/>
   </g>
   <g id="line2d_39">
    <path clip-path="url(#p1b7a74a69a)" d="M 248.229694 335.476295 
L 248.229694 258.883607 
" style="fill:none;stroke:#808080;stroke-dasharray:7.4,3.2;stroke-dashoffset:0;stroke-width:2;"/>
   </g>
   <g id="line2d_40">
    <path clip-path="url(#p1b7a74a69a)" d="M 113.555532 201.285085 
L 113.555532 173.35568 
" style="fill:none;stroke:#808080;stroke-dasharray:7.4,3.2;stroke-dashoffset:0;stroke-width:2;"/>
   </g>
   <g id="line2d_41">
    <path clip-path="url(#p1b7a74a69a)" d="M 153.957789 132.369951 
L 153.957789 157.116943 
" style="fill:none;stroke:#808080;stroke-dasharray:7.4,3.2;stroke-dashoffset:0;stroke-width:2;"/>
   </g>
   <g id="line2d_42">
    <path clip-path="url(#p1b7a74a69a)" d="M 216.805738 171.501205 
L 216.805738 169.647432 
" style="fill:none;stroke:#808080;stroke-dasharray:7.4,3.2;stroke-dashoffset:0;stroke-width:2;"/>
   </g>
   <g id="line2d_43">
    <path clip-path="url(#p1b7a74a69a)" d="M 257.207995 168.335547 
L 257.207995 169.43861 
" style="fill:none;stroke:#808080;stroke-dasharray:7.4,3.2;stroke-dashoffset:0;stroke-width:2;"/>
   </g>
   <g id="line2d_44">
    <path clip-path="url(#p1b7a74a69a)" d="M 180.892631 98.339888 
L 180.892631 144.607859 
" style="fill:none;stroke:#808080;stroke-dasharray:7.4,3.2;stroke-dashoffset:0;stroke-width:2;"/>
   </g>
   <g id="line2d_45">
    <path clip-path="url(#p1b7a74a69a)" d="M 212.3166 123.740498 
L 212.3166 149.327995 
" style="fill:none;stroke:#808080;stroke-dasharray:7.4,3.2;stroke-dashoffset:0;stroke-width:2;"/>
   </g>
   <g id="line2d_46">
    <path clip-path="url(#p1b7a74a69a)" d="M 344.74621 38.967205 
L 344.74621 71.727186 
" style="fill:none;stroke:#808080;stroke-dasharray:7.4,3.2;stroke-dashoffset:0;stroke-width:2;"/>
   </g>
   <g id="line2d_47">
    <path clip-path="url(#p1b7a74a69a)" d="M 167.425204 163.575129 
L 167.425204 165.66035 
" style="fill:none;stroke:#808080;stroke-dasharray:7.4,3.2;stroke-dashoffset:0;stroke-width:2;"/>
   </g>
   <g id="line2d_48">
    <path clip-path="url(#p1b7a74a69a)" d="M 129.267522 162.735455 
L 129.267522 164.297014 
" style="fill:none;stroke:#808080;stroke-dasharray:7.4,3.2;stroke-dashoffset:0;stroke-width:2;"/>
   </g>
   <g id="line2d_49">
    <path clip-path="url(#p1b7a74a69a)" d="M 131.512086 180.610546 
L 131.512086 169.1263 
" style="fill:none;stroke:#808080;stroke-dasharray:7.4,3.2;stroke-dashoffset:0;stroke-width:2;"/>
   </g>
   <g id="line2d_50">
    <path clip-path="url(#p1b7a74a69a)" d="M 147.224088 254.56973 
L 147.224088 186.728068 
" style="fill:none;stroke:#808080;stroke-dasharray:7.4,3.2;stroke-dashoffset:0;stroke-width:2;"/>
   </g>
   <g id="line2d_51">
    <path clip-path="url(#p1b7a74a69a)" d="M 239.251442 125.237256 
L 239.251442 144.708454 
" style="fill:none;stroke:#808080;stroke-dasharray:7.4,3.2;stroke-dashoffset:0;stroke-width:2;"/>
   </g>
   <g id="line2d_52">
    <path clip-path="url(#p1b7a74a69a)" d="M 162.936066 193.491007 
L 162.936066 174.671061 
" style="fill:none;stroke:#808080;stroke-dasharray:7.4,3.2;stroke-dashoffset:0;stroke-width:2;"/>
   </g>
   <g id="line2d_53">
    <path clip-path="url(#p1b7a74a69a)" d="M 396.371319 206.77396 
L 396.371319 189.76279 
" style="fill:none;stroke:#808080;stroke-dasharray:7.4,3.2;stroke-dashoffset:0;stroke-width:2;"/>
   </g>
   <g id="line2d_54">
    <path clip-path="url(#p1b7a74a69a)" d="M 223.539439 227.274595 
L 223.539439 192.931477 
" style="fill:none;stroke:#808080;stroke-dasharray:7.4,3.2;stroke-dashoffset:0;stroke-width:2;"/>
   </g>
   <g id="line2d_55">
    <path clip-path="url(#p1b7a74a69a)" d="M 373.925615 131.356886 
L 373.925615 134.442936 
" style="fill:none;stroke:#808080;stroke-dasharray:7.4,3.2;stroke-dashoffset:0;stroke-width:2;"/>
   </g>
   <g id="line2d_56">
    <path clip-path="url(#p1b7a74a69a)" d="M 115.800108 256.268565 
L 115.800108 181.153177 
" style="fill:none;stroke:#808080;stroke-dasharray:7.4,3.2;stroke-dashoffset:0;stroke-width:2;"/>
   </g>
   <g id="line2d_57">
    <path clip-path="url(#p1b7a74a69a)" d="M 261.697145 156.158695 
L 261.697145 162.018263 
" style="fill:none;stroke:#808080;stroke-dasharray:7.4,3.2;stroke-dashoffset:0;stroke-width:2;"/>
   </g>
   <g id="line2d_58">
    <path clip-path="url(#p1b7a74a69a)" d="M 82.131564 212.079528 
L 82.131564 171.257578 
" style="fill:none;stroke:#808080;stroke-dasharray:7.4,3.2;stroke-dashoffset:0;stroke-width:2;"/>
   </g>
   <g id="line2d_59">
    <path clip-path="url(#p1b7a74a69a)" d="M 120.289246 173.75038 
L 120.289246 168.788895 
" style="fill:none;stroke:#808080;stroke-dasharray:7.4,3.2;stroke-dashoffset:0;stroke-width:2;"/>
   </g>
   <g id="line2d_60">
    <path clip-path="url(#p1b7a74a69a)" d="M 335.767934 248.851214 
L 335.767934 229.384067 
" style="fill:none;stroke:#808080;stroke-dasharray:7.4,3.2;stroke-dashoffset:0;stroke-width:2;"/>
   </g>
   <g id="line2d_61">
    <path clip-path="url(#p1b7a74a69a)" d="M 113.555532 171.395914 
L 113.555532 167.799565 
" style="fill:none;stroke:#808080;stroke-dasharray:7.4,3.2;stroke-dashoffset:0;stroke-width:2;"/>
   </g>
   <g id="line2d_62">
    <path clip-path="url(#p1b7a74a69a)" d="M 239.251442 102.469566 
L 239.251442 138.622181 
" style="fill:none;stroke:#808080;stroke-dasharray:7.4,3.2;stroke-dashoffset:0;stroke-width:2;"/>
   </g>
   <g id="line2d_63">
    <path clip-path="url(#p1b7a74a69a)" d="M 192.115471 146.067695 
L 192.115471 157.59529 
" style="fill:none;stroke:#808080;stroke-dasharray:7.4,3.2;stroke-dashoffset:0;stroke-width:2;"/>
   </g>
   <g id="line2d_64">
    <path clip-path="url(#p1b7a74a69a)" d="M 109.0664 214.000444 
L 109.0664 173.861142 
" style="fill:none;stroke:#808080;stroke-dasharray:7.4,3.2;stroke-dashoffset:0;stroke-width:2;"/>
   </g>
   <g id="line2d_65">
    <path clip-path="url(#p1b7a74a69a)" d="M 414.327848 113.337454 
L 414.327848 116.279704 
" style="fill:none;stroke:#808080;stroke-dasharray:7.4,3.2;stroke-dashoffset:0;stroke-width:2;"/>
   </g>
   <g id="line2d_66">
    <path clip-path="url(#p1b7a74a69a)" d="M 169.669779 222.120082 
L 169.669779 182.432079 
" style="fill:none;stroke:#808080;stroke-dasharray:7.4,3.2;stroke-dashoffset:0;stroke-width:2;"/>
   </g>
   <g id="line2d_67">
    <path clip-path="url(#p1b7a74a69a)" d="M 573.692301 137.322201 
L 573.692301 142.440874 
" style="fill:none;stroke:#808080;stroke-dasharray:7.4,3.2;stroke-dashoffset:0;stroke-width:2;"/>
   </g>
   <g id="line2d_68">
    <path clip-path="url(#p1b7a74a69a)" d="M 180.892631 134.572684 
L 180.892631 155.873564 
" style="fill:none;stroke:#808080;stroke-dasharray:7.4,3.2;stroke-dashoffset:0;stroke-width:2;"/>
   </g>
   <g id="line2d_69">
    <path clip-path="url(#p1b7a74a69a)" d="M 91.109841 186.286567 
L 91.109841 170.756143 
" style="fill:none;stroke:#808080;stroke-dasharray:7.4,3.2;stroke-dashoffset:0;stroke-width:2;"/>
   </g>
   <g id="line2d_70">
    <path clip-path="url(#p1b7a74a69a)" d="M 221.294888 234.147378 
L 221.294888 206.051723 
" style="fill:none;stroke:#808080;stroke-dasharray:7.4,3.2;stroke-dashoffset:0;stroke-width:2;"/>
   </g>
   <g id="line2d_71">
    <path clip-path="url(#p1b7a74a69a)" d="M 432.284426 148.768073 
L 432.284426 143.522336 
" style="fill:none;stroke:#808080;stroke-dasharray:7.4,3.2;stroke-dashoffset:0;stroke-width:2;"/>
   </g>
   <g id="line2d_72">
    <path clip-path="url(#p1b7a74a69a)" d="M 129.267522 188.312572 
L 129.267522 172.48435 
" style="fill:none;stroke:#808080;stroke-dasharray:7.4,3.2;stroke-dashoffset:0;stroke-width:2;"/>
   </g>
   <g id="line2d_73">
    <path clip-path="url(#p1b7a74a69a)" d="M 158.446928 161.131189 
L 158.446928 166.381149 
" style="fill:none;stroke:#808080;stroke-dasharray:7.4,3.2;stroke-dashoffset:0;stroke-width:2;"/>
   </g>
   <g id="line2d_74">
    <path clip-path="url(#p1b7a74a69a)" d="M 313.32223 157.961598 
L 313.32223 161.53811 
" style="fill:none;stroke:#808080;stroke-dasharray:7.4,3.2;stroke-dashoffset:0;stroke-width:2;"/>
   </g>
   <g id="line2d_75">
    <path clip-path="url(#p1b7a74a69a)" d="M 140.490374 214.552963 
L 140.490374 177.626444 
" style="fill:none;stroke:#808080;stroke-dasharray:7.4,3.2;stroke-dashoffset:0;stroke-width:2;"/>
   </g>
   <g id="line2d_76">
    <path clip-path="url(#p1b7a74a69a)" d="M 439.018127 198.052882 
L 439.018127 205.266404 
" style="fill:none;stroke:#808080;stroke-dasharray:7.4,3.2;stroke-dashoffset:0;stroke-width:2;"/>
   </g>
   <g id="patch_3">
    <path d="M 41.055938 350.30175 
L 41.055938 24.14175 
" style="fill:none;stroke:#bcbcbc;stroke-linecap:square;stroke-linejoin:miter;stroke-width:0.8;"/>
   </g>
   <g id="patch_4">
    <path d="M 599.055938 350.30175 
L 599.055938 24.14175 
" style="fill:none;stroke:#bcbcbc;stroke-linecap:square;stroke-linejoin:miter;stroke-width:0.8;"/>
   </g>
   <g id="patch_5">
    <path d="M 41.055938 350.30175 
L 599.055938 350.30175 
" style="fill:none;stroke:#bcbcbc;stroke-linecap:square;stroke-linejoin:miter;stroke-width:0.8;"/>
   </g>
   <g id="patch_6">
    <path d="M 41.055938 24.14175 
L 599.055938 24.14175 
" style="fill:none;stroke:#bcbcbc;stroke-linecap:square;stroke-linejoin:miter;stroke-width:0.8;"/>
   </g>
   <g id="text_15">
    <!-- Mean residuals (Model 4: red, Model 3: blue) -->
    <defs>
     <path d="M 31 75.875 
Q 24.46875 64.65625 21.28125 53.65625 
Q 18.109375 42.671875 18.109375 31.390625 
Q 18.109375 20.125 21.3125 9.0625 
Q 24.515625 -2 31 -13.1875 
L 23.1875 -13.1875 
Q 15.875 -1.703125 12.234375 9.375 
Q 8.59375 20.453125 8.59375 31.390625 
Q 8.59375 42.28125 12.203125 53.3125 
Q 15.828125 64.359375 23.1875 75.875 
z
" id="DejaVuSans-40"/>
     <path d="M 11.71875 12.40625 
L 22.015625 12.40625 
L 22.015625 0 
L 11.71875 0 
z
M 11.71875 51.703125 
L 22.015625 51.703125 
L 22.015625 39.3125 
L 11.71875 39.3125 
z
" id="DejaVuSans-58"/>
     <path d="M 11.71875 12.40625 
L 22.015625 12.40625 
L 22.015625 4 
L 14.015625 -11.625 
L 7.71875 -11.625 
L 11.71875 4 
z
" id="DejaVuSans-44"/>
     <path d="M 40.578125 39.3125 
Q 47.65625 37.796875 51.625 33 
Q 55.609375 28.21875 55.609375 21.1875 
Q 55.609375 10.40625 48.1875 4.484375 
Q 40.765625 -1.421875 27.09375 -1.421875 
Q 22.515625 -1.421875 17.65625 -0.515625 
Q 12.796875 0.390625 7.625 2.203125 
L 7.625 11.71875 
Q 11.71875 9.328125 16.59375 8.109375 
Q 21.484375 6.890625 26.8125 6.890625 
Q 36.078125 6.890625 40.9375 10.546875 
Q 45.796875 14.203125 45.796875 21.1875 
Q 45.796875 27.640625 41.28125 31.265625 
Q 36.765625 34.90625 28.71875 34.90625 
L 20.21875 34.90625 
L 20.21875 43.015625 
L 29.109375 43.015625 
Q 36.375 43.015625 40.234375 45.921875 
Q 44.09375 48.828125 44.09375 54.296875 
Q 44.09375 59.90625 40.109375 62.90625 
Q 36.140625 65.921875 28.71875 65.921875 
Q 24.65625 65.921875 20.015625 65.03125 
Q 15.375 64.15625 9.8125 62.3125 
L 9.8125 71.09375 
Q 15.4375 72.65625 20.34375 73.4375 
Q 25.25 74.21875 29.59375 74.21875 
Q 40.828125 74.21875 47.359375 69.109375 
Q 53.90625 64.015625 53.90625 55.328125 
Q 53.90625 49.265625 50.4375 45.09375 
Q 46.96875 40.921875 40.578125 39.3125 
z
" id="DejaVuSans-51"/>
     <path d="M 48.6875 27.296875 
Q 48.6875 37.203125 44.609375 42.84375 
Q 40.53125 48.484375 33.40625 48.484375 
Q 26.265625 48.484375 22.1875 42.84375 
Q 18.109375 37.203125 18.109375 27.296875 
Q 18.109375 17.390625 22.1875 11.75 
Q 26.265625 6.109375 33.40625 6.109375 
Q 40.53125 6.109375 44.609375 11.75 
Q 48.6875 17.390625 48.6875 27.296875 
z
M 18.109375 46.390625 
Q 20.953125 51.265625 25.265625 53.625 
Q 29.59375 56 35.59375 56 
Q 45.5625 56 51.78125 48.09375 
Q 58.015625 40.1875 58.015625 27.296875 
Q 58.015625 14.40625 51.78125 6.484375 
Q 45.5625 -1.421875 35.59375 -1.421875 
Q 29.59375 -1.421875 25.265625 0.953125 
Q 20.953125 3.328125 18.109375 8.203125 
L 18.109375 0 
L 9.078125 0 
L 9.078125 75.984375 
L 18.109375 75.984375 
z
" id="DejaVuSans-98"/>
     <path d="M 8.015625 75.875 
L 15.828125 75.875 
Q 23.140625 64.359375 26.78125 53.3125 
Q 30.421875 42.28125 30.421875 31.390625 
Q 30.421875 20.453125 26.78125 9.375 
Q 23.140625 -1.703125 15.828125 -13.1875 
L 8.015625 -13.1875 
Q 14.5 -2 17.703125 9.0625 
Q 20.90625 20.125 20.90625 31.390625 
Q 20.90625 42.671875 17.703125 53.65625 
Q 14.5 64.65625 8.015625 75.875 
z
" id="DejaVuSans-41"/>
    </defs>
    <g transform="translate(159.303563 18.14175)scale(0.144 -0.144)">
     <use xlink:href="#DejaVuSans-77"/>
     <use x="86.279297" xlink:href="#DejaVuSans-101"/>
     <use x="147.802734" xlink:href="#DejaVuSans-97"/>
     <use x="209.082031" xlink:href="#DejaVuSans-110"/>
     <use x="272.460938" xlink:href="#DejaVuSans-32"/>
     <use x="304.248047" xlink:href="#DejaVuSans-114"/>
     <use x="345.330078" xlink:href="#DejaVuSans-101"/>
     <use x="406.853516" xlink:href="#DejaVuSans-115"/>
     <use x="458.953125" xlink:href="#DejaVuSans-105"/>
     <use x="486.736328" xlink:href="#DejaVuSans-100"/>
     <use x="550.212891" xlink:href="#DejaVuSans-117"/>
     <use x="613.591797" xlink:href="#DejaVuSans-97"/>
     <use x="674.871094" xlink:href="#DejaVuSans-108"/>
     <use x="702.654297" xlink:href="#DejaVuSans-115"/>
     <use x="754.753906" xlink:href="#DejaVuSans-32"/>
     <use x="786.541016" xlink:href="#DejaVuSans-40"/>
     <use x="825.554688" xlink:href="#DejaVuSans-77"/>
     <use x="911.833984" xlink:href="#DejaVuSans-111"/>
     <use x="973.015625" xlink:href="#DejaVuSans-100"/>
     <use x="1036.492188" xlink:href="#DejaVuSans-101"/>
     <use x="1098.015625" xlink:href="#DejaVuSans-108"/>
     <use x="1125.798828" xlink:href="#DejaVuSans-32"/>
     <use x="1157.585938" xlink:href="#DejaVuSans-52"/>
     <use x="1221.208984" xlink:href="#DejaVuSans-58"/>
     <use x="1254.900391" xlink:href="#DejaVuSans-32"/>
     <use x="1286.6875" xlink:href="#DejaVuSans-114"/>
     <use x="1327.769531" xlink:href="#DejaVuSans-101"/>
     <use x="1389.292969" xlink:href="#DejaVuSans-100"/>
     <use x="1452.769531" xlink:href="#DejaVuSans-44"/>
     <use x="1484.556641" xlink:href="#DejaVuSans-32"/>
     <use x="1516.34375" xlink:href="#DejaVuSans-77"/>
     <use x="1602.623047" xlink:href="#DejaVuSans-111"/>
     <use x="1663.804688" xlink:href="#DejaVuSans-100"/>
     <use x="1727.28125" xlink:href="#DejaVuSans-101"/>
     <use x="1788.804688" xlink:href="#DejaVuSans-108"/>
     <use x="1816.587891" xlink:href="#DejaVuSans-32"/>
     <use x="1848.375" xlink:href="#DejaVuSans-51"/>
     <use x="1911.998047" xlink:href="#DejaVuSans-58"/>
     <use x="1945.689453" xlink:href="#DejaVuSans-32"/>
     <use x="1977.476562" xlink:href="#DejaVuSans-98"/>
     <use x="2040.953125" xlink:href="#DejaVuSans-108"/>
     <use x="2068.736328" xlink:href="#DejaVuSans-117"/>
     <use x="2132.115234" xlink:href="#DejaVuSans-101"/>
     <use x="2193.638672" xlink:href="#DejaVuSans-41"/>
    </g>
   </g>
  </g>
 </g>
 <defs>
  <clipPath id="p1b7a74a69a">
   <rect height="326.16" width="558" x="41.055938" y="24.14175"/>
  </clipPath>
 </defs>
</svg>
