<?xml version="1.0" encoding="utf-8" standalone="no"?>
<!DOCTYPE svg PUBLIC "-//W3C//DTD SVG 1.1//EN"
  "http://www.w3.org/Graphics/SVG/1.1/DTD/svg11.dtd">
<!-- Created with matplotlib (https://matplotlib.org/) -->
<svg height="386.293625pt" version="1.1" viewBox="0 0 385.311998 386.293625" width="385.311998pt" xmlns="http://www.w3.org/2000/svg" xmlns:xlink="http://www.w3.org/1999/xlink">
 <defs>
  <style type="text/css">
*{stroke-linecap:butt;stroke-linejoin:round;}
  </style>
 </defs>
 <g id="figure_1">
  <g id="patch_1">
   <path d="M 0 386.293625 
L 385.311998 386.293625 
L 385.311998 0 
L 0 0 
z
" style="fill:none;"/>
  </g>
  <g id="axes_1">
   <g id="patch_2">
    <path d="M 41.055938 350.30175 
L 375.855938 350.30175 
L 375.855938 24.14175 
L 41.055938 24.14175 
z
" style="fill:#eeeeee;"/>
   </g>
   <g id="PolyCollection_1">
    <path clip-path="url(#pa13c1c9755)" d="M 56.274119 335.476295 
L 56.274119 335.476295 
L 79.278348 328.512669 
L 82.81746 331.948314 
L 88.126128 320.849818 
L 91.66524 321.15482 
L 96.973908 322.16535 
L 107.591244 325.002558 
L 109.3608 306.821168 
L 112.899912 320.910586 
L 114.669468 323.686393 
L 116.439024 319.574449 
L 118.20858 316.348714 
L 119.978136 305.173739 
L 121.747692 310.45571 
L 130.595472 307.646595 
L 134.134584 305.966533 
L 137.673696 314.866205 
L 141.212809 305.689689 
L 144.751921 315.048642 
L 146.521477 310.085135 
L 151.830145 306.537483 
L 155.369257 303.024749 
L 158.908369 299.045356 
L 160.677925 305.018512 
L 164.217037 293.886266 
L 167.756149 291.301405 
L 173.064817 296.158682 
L 174.834373 303.590128 
L 176.603929 287.687187 
L 178.373485 287.956132 
L 178.373485 292.983016 
L 180.143041 294.147466 
L 181.912597 293.249258 
L 196.069045 297.386618 
L 197.838601 284.522632 
L 197.838601 290.083241 
L 208.455938 288.631549 
L 208.455938 286.464203 
L 210.225494 289.866349 
L 210.225494 289.088295 
L 226.151498 281.009766 
L 233.229722 275.613041 
L 238.53839 268.378764 
L 258.003506 270.504814 
L 273.92951 267.873307 
L 277.468622 262.975616 
L 284.546847 265.053566 
L 289.855515 272.055763 
L 341.172639 252.43661 
L 360.637756 251.215392 
L 360.637756 251.215392 
L 360.637756 38.967205 
L 341.172639 42.33178 
L 289.855515 74.009498 
L 284.546847 70.754658 
L 277.468622 56.154163 
L 273.92951 68.456929 
L 258.003506 76.191702 
L 238.53839 69.756531 
L 233.229722 81.050324 
L 226.151498 85.311359 
L 210.225494 93.014499 
L 210.225494 93.635144 
L 208.455938 96.02867 
L 208.455938 94.544668 
L 197.838601 95.236133 
L 197.838601 95.352753 
L 196.069045 103.456979 
L 181.912597 106.773079 
L 180.143041 106.877003 
L 178.373485 101.183512 
L 178.373485 102.718421 
L 176.603929 91.818894 
L 174.834373 105.235232 
L 173.064817 106.939336 
L 167.756149 103.860173 
L 164.217037 102.8842 
L 160.677925 109.207181 
L 158.908369 106.410035 
L 155.369257 113.496249 
L 151.830145 109.212729 
L 146.521477 117.174101 
L 144.751921 113.094657 
L 141.212809 111.36172 
L 137.673696 118.925063 
L 134.134584 110.87625 
L 130.595472 109.442494 
L 121.747692 115.435138 
L 119.978136 116.944409 
L 118.20858 125.923674 
L 116.439024 122.430104 
L 114.669468 131.624432 
L 112.899912 126.511421 
L 109.3608 118.420107 
L 107.591244 126.325266 
L 96.973908 131.373379 
L 91.66524 125.784363 
L 88.126128 124.740347 
L 82.81746 133.373763 
L 79.278348 133.855074 
L 56.274119 144.109958 
z
" style="fill:#348abd;fill-opacity:0.3;"/>
   </g>
   <g id="matplotlib.axis_1">
    <g id="xtick_1">
     <g id="line2d_1">
      <path clip-path="url(#pa13c1c9755)" d="M 106.10649 350.30175 
L 106.10649 24.14175 
" style="fill:none;stroke:#b2b2b2;stroke-dasharray:1.85,0.8;stroke-dashoffset:0;stroke-width:0.5;"/>
     </g>
     <g id="line2d_2">
      <defs>
       <path d="M 0 0 
L 0 -3.5 
" id="mfa532330d9" style="stroke:#000000;stroke-width:0.8;"/>
      </defs>
      <g>
       <use style="stroke:#000000;stroke-width:0.8;" x="106.10649" xlink:href="#mfa532330d9" y="350.30175"/>
      </g>
     </g>
     <g id="text_1">
      <!-- −1 -->
      <defs>
       <path d="M 10.59375 35.5 
L 73.1875 35.5 
L 73.1875 27.203125 
L 10.59375 27.203125 
z
" id="DejaVuSans-8722"/>
       <path d="M 12.40625 8.296875 
L 28.515625 8.296875 
L 28.515625 63.921875 
L 10.984375 60.40625 
L 10.984375 69.390625 
L 28.421875 72.90625 
L 38.28125 72.90625 
L 38.28125 8.296875 
L 54.390625 8.296875 
L 54.390625 0 
L 12.40625 0 
z
" id="DejaVuSans-49"/>
      </defs>
      <g transform="translate(98.735397 361.400188)scale(0.1 -0.1)">
       <use xlink:href="#DejaVuSans-8722"/>
       <use x="83.789062" xlink:href="#DejaVuSans-49"/>
      </g>
     </g>
    </g>
    <g id="xtick_2">
     <g id="line2d_3">
      <path clip-path="url(#pa13c1c9755)" d="M 173.312555 350.30175 
L 173.312555 24.14175 
" style="fill:none;stroke:#b2b2b2;stroke-dasharray:1.85,0.8;stroke-dashoffset:0;stroke-width:0.5;"/>
     </g>
     <g id="line2d_4">
      <g>
       <use style="stroke:#000000;stroke-width:0.8;" x="173.312555" xlink:href="#mfa532330d9" y="350.30175"/>
      </g>
     </g>
     <g id="text_2">
      <!-- 0 -->
      <defs>
       <path d="M 31.78125 66.40625 
Q 24.171875 66.40625 20.328125 58.90625 
Q 16.5 51.421875 16.5 36.375 
Q 16.5 21.390625 20.328125 13.890625 
Q 24.171875 6.390625 31.78125 6.390625 
Q 39.453125 6.390625 43.28125 13.890625 
Q 47.125 21.390625 47.125 36.375 
Q 47.125 51.421875 43.28125 58.90625 
Q 39.453125 66.40625 31.78125 66.40625 
z
M 31.78125 74.21875 
Q 44.046875 74.21875 50.515625 64.515625 
Q 56.984375 54.828125 56.984375 36.375 
Q 56.984375 17.96875 50.515625 8.265625 
Q 44.046875 -1.421875 31.78125 -1.421875 
Q 19.53125 -1.421875 13.0625 8.265625 
Q 6.59375 17.96875 6.59375 36.375 
Q 6.59375 54.828125 13.0625 64.515625 
Q 19.53125 74.21875 31.78125 74.21875 
z
" id="DejaVuSans-48"/>
      </defs>
      <g transform="translate(170.131305 361.400188)scale(0.1 -0.1)">
       <use xlink:href="#DejaVuSans-48"/>
      </g>
     </g>
    </g>
    <g id="xtick_3">
     <g id="line2d_5">
      <path clip-path="url(#pa13c1c9755)" d="M 240.518619 350.30175 
L 240.518619 24.14175 
" style="fill:none;stroke:#b2b2b2;stroke-dasharray:1.85,0.8;stroke-dashoffset:0;stroke-width:0.5;"/>
     </g>
     <g id="line2d_6">
      <g>
       <use style="stroke:#000000;stroke-width:0.8;" x="240.518619" xlink:href="#mfa532330d9" y="350.30175"/>
      </g>
     </g>
     <g id="text_3">
      <!-- 1 -->
      <g transform="translate(237.337369 361.400188)scale(0.1 -0.1)">
       <use xlink:href="#DejaVuSans-49"/>
      </g>
     </g>
    </g>
    <g id="xtick_4">
     <g id="line2d_7">
      <path clip-path="url(#pa13c1c9755)" d="M 307.724684 350.30175 
L 307.724684 24.14175 
" style="fill:none;stroke:#b2b2b2;stroke-dasharray:1.85,0.8;stroke-dashoffset:0;stroke-width:0.5;"/>
     </g>
     <g id="line2d_8">
      <g>
       <use style="stroke:#000000;stroke-width:0.8;" x="307.724684" xlink:href="#mfa532330d9" y="350.30175"/>
      </g>
     </g>
     <g id="text_4">
      <!-- 2 -->
      <defs>
       <path d="M 19.1875 8.296875 
L 53.609375 8.296875 
L 53.609375 0 
L 7.328125 0 
L 7.328125 8.296875 
Q 12.9375 14.109375 22.625 23.890625 
Q 32.328125 33.6875 34.8125 36.53125 
Q 39.546875 41.84375 41.421875 45.53125 
Q 43.3125 49.21875 43.3125 52.78125 
Q 43.3125 58.59375 39.234375 62.25 
Q 35.15625 65.921875 28.609375 65.921875 
Q 23.96875 65.921875 18.8125 64.3125 
Q 13.671875 62.703125 7.8125 59.421875 
L 7.8125 69.390625 
Q 13.765625 71.78125 18.9375 73 
Q 24.125 74.21875 28.421875 74.21875 
Q 39.75 74.21875 46.484375 68.546875 
Q 53.21875 62.890625 53.21875 53.421875 
Q 53.21875 48.921875 51.53125 44.890625 
Q 49.859375 40.875 45.40625 35.40625 
Q 44.1875 33.984375 37.640625 27.21875 
Q 31.109375 20.453125 19.1875 8.296875 
z
" id="DejaVuSans-50"/>
      </defs>
      <g transform="translate(304.543434 361.400188)scale(0.1 -0.1)">
       <use xlink:href="#DejaVuSans-50"/>
      </g>
     </g>
    </g>
    <g id="xtick_5">
     <g id="line2d_9">
      <path clip-path="url(#pa13c1c9755)" d="M 374.930748 350.30175 
L 374.930748 24.14175 
" style="fill:none;stroke:#b2b2b2;stroke-dasharray:1.85,0.8;stroke-dashoffset:0;stroke-width:0.5;"/>
     </g>
     <g id="line2d_10">
      <g>
       <use style="stroke:#000000;stroke-width:0.8;" x="374.930748" xlink:href="#mfa532330d9" y="350.30175"/>
      </g>
     </g>
     <g id="text_5">
      <!-- 3 -->
      <defs>
       <path d="M 40.578125 39.3125 
Q 47.65625 37.796875 51.625 33 
Q 55.609375 28.21875 55.609375 21.1875 
Q 55.609375 10.40625 48.1875 4.484375 
Q 40.765625 -1.421875 27.09375 -1.421875 
Q 22.515625 -1.421875 17.65625 -0.515625 
Q 12.796875 0.390625 7.625 2.203125 
L 7.625 11.71875 
Q 11.71875 9.328125 16.59375 8.109375 
Q 21.484375 6.890625 26.8125 6.890625 
Q 36.078125 6.890625 40.9375 10.546875 
Q 45.796875 14.203125 45.796875 21.1875 
Q 45.796875 27.640625 41.28125 31.265625 
Q 36.765625 34.90625 28.71875 34.90625 
L 20.21875 34.90625 
L 20.21875 43.015625 
L 29.109375 43.015625 
Q 36.375 43.015625 40.234375 45.921875 
Q 44.09375 48.828125 44.09375 54.296875 
Q 44.09375 59.90625 40.109375 62.90625 
Q 36.140625 65.921875 28.71875 65.921875 
Q 24.65625 65.921875 20.015625 65.03125 
Q 15.375 64.15625 9.8125 62.3125 
L 9.8125 71.09375 
Q 15.4375 72.65625 20.34375 73.4375 
Q 25.25 74.21875 29.59375 74.21875 
Q 40.828125 74.21875 47.359375 69.109375 
Q 53.90625 64.015625 53.90625 55.328125 
Q 53.90625 49.265625 50.4375 45.09375 
Q 46.96875 40.921875 40.578125 39.3125 
z
" id="DejaVuSans-51"/>
      </defs>
      <g transform="translate(371.749498 361.400188)scale(0.1 -0.1)">
       <use xlink:href="#DejaVuSans-51"/>
      </g>
     </g>
    </g>
    <g id="text_6">
     <!-- Marriage rate -->
     <defs>
      <path d="M 9.8125 72.90625 
L 24.515625 72.90625 
L 43.109375 23.296875 
L 61.8125 72.90625 
L 76.515625 72.90625 
L 76.515625 0 
L 66.890625 0 
L 66.890625 64.015625 
L 48.09375 14.015625 
L 38.1875 14.015625 
L 19.390625 64.015625 
L 19.390625 0 
L 9.8125 0 
z
" id="DejaVuSans-77"/>
      <path d="M 34.28125 27.484375 
Q 23.390625 27.484375 19.1875 25 
Q 14.984375 22.515625 14.984375 16.5 
Q 14.984375 11.71875 18.140625 8.90625 
Q 21.296875 6.109375 26.703125 6.109375 
Q 34.1875 6.109375 38.703125 11.40625 
Q 43.21875 16.703125 43.21875 25.484375 
L 43.21875 27.484375 
z
M 52.203125 31.203125 
L 52.203125 0 
L 43.21875 0 
L 43.21875 8.296875 
Q 40.140625 3.328125 35.546875 0.953125 
Q 30.953125 -1.421875 24.3125 -1.421875 
Q 15.921875 -1.421875 10.953125 3.296875 
Q 6 8.015625 6 15.921875 
Q 6 25.140625 12.171875 29.828125 
Q 18.359375 34.515625 30.609375 34.515625 
L 43.21875 34.515625 
L 43.21875 35.40625 
Q 43.21875 41.609375 39.140625 45 
Q 35.0625 48.390625 27.6875 48.390625 
Q 23 48.390625 18.546875 47.265625 
Q 14.109375 46.140625 10.015625 43.890625 
L 10.015625 52.203125 
Q 14.9375 54.109375 19.578125 55.046875 
Q 24.21875 56 28.609375 56 
Q 40.484375 56 46.34375 49.84375 
Q 52.203125 43.703125 52.203125 31.203125 
z
" id="DejaVuSans-97"/>
      <path d="M 41.109375 46.296875 
Q 39.59375 47.171875 37.8125 47.578125 
Q 36.03125 48 33.890625 48 
Q 26.265625 48 22.1875 43.046875 
Q 18.109375 38.09375 18.109375 28.8125 
L 18.109375 0 
L 9.078125 0 
L 9.078125 54.6875 
L 18.109375 54.6875 
L 18.109375 46.1875 
Q 20.953125 51.171875 25.484375 53.578125 
Q 30.03125 56 36.53125 56 
Q 37.453125 56 38.578125 55.875 
Q 39.703125 55.765625 41.0625 55.515625 
z
" id="DejaVuSans-114"/>
      <path d="M 9.421875 54.6875 
L 18.40625 54.6875 
L 18.40625 0 
L 9.421875 0 
z
M 9.421875 75.984375 
L 18.40625 75.984375 
L 18.40625 64.59375 
L 9.421875 64.59375 
z
" id="DejaVuSans-105"/>
      <path d="M 45.40625 27.984375 
Q 45.40625 37.75 41.375 43.109375 
Q 37.359375 48.484375 30.078125 48.484375 
Q 22.859375 48.484375 18.828125 43.109375 
Q 14.796875 37.75 14.796875 27.984375 
Q 14.796875 18.265625 18.828125 12.890625 
Q 22.859375 7.515625 30.078125 7.515625 
Q 37.359375 7.515625 41.375 12.890625 
Q 45.40625 18.265625 45.40625 27.984375 
z
M 54.390625 6.78125 
Q 54.390625 -7.171875 48.1875 -13.984375 
Q 42 -20.796875 29.203125 -20.796875 
Q 24.46875 -20.796875 20.265625 -20.09375 
Q 16.0625 -19.390625 12.109375 -17.921875 
L 12.109375 -9.1875 
Q 16.0625 -11.328125 19.921875 -12.34375 
Q 23.78125 -13.375 27.78125 -13.375 
Q 36.625 -13.375 41.015625 -8.765625 
Q 45.40625 -4.15625 45.40625 5.171875 
L 45.40625 9.625 
Q 42.625 4.78125 38.28125 2.390625 
Q 33.9375 0 27.875 0 
Q 17.828125 0 11.671875 7.65625 
Q 5.515625 15.328125 5.515625 27.984375 
Q 5.515625 40.671875 11.671875 48.328125 
Q 17.828125 56 27.875 56 
Q 33.9375 56 38.28125 53.609375 
Q 42.625 51.21875 45.40625 46.390625 
L 45.40625 54.6875 
L 54.390625 54.6875 
z
" id="DejaVuSans-103"/>
      <path d="M 56.203125 29.59375 
L 56.203125 25.203125 
L 14.890625 25.203125 
Q 15.484375 15.921875 20.484375 11.0625 
Q 25.484375 6.203125 34.421875 6.203125 
Q 39.59375 6.203125 44.453125 7.46875 
Q 49.3125 8.734375 54.109375 11.28125 
L 54.109375 2.78125 
Q 49.265625 0.734375 44.1875 -0.34375 
Q 39.109375 -1.421875 33.890625 -1.421875 
Q 20.796875 -1.421875 13.15625 6.1875 
Q 5.515625 13.8125 5.515625 26.8125 
Q 5.515625 40.234375 12.765625 48.109375 
Q 20.015625 56 32.328125 56 
Q 43.359375 56 49.78125 48.890625 
Q 56.203125 41.796875 56.203125 29.59375 
z
M 47.21875 32.234375 
Q 47.125 39.59375 43.09375 43.984375 
Q 39.0625 48.390625 32.421875 48.390625 
Q 24.90625 48.390625 20.390625 44.140625 
Q 15.875 39.890625 15.1875 32.171875 
z
" id="DejaVuSans-101"/>
      <path id="DejaVuSans-32"/>
      <path d="M 18.3125 70.21875 
L 18.3125 54.6875 
L 36.8125 54.6875 
L 36.8125 47.703125 
L 18.3125 47.703125 
L 18.3125 18.015625 
Q 18.3125 11.328125 20.140625 9.421875 
Q 21.96875 7.515625 27.59375 7.515625 
L 36.8125 7.515625 
L 36.8125 0 
L 27.59375 0 
Q 17.1875 0 13.234375 3.875 
Q 9.28125 7.765625 9.28125 18.015625 
L 9.28125 47.703125 
L 2.6875 47.703125 
L 2.6875 54.6875 
L 9.28125 54.6875 
L 9.28125 70.21875 
z
" id="DejaVuSans-116"/>
     </defs>
     <g transform="translate(167.730938 376.598)scale(0.12 -0.12)">
      <use xlink:href="#DejaVuSans-77"/>
      <use x="86.279297" xlink:href="#DejaVuSans-97"/>
      <use x="147.558594" xlink:href="#DejaVuSans-114"/>
      <use x="188.65625" xlink:href="#DejaVuSans-114"/>
      <use x="229.769531" xlink:href="#DejaVuSans-105"/>
      <use x="257.552734" xlink:href="#DejaVuSans-97"/>
      <use x="318.832031" xlink:href="#DejaVuSans-103"/>
      <use x="382.308594" xlink:href="#DejaVuSans-101"/>
      <use x="443.832031" xlink:href="#DejaVuSans-32"/>
      <use x="475.619141" xlink:href="#DejaVuSans-114"/>
      <use x="516.732422" xlink:href="#DejaVuSans-97"/>
      <use x="578.011719" xlink:href="#DejaVuSans-116"/>
      <use x="617.220703" xlink:href="#DejaVuSans-101"/>
     </g>
    </g>
   </g>
   <g id="matplotlib.axis_2">
    <g id="ytick_1">
     <g id="line2d_11">
      <path clip-path="url(#pa13c1c9755)" d="M 41.055938 321.938678 
L 375.855938 321.938678 
" style="fill:none;stroke:#b2b2b2;stroke-dasharray:1.85,0.8;stroke-dashoffset:0;stroke-width:0.5;"/>
     </g>
     <g id="line2d_12">
      <defs>
       <path d="M 0 0 
L 3.5 0 
" id="m06115489a2" style="stroke:#000000;stroke-width:0.8;"/>
      </defs>
      <g>
       <use style="stroke:#000000;stroke-width:0.8;" x="41.055938" xlink:href="#m06115489a2" y="321.938678"/>
      </g>
     </g>
     <g id="text_7">
      <!-- −2 -->
      <g transform="translate(22.81375 325.737897)scale(0.1 -0.1)">
       <use xlink:href="#DejaVuSans-8722"/>
       <use x="83.789062" xlink:href="#DejaVuSans-50"/>
      </g>
     </g>
    </g>
    <g id="ytick_2">
     <g id="line2d_13">
      <path clip-path="url(#pa13c1c9755)" d="M 41.055938 260.298919 
L 375.855938 260.298919 
" style="fill:none;stroke:#b2b2b2;stroke-dasharray:1.85,0.8;stroke-dashoffset:0;stroke-width:0.5;"/>
     </g>
     <g id="line2d_14">
      <g>
       <use style="stroke:#000000;stroke-width:0.8;" x="41.055938" xlink:href="#m06115489a2" y="260.298919"/>
      </g>
     </g>
     <g id="text_8">
      <!-- −1 -->
      <g transform="translate(22.81375 264.098138)scale(0.1 -0.1)">
       <use xlink:href="#DejaVuSans-8722"/>
       <use x="83.789062" xlink:href="#DejaVuSans-49"/>
      </g>
     </g>
    </g>
    <g id="ytick_3">
     <g id="line2d_15">
      <path clip-path="url(#pa13c1c9755)" d="M 41.055938 198.65916 
L 375.855938 198.65916 
" style="fill:none;stroke:#b2b2b2;stroke-dasharray:1.85,0.8;stroke-dashoffset:0;stroke-width:0.5;"/>
     </g>
     <g id="line2d_16">
      <g>
       <use style="stroke:#000000;stroke-width:0.8;" x="41.055938" xlink:href="#m06115489a2" y="198.65916"/>
      </g>
     </g>
     <g id="text_9">
      <!-- 0 -->
      <g transform="translate(31.193438 202.458379)scale(0.1 -0.1)">
       <use xlink:href="#DejaVuSans-48"/>
      </g>
     </g>
    </g>
    <g id="ytick_4">
     <g id="line2d_17">
      <path clip-path="url(#pa13c1c9755)" d="M 41.055938 137.019401 
L 375.855938 137.019401 
" style="fill:none;stroke:#b2b2b2;stroke-dasharray:1.85,0.8;stroke-dashoffset:0;stroke-width:0.5;"/>
     </g>
     <g id="line2d_18">
      <g>
       <use style="stroke:#000000;stroke-width:0.8;" x="41.055938" xlink:href="#m06115489a2" y="137.019401"/>
      </g>
     </g>
     <g id="text_10">
      <!-- 1 -->
      <g transform="translate(31.193438 140.81862)scale(0.1 -0.1)">
       <use xlink:href="#DejaVuSans-49"/>
      </g>
     </g>
    </g>
    <g id="ytick_5">
     <g id="line2d_19">
      <path clip-path="url(#pa13c1c9755)" d="M 41.055938 75.379642 
L 375.855938 75.379642 
" style="fill:none;stroke:#b2b2b2;stroke-dasharray:1.85,0.8;stroke-dashoffset:0;stroke-width:0.5;"/>
     </g>
     <g id="line2d_20">
      <g>
       <use style="stroke:#000000;stroke-width:0.8;" x="41.055938" xlink:href="#m06115489a2" y="75.379642"/>
      </g>
     </g>
     <g id="text_11">
      <!-- 2 -->
      <g transform="translate(31.193438 79.178861)scale(0.1 -0.1)">
       <use xlink:href="#DejaVuSans-50"/>
      </g>
     </g>
    </g>
    <g id="text_12">
     <!-- Divorce rate -->
     <defs>
      <path d="M 19.671875 64.796875 
L 19.671875 8.109375 
L 31.59375 8.109375 
Q 46.6875 8.109375 53.6875 14.9375 
Q 60.6875 21.78125 60.6875 36.53125 
Q 60.6875 51.171875 53.6875 57.984375 
Q 46.6875 64.796875 31.59375 64.796875 
z
M 9.8125 72.90625 
L 30.078125 72.90625 
Q 51.265625 72.90625 61.171875 64.09375 
Q 71.09375 55.28125 71.09375 36.53125 
Q 71.09375 17.671875 61.125 8.828125 
Q 51.171875 0 30.078125 0 
L 9.8125 0 
z
" id="DejaVuSans-68"/>
      <path d="M 2.984375 54.6875 
L 12.5 54.6875 
L 29.59375 8.796875 
L 46.6875 54.6875 
L 56.203125 54.6875 
L 35.6875 0 
L 23.484375 0 
z
" id="DejaVuSans-118"/>
      <path d="M 30.609375 48.390625 
Q 23.390625 48.390625 19.1875 42.75 
Q 14.984375 37.109375 14.984375 27.296875 
Q 14.984375 17.484375 19.15625 11.84375 
Q 23.34375 6.203125 30.609375 6.203125 
Q 37.796875 6.203125 41.984375 11.859375 
Q 46.1875 17.53125 46.1875 27.296875 
Q 46.1875 37.015625 41.984375 42.703125 
Q 37.796875 48.390625 30.609375 48.390625 
z
M 30.609375 56 
Q 42.328125 56 49.015625 48.375 
Q 55.71875 40.765625 55.71875 27.296875 
Q 55.71875 13.875 49.015625 6.21875 
Q 42.328125 -1.421875 30.609375 -1.421875 
Q 18.84375 -1.421875 12.171875 6.21875 
Q 5.515625 13.875 5.515625 27.296875 
Q 5.515625 40.765625 12.171875 48.375 
Q 18.84375 56 30.609375 56 
z
" id="DejaVuSans-111"/>
      <path d="M 48.78125 52.59375 
L 48.78125 44.1875 
Q 44.96875 46.296875 41.140625 47.34375 
Q 37.3125 48.390625 33.40625 48.390625 
Q 24.65625 48.390625 19.8125 42.84375 
Q 14.984375 37.3125 14.984375 27.296875 
Q 14.984375 17.28125 19.8125 11.734375 
Q 24.65625 6.203125 33.40625 6.203125 
Q 37.3125 6.203125 41.140625 7.25 
Q 44.96875 8.296875 48.78125 10.40625 
L 48.78125 2.09375 
Q 45.015625 0.34375 40.984375 -0.53125 
Q 36.96875 -1.421875 32.421875 -1.421875 
Q 20.0625 -1.421875 12.78125 6.34375 
Q 5.515625 14.109375 5.515625 27.296875 
Q 5.515625 40.671875 12.859375 48.328125 
Q 20.21875 56 33.015625 56 
Q 37.15625 56 41.109375 55.140625 
Q 45.0625 54.296875 48.78125 52.59375 
z
" id="DejaVuSans-99"/>
     </defs>
     <g transform="translate(16.318125 224.281125)rotate(-90)scale(0.12 -0.12)">
      <use xlink:href="#DejaVuSans-68"/>
      <use x="77.001953" xlink:href="#DejaVuSans-105"/>
      <use x="104.785156" xlink:href="#DejaVuSans-118"/>
      <use x="163.964844" xlink:href="#DejaVuSans-111"/>
      <use x="225.146484" xlink:href="#DejaVuSans-114"/>
      <use x="266.228516" xlink:href="#DejaVuSans-99"/>
      <use x="321.208984" xlink:href="#DejaVuSans-101"/>
      <use x="382.732422" xlink:href="#DejaVuSans-32"/>
      <use x="414.519531" xlink:href="#DejaVuSans-114"/>
      <use x="455.632812" xlink:href="#DejaVuSans-97"/>
      <use x="516.912109" xlink:href="#DejaVuSans-116"/>
      <use x="556.121094" xlink:href="#DejaVuSans-101"/>
     </g>
    </g>
   </g>
   <g id="line2d_21">
    <path clip-path="url(#pa13c1c9755)" d="M 56.274119 234.288025 
L 79.278348 231.273051 
L 82.81746 229.425698 
L 88.126128 227.966528 
L 91.66524 225.972013 
L 96.973908 222.415992 
L 107.591244 219.031154 
L 109.3608 217.864685 
L 112.899912 218.011444 
L 114.669468 218.259578 
L 116.439024 216.232493 
L 118.20858 216.958225 
L 119.978136 213.667455 
L 121.747692 214.241409 
L 130.595472 212.075773 
L 134.134584 211.022534 
L 137.673696 209.906527 
L 141.212809 208.684625 
L 144.751921 207.924788 
L 146.521477 209.872589 
L 151.830145 204.702607 
L 155.369257 204.199928 
L 158.908369 204.98418 
L 160.677925 203.113919 
L 164.217037 202.051631 
L 167.756149 201.183483 
L 173.064817 200.340475 
L 174.834373 199.371001 
L 176.603929 197.693035 
L 178.373485 197.528892 
L 178.373485 196.695798 
L 180.143041 197.404682 
L 181.912597 195.779002 
L 196.069045 193.2372 
L 197.838601 191.553501 
L 197.838601 190.239737 
L 208.455938 185.329262 
L 208.455938 186.627271 
L 210.225494 187.924256 
L 210.225494 184.456684 
L 226.151498 181.174814 
L 233.229722 180.629684 
L 238.53839 177.78907 
L 258.003506 174.331862 
L 273.92951 164.119229 
L 277.468622 163.271795 
L 284.546847 163.006377 
L 289.855515 163.145946 
L 341.172639 146.541407 
L 360.637756 140.620712 
" style="fill:none;stroke:#348abd;stroke-linecap:square;stroke-width:2;"/>
   </g>
   <g id="line2d_22">
    <defs>
     <path d="M 0 3 
C 0.795609 3 1.55874 2.683901 2.12132 2.12132 
C 2.683901 1.55874 3 0.795609 3 0 
C 3 -0.795609 2.683901 -1.55874 2.12132 -2.12132 
C 1.55874 -2.683901 0.795609 -3 0 -3 
C -0.795609 -3 -1.55874 -2.683901 -2.12132 -2.12132 
C -2.683901 -1.55874 -3 -0.795609 -3 0 
C -3 0.795609 -2.683901 1.55874 -2.12132 2.12132 
C -1.55874 2.683901 -0.795609 3 0 3 
z
" id="mc872688970" style="stroke:#a60628;"/>
    </defs>
    <g clip-path="url(#pa13c1c9755)">
     <use style="fill:#a60628;stroke:#a60628;" x="56.274119" xlink:href="#mc872688970" y="86.538486"/>
     <use style="fill:#a60628;stroke:#a60628;" x="79.278348" xlink:href="#mc872688970" y="320.123224"/>
     <use style="fill:#a60628;stroke:#a60628;" x="82.81746" xlink:href="#mc872688970" y="208.408784"/>
     <use style="fill:#a60628;stroke:#a60628;" x="88.126128" xlink:href="#mc872688970" y="276.114505"/>
     <use style="fill:#a60628;stroke:#a60628;" x="91.66524" xlink:href="#mc872688970" y="265.958647"/>
     <use style="fill:#a60628;stroke:#a60628;" x="96.973908" xlink:href="#mc872688970" y="262.573361"/>
     <use style="fill:#a60628;stroke:#a60628;" x="107.591244" xlink:href="#mc872688970" y="201.638212"/>
     <use style="fill:#a60628;stroke:#a60628;" x="109.3608" xlink:href="#mc872688970" y="215.179356"/>
     <use style="fill:#a60628;stroke:#a60628;" x="112.899912" xlink:href="#mc872688970" y="184.711781"/>
     <use style="fill:#a60628;stroke:#a60628;" x="114.669468" xlink:href="#mc872688970" y="303.196793"/>
     <use style="fill:#a60628;stroke:#a60628;" x="116.439024" xlink:href="#mc872688970" y="205.023498"/>
     <use style="fill:#a60628;stroke:#a60628;" x="118.20858" xlink:href="#mc872688970" y="238.876358"/>
     <use style="fill:#a60628;stroke:#a60628;" x="119.978136" xlink:href="#mc872688970" y="299.811507"/>
     <use style="fill:#a60628;stroke:#a60628;" x="121.747692" xlink:href="#mc872688970" y="245.64693"/>
     <use style="fill:#a60628;stroke:#a60628;" x="130.595472" xlink:href="#mc872688970" y="313.352652"/>
     <use style="fill:#a60628;stroke:#a60628;" x="134.134584" xlink:href="#mc872688970" y="255.802789"/>
     <use style="fill:#a60628;stroke:#a60628;" x="137.673696" xlink:href="#mc872688970" y="252.417503"/>
     <use style="fill:#a60628;stroke:#a60628;" x="141.212809" xlink:href="#mc872688970" y="228.7205"/>
     <use style="fill:#a60628;stroke:#a60628;" x="144.751921" xlink:href="#mc872688970" y="218.564642"/>
     <use style="fill:#a60628;stroke:#a60628;" x="146.521477" xlink:href="#mc872688970" y="205.023498"/>
     <use style="fill:#a60628;stroke:#a60628;" x="151.830145" xlink:href="#mc872688970" y="174.555923"/>
     <use style="fill:#a60628;stroke:#a60628;" x="155.369257" xlink:href="#mc872688970" y="255.802789"/>
     <use style="fill:#a60628;stroke:#a60628;" x="158.908369" xlink:href="#mc872688970" y="150.858921"/>
     <use style="fill:#a60628;stroke:#a60628;" x="160.677925" xlink:href="#mc872688970" y="140.703063"/>
     <use style="fill:#a60628;stroke:#a60628;" x="164.217037" xlink:href="#mc872688970" y="228.7205"/>
     <use style="fill:#a60628;stroke:#a60628;" x="167.756149" xlink:href="#mc872688970" y="154.244207"/>
     <use style="fill:#a60628;stroke:#a60628;" x="173.064817" xlink:href="#mc872688970" y="157.629493"/>
     <use style="fill:#a60628;stroke:#a60628;" x="174.834373" xlink:href="#mc872688970" y="96.694344"/>
     <use style="fill:#a60628;stroke:#a60628;" x="176.603929" xlink:href="#mc872688970" y="161.014779"/>
     <use style="fill:#a60628;stroke:#a60628;" x="178.373485" xlink:href="#mc872688970" y="181.326495"/>
     <use style="fill:#a60628;stroke:#a60628;" x="178.373485" xlink:href="#mc872688970" y="191.482354"/>
     <use style="fill:#a60628;stroke:#a60628;" x="180.143041" xlink:href="#mc872688970" y="225.335214"/>
     <use style="fill:#a60628;stroke:#a60628;" x="181.912597" xlink:href="#mc872688970" y="154.244207"/>
     <use style="fill:#a60628;stroke:#a60628;" x="196.069045" xlink:href="#mc872688970" y="188.097068"/>
     <use style="fill:#a60628;stroke:#a60628;" x="197.838601" xlink:href="#mc872688970" y="181.326495"/>
     <use style="fill:#a60628;stroke:#a60628;" x="197.838601" xlink:href="#mc872688970" y="188.097068"/>
     <use style="fill:#a60628;stroke:#a60628;" x="208.455938" xlink:href="#mc872688970" y="167.785351"/>
     <use style="fill:#a60628;stroke:#a60628;" x="208.455938" xlink:href="#mc872688970" y="137.317777"/>
     <use style="fill:#a60628;stroke:#a60628;" x="210.225494" xlink:href="#mc872688970" y="100.07963"/>
     <use style="fill:#a60628;stroke:#a60628;" x="210.225494" xlink:href="#mc872688970" y="157.629493"/>
     <use style="fill:#a60628;stroke:#a60628;" x="226.151498" xlink:href="#mc872688970" y="225.335214"/>
     <use style="fill:#a60628;stroke:#a60628;" x="233.229722" xlink:href="#mc872688970" y="133.932491"/>
     <use style="fill:#a60628;stroke:#a60628;" x="238.53839" xlink:href="#mc872688970" y="93.309058"/>
     <use style="fill:#a60628;stroke:#a60628;" x="258.003506" xlink:href="#mc872688970" y="245.64693"/>
     <use style="fill:#a60628;stroke:#a60628;" x="273.92951" xlink:href="#mc872688970" y="265.958647"/>
     <use style="fill:#a60628;stroke:#a60628;" x="277.468622" xlink:href="#mc872688970" y="103.464916"/>
     <use style="fill:#a60628;stroke:#a60628;" x="284.546847" xlink:href="#mc872688970" y="69.612056"/>
     <use style="fill:#a60628;stroke:#a60628;" x="289.855515" xlink:href="#mc872688970" y="255.802789"/>
     <use style="fill:#a60628;stroke:#a60628;" x="341.172639" xlink:href="#mc872688970" y="181.326495"/>
     <use style="fill:#a60628;stroke:#a60628;" x="360.637756" xlink:href="#mc872688970" y="177.941209"/>
    </g>
   </g>
   <g id="patch_3">
    <path d="M 41.055938 350.30175 
L 41.055938 24.14175 
" style="fill:none;stroke:#bcbcbc;stroke-linecap:square;stroke-linejoin:miter;stroke-width:0.8;"/>
   </g>
   <g id="patch_4">
    <path d="M 375.855938 350.30175 
L 375.855938 24.14175 
" style="fill:none;stroke:#bcbcbc;stroke-linecap:square;stroke-linejoin:miter;stroke-width:0.8;"/>
   </g>
   <g id="patch_5">
    <path d="M 41.055937 350.30175 
L 375.855937 350.30175 
" style="fill:none;stroke:#bcbcbc;stroke-linecap:square;stroke-linejoin:miter;stroke-width:0.8;"/>
   </g>
   <g id="patch_6">
    <path d="M 41.055937 24.14175 
L 375.855937 24.14175 
" style="fill:none;stroke:#bcbcbc;stroke-linecap:square;stroke-linejoin:miter;stroke-width:0.8;"/>
   </g>
   <g id="text_13">
    <!-- Predictions with 90% CI -->
    <defs>
     <path d="M 19.671875 64.796875 
L 19.671875 37.40625 
L 32.078125 37.40625 
Q 38.96875 37.40625 42.71875 40.96875 
Q 46.484375 44.53125 46.484375 51.125 
Q 46.484375 57.671875 42.71875 61.234375 
Q 38.96875 64.796875 32.078125 64.796875 
z
M 9.8125 72.90625 
L 32.078125 72.90625 
Q 44.34375 72.90625 50.609375 67.359375 
Q 56.890625 61.8125 56.890625 51.125 
Q 56.890625 40.328125 50.609375 34.8125 
Q 44.34375 29.296875 32.078125 29.296875 
L 19.671875 29.296875 
L 19.671875 0 
L 9.8125 0 
z
" id="DejaVuSans-80"/>
     <path d="M 45.40625 46.390625 
L 45.40625 75.984375 
L 54.390625 75.984375 
L 54.390625 0 
L 45.40625 0 
L 45.40625 8.203125 
Q 42.578125 3.328125 38.25 0.953125 
Q 33.9375 -1.421875 27.875 -1.421875 
Q 17.96875 -1.421875 11.734375 6.484375 
Q 5.515625 14.40625 5.515625 27.296875 
Q 5.515625 40.1875 11.734375 48.09375 
Q 17.96875 56 27.875 56 
Q 33.9375 56 38.25 53.625 
Q 42.578125 51.265625 45.40625 46.390625 
z
M 14.796875 27.296875 
Q 14.796875 17.390625 18.875 11.75 
Q 22.953125 6.109375 30.078125 6.109375 
Q 37.203125 6.109375 41.296875 11.75 
Q 45.40625 17.390625 45.40625 27.296875 
Q 45.40625 37.203125 41.296875 42.84375 
Q 37.203125 48.484375 30.078125 48.484375 
Q 22.953125 48.484375 18.875 42.84375 
Q 14.796875 37.203125 14.796875 27.296875 
z
" id="DejaVuSans-100"/>
     <path d="M 54.890625 33.015625 
L 54.890625 0 
L 45.90625 0 
L 45.90625 32.71875 
Q 45.90625 40.484375 42.875 44.328125 
Q 39.84375 48.1875 33.796875 48.1875 
Q 26.515625 48.1875 22.3125 43.546875 
Q 18.109375 38.921875 18.109375 30.90625 
L 18.109375 0 
L 9.078125 0 
L 9.078125 54.6875 
L 18.109375 54.6875 
L 18.109375 46.1875 
Q 21.34375 51.125 25.703125 53.5625 
Q 30.078125 56 35.796875 56 
Q 45.21875 56 50.046875 50.171875 
Q 54.890625 44.34375 54.890625 33.015625 
z
" id="DejaVuSans-110"/>
     <path d="M 44.28125 53.078125 
L 44.28125 44.578125 
Q 40.484375 46.53125 36.375 47.5 
Q 32.28125 48.484375 27.875 48.484375 
Q 21.1875 48.484375 17.84375 46.4375 
Q 14.5 44.390625 14.5 40.28125 
Q 14.5 37.15625 16.890625 35.375 
Q 19.28125 33.59375 26.515625 31.984375 
L 29.59375 31.296875 
Q 39.15625 29.25 43.1875 25.515625 
Q 47.21875 21.78125 47.21875 15.09375 
Q 47.21875 7.46875 41.1875 3.015625 
Q 35.15625 -1.421875 24.609375 -1.421875 
Q 20.21875 -1.421875 15.453125 -0.5625 
Q 10.6875 0.296875 5.421875 2 
L 5.421875 11.28125 
Q 10.40625 8.6875 15.234375 7.390625 
Q 20.0625 6.109375 24.8125 6.109375 
Q 31.15625 6.109375 34.5625 8.28125 
Q 37.984375 10.453125 37.984375 14.40625 
Q 37.984375 18.0625 35.515625 20.015625 
Q 33.0625 21.96875 24.703125 23.78125 
L 21.578125 24.515625 
Q 13.234375 26.265625 9.515625 29.90625 
Q 5.8125 33.546875 5.8125 39.890625 
Q 5.8125 47.609375 11.28125 51.796875 
Q 16.75 56 26.8125 56 
Q 31.78125 56 36.171875 55.265625 
Q 40.578125 54.546875 44.28125 53.078125 
z
" id="DejaVuSans-115"/>
     <path d="M 4.203125 54.6875 
L 13.1875 54.6875 
L 24.421875 12.015625 
L 35.59375 54.6875 
L 46.1875 54.6875 
L 57.421875 12.015625 
L 68.609375 54.6875 
L 77.59375 54.6875 
L 63.28125 0 
L 52.6875 0 
L 40.921875 44.828125 
L 29.109375 0 
L 18.5 0 
z
" id="DejaVuSans-119"/>
     <path d="M 54.890625 33.015625 
L 54.890625 0 
L 45.90625 0 
L 45.90625 32.71875 
Q 45.90625 40.484375 42.875 44.328125 
Q 39.84375 48.1875 33.796875 48.1875 
Q 26.515625 48.1875 22.3125 43.546875 
Q 18.109375 38.921875 18.109375 30.90625 
L 18.109375 0 
L 9.078125 0 
L 9.078125 75.984375 
L 18.109375 75.984375 
L 18.109375 46.1875 
Q 21.34375 51.125 25.703125 53.5625 
Q 30.078125 56 35.796875 56 
Q 45.21875 56 50.046875 50.171875 
Q 54.890625 44.34375 54.890625 33.015625 
z
" id="DejaVuSans-104"/>
     <path d="M 10.984375 1.515625 
L 10.984375 10.5 
Q 14.703125 8.734375 18.5 7.8125 
Q 22.3125 6.890625 25.984375 6.890625 
Q 35.75 6.890625 40.890625 13.453125 
Q 46.046875 20.015625 46.78125 33.40625 
Q 43.953125 29.203125 39.59375 26.953125 
Q 35.25 24.703125 29.984375 24.703125 
Q 19.046875 24.703125 12.671875 31.3125 
Q 6.296875 37.9375 6.296875 49.421875 
Q 6.296875 60.640625 12.9375 67.421875 
Q 19.578125 74.21875 30.609375 74.21875 
Q 43.265625 74.21875 49.921875 64.515625 
Q 56.59375 54.828125 56.59375 36.375 
Q 56.59375 19.140625 48.40625 8.859375 
Q 40.234375 -1.421875 26.421875 -1.421875 
Q 22.703125 -1.421875 18.890625 -0.6875 
Q 15.09375 0.046875 10.984375 1.515625 
z
M 30.609375 32.421875 
Q 37.25 32.421875 41.125 36.953125 
Q 45.015625 41.5 45.015625 49.421875 
Q 45.015625 57.28125 41.125 61.84375 
Q 37.25 66.40625 30.609375 66.40625 
Q 23.96875 66.40625 20.09375 61.84375 
Q 16.21875 57.28125 16.21875 49.421875 
Q 16.21875 41.5 20.09375 36.953125 
Q 23.96875 32.421875 30.609375 32.421875 
z
" id="DejaVuSans-57"/>
     <path d="M 72.703125 32.078125 
Q 68.453125 32.078125 66.03125 28.46875 
Q 63.625 24.859375 63.625 18.40625 
Q 63.625 12.0625 66.03125 8.421875 
Q 68.453125 4.78125 72.703125 4.78125 
Q 76.859375 4.78125 79.265625 8.421875 
Q 81.6875 12.0625 81.6875 18.40625 
Q 81.6875 24.8125 79.265625 28.4375 
Q 76.859375 32.078125 72.703125 32.078125 
z
M 72.703125 38.28125 
Q 80.421875 38.28125 84.953125 32.90625 
Q 89.5 27.546875 89.5 18.40625 
Q 89.5 9.28125 84.9375 3.921875 
Q 80.375 -1.421875 72.703125 -1.421875 
Q 64.890625 -1.421875 60.34375 3.921875 
Q 55.8125 9.28125 55.8125 18.40625 
Q 55.8125 27.59375 60.375 32.9375 
Q 64.9375 38.28125 72.703125 38.28125 
z
M 22.3125 68.015625 
Q 18.109375 68.015625 15.6875 64.375 
Q 13.28125 60.75 13.28125 54.390625 
Q 13.28125 47.953125 15.671875 44.328125 
Q 18.0625 40.71875 22.3125 40.71875 
Q 26.5625 40.71875 28.96875 44.328125 
Q 31.390625 47.953125 31.390625 54.390625 
Q 31.390625 60.6875 28.953125 64.34375 
Q 26.515625 68.015625 22.3125 68.015625 
z
M 66.40625 74.21875 
L 74.21875 74.21875 
L 28.609375 -1.421875 
L 20.796875 -1.421875 
z
M 22.3125 74.21875 
Q 30.03125 74.21875 34.609375 68.875 
Q 39.203125 63.53125 39.203125 54.390625 
Q 39.203125 45.171875 34.640625 39.84375 
Q 30.078125 34.515625 22.3125 34.515625 
Q 14.546875 34.515625 10.03125 39.859375 
Q 5.515625 45.21875 5.515625 54.390625 
Q 5.515625 63.484375 10.046875 68.84375 
Q 14.59375 74.21875 22.3125 74.21875 
z
" id="DejaVuSans-37"/>
     <path d="M 64.40625 67.28125 
L 64.40625 56.890625 
Q 59.421875 61.53125 53.78125 63.8125 
Q 48.140625 66.109375 41.796875 66.109375 
Q 29.296875 66.109375 22.65625 58.46875 
Q 16.015625 50.828125 16.015625 36.375 
Q 16.015625 21.96875 22.65625 14.328125 
Q 29.296875 6.6875 41.796875 6.6875 
Q 48.140625 6.6875 53.78125 8.984375 
Q 59.421875 11.28125 64.40625 15.921875 
L 64.40625 5.609375 
Q 59.234375 2.09375 53.4375 0.328125 
Q 47.65625 -1.421875 41.21875 -1.421875 
Q 24.65625 -1.421875 15.125 8.703125 
Q 5.609375 18.84375 5.609375 36.375 
Q 5.609375 53.953125 15.125 64.078125 
Q 24.65625 74.21875 41.21875 74.21875 
Q 47.75 74.21875 53.53125 72.484375 
Q 59.328125 70.75 64.40625 67.28125 
z
" id="DejaVuSans-67"/>
     <path d="M 9.8125 72.90625 
L 19.671875 72.90625 
L 19.671875 0 
L 9.8125 0 
z
" id="DejaVuSans-73"/>
    </defs>
    <g transform="translate(123.362063 18.14175)scale(0.144 -0.144)">
     <use xlink:href="#DejaVuSans-80"/>
     <use x="60.287109" xlink:href="#DejaVuSans-114"/>
     <use x="101.369141" xlink:href="#DejaVuSans-101"/>
     <use x="162.892578" xlink:href="#DejaVuSans-100"/>
     <use x="226.369141" xlink:href="#DejaVuSans-105"/>
     <use x="254.152344" xlink:href="#DejaVuSans-99"/>
     <use x="309.132812" xlink:href="#DejaVuSans-116"/>
     <use x="348.341797" xlink:href="#DejaVuSans-105"/>
     <use x="376.125" xlink:href="#DejaVuSans-111"/>
     <use x="437.306641" xlink:href="#DejaVuSans-110"/>
     <use x="500.685547" xlink:href="#DejaVuSans-115"/>
     <use x="552.785156" xlink:href="#DejaVuSans-32"/>
     <use x="584.572266" xlink:href="#DejaVuSans-119"/>
     <use x="666.359375" xlink:href="#DejaVuSans-105"/>
     <use x="694.142578" xlink:href="#DejaVuSans-116"/>
     <use x="733.351562" xlink:href="#DejaVuSans-104"/>
     <use x="796.730469" xlink:href="#DejaVuSans-32"/>
     <use x="828.517578" xlink:href="#DejaVuSans-57"/>
     <use x="892.140625" xlink:href="#DejaVuSans-48"/>
     <use x="955.763672" xlink:href="#DejaVuSans-37"/>
     <use x="1050.783203" xlink:href="#DejaVuSans-32"/>
     <use x="1082.570312" xlink:href="#DejaVuSans-67"/>
     <use x="1152.394531" xlink:href="#DejaVuSans-73"/>
    </g>
   </g>
  </g>
 </g>
 <defs>
  <clipPath id="pa13c1c9755">
   <rect height="326.16" width="334.8" x="41.055938" y="24.14175"/>
  </clipPath>
 </defs>
</svg>
