<?xml version="1.0" encoding="UTF-8" standalone="no"?>
<!DOCTYPE svg PUBLIC "-//W3C//DTD SVG 1.1//EN"
 "http://www.w3.org/Graphics/SVG/1.1/DTD/svg11.dtd">
<!-- Generated by graphviz version 2.50.0 (20211204.2007)
 -->
<!-- Pages: 1 -->
<svg width="361pt" height="116pt"
 viewBox="0.00 0.00 361.50 116.00" xmlns="http://www.w3.org/2000/svg" xmlns:xlink="http://www.w3.org/1999/xlink">
<g id="graph0" class="graph" transform="scale(1 1) rotate(0) translate(4 112)">
<polygon fill="white" stroke="transparent" points="-4,4 -4,-112 357.5,-112 357.5,4 -4,4"/>
<!-- _AutoMultivariateNormal_latent -->
<g id="node1" class="node">
<title>_AutoMultivariateNormal_latent</title>
<ellipse fill="white" stroke="black" cx="171" cy="-90" rx="128.08" ry="18"/>
<text text-anchor="middle" x="171" y="-86.3" font-family="Times,serif" font-size="14.00">_AutoMultivariateNormal_latent</text>
</g>
<!-- a -->
<g id="node2" class="node">
<title>a</title>
<ellipse fill="white" stroke="black" cx="27" cy="-18" rx="27" ry="18"/>
<text text-anchor="middle" x="27" y="-14.3" font-family="Times,serif" font-size="14.00">a</text>
</g>
<!-- _AutoMultivariateNormal_latent&#45;&gt;a -->
<g id="edge1" class="edge">
<title>_AutoMultivariateNormal_latent&#45;&gt;a</title>
<path fill="none" stroke="black" d="M137.24,-72.59C113.13,-60.87 80.96,-45.23 57.6,-33.87"/>
<polygon fill="black" stroke="black" points="59.01,-30.67 48.49,-29.44 55.95,-36.96 59.01,-30.67"/>
</g>
<!-- bA -->
<g id="node3" class="node">
<title>bA</title>
<ellipse fill="white" stroke="black" cx="99" cy="-18" rx="27" ry="18"/>
<text text-anchor="middle" x="99" y="-14.3" font-family="Times,serif" font-size="14.00">bA</text>
</g>
<!-- _AutoMultivariateNormal_latent&#45;&gt;bA -->
<g id="edge2" class="edge">
<title>_AutoMultivariateNormal_latent&#45;&gt;bA</title>
<path fill="none" stroke="black" d="M153.57,-72.05C143.79,-62.55 131.5,-50.59 121.05,-40.44"/>
<polygon fill="black" stroke="black" points="123.45,-37.89 113.84,-33.42 118.57,-42.9 123.45,-37.89"/>
</g>
<!-- bR -->
<g id="node4" class="node">
<title>bR</title>
<ellipse fill="white" stroke="black" cx="171" cy="-18" rx="27" ry="18"/>
<text text-anchor="middle" x="171" y="-14.3" font-family="Times,serif" font-size="14.00">bR</text>
</g>
<!-- _AutoMultivariateNormal_latent&#45;&gt;bR -->
<g id="edge3" class="edge">
<title>_AutoMultivariateNormal_latent&#45;&gt;bR</title>
<path fill="none" stroke="black" d="M171,-71.7C171,-63.98 171,-54.71 171,-46.11"/>
<polygon fill="black" stroke="black" points="174.5,-46.1 171,-36.1 167.5,-46.1 174.5,-46.1"/>
</g>
<!-- bAR -->
<g id="node5" class="node">
<title>bAR</title>
<ellipse fill="white" stroke="black" cx="243" cy="-18" rx="27.1" ry="18"/>
<text text-anchor="middle" x="243" y="-14.3" font-family="Times,serif" font-size="14.00">bAR</text>
</g>
<!-- _AutoMultivariateNormal_latent&#45;&gt;bAR -->
<g id="edge4" class="edge">
<title>_AutoMultivariateNormal_latent&#45;&gt;bAR</title>
<path fill="none" stroke="black" d="M188.43,-72.05C198.21,-62.55 210.5,-50.59 220.95,-40.44"/>
<polygon fill="black" stroke="black" points="223.43,-42.9 228.16,-33.42 218.55,-37.89 223.43,-42.9"/>
</g>
<!-- sigma -->
<g id="node6" class="node">
<title>sigma</title>
<ellipse fill="white" stroke="black" cx="321" cy="-18" rx="32.49" ry="18"/>
<text text-anchor="middle" x="321" y="-14.3" font-family="Times,serif" font-size="14.00">sigma</text>
</g>
<!-- _AutoMultivariateNormal_latent&#45;&gt;sigma -->
<g id="edge5" class="edge">
<title>_AutoMultivariateNormal_latent&#45;&gt;sigma</title>
<path fill="none" stroke="black" d="M206.17,-72.59C230.78,-61.1 263.46,-45.85 287.66,-34.56"/>
<polygon fill="black" stroke="black" points="289.23,-37.69 296.82,-30.29 286.27,-31.34 289.23,-37.69"/>
</g>
</g>
</svg>
