<?xml version="1.0" encoding="UTF-8" standalone="no"?>
<!DOCTYPE svg PUBLIC "-//W3C//DTD SVG 1.1//EN"
 "http://www.w3.org/Graphics/SVG/1.1/DTD/svg11.dtd">
<!-- Generated by graphviz version 2.50.0 (20211204.2007)
 -->
<!-- Pages: 1 -->
<svg width="361pt" height="155pt"
 viewBox="0.00 0.00 361.50 155.00" xmlns="http://www.w3.org/2000/svg" xmlns:xlink="http://www.w3.org/1999/xlink">
<g id="graph0" class="graph" transform="scale(1 1) rotate(0) translate(4 151)">
<polygon fill="white" stroke="transparent" points="-4,4 -4,-151 357.5,-151 357.5,4 -4,4"/>
<g id="clust1" class="cluster">
<title>cluster_data</title>
<polygon fill="none" stroke="black" points="136,-8 136,-83 206,-83 206,-8 136,-8"/>
<text text-anchor="middle" x="186.5" y="-15.8" font-family="Times,serif" font-size="14.00">data</text>
</g>
<!-- a -->
<g id="node1" class="node">
<title>a</title>
<ellipse fill="white" stroke="black" cx="27" cy="-129" rx="27" ry="18"/>
<text text-anchor="middle" x="27" y="-125.3" font-family="Times,serif" font-size="14.00">a</text>
</g>
<!-- obs -->
<g id="node6" class="node">
<title>obs</title>
<ellipse fill="grey" stroke="black" cx="171" cy="-57" rx="27" ry="18"/>
<text text-anchor="middle" x="171" y="-53.3" font-family="Times,serif" font-size="14.00">obs</text>
</g>
<!-- a&#45;&gt;obs -->
<g id="edge2" class="edge">
<title>a&#45;&gt;obs</title>
<path fill="none" stroke="black" d="M48.25,-117.67C72.6,-105.83 112.72,-86.33 140.43,-72.86"/>
<polygon fill="black" stroke="black" points="142.2,-75.89 149.67,-68.37 139.14,-69.6 142.2,-75.89"/>
</g>
<!-- bA -->
<g id="node2" class="node">
<title>bA</title>
<ellipse fill="white" stroke="black" cx="99" cy="-129" rx="27" ry="18"/>
<text text-anchor="middle" x="99" y="-125.3" font-family="Times,serif" font-size="14.00">bA</text>
</g>
<!-- bA&#45;&gt;obs -->
<g id="edge5" class="edge">
<title>bA&#45;&gt;obs</title>
<path fill="none" stroke="black" d="M113.57,-113.83C123.75,-103.94 137.52,-90.55 149.03,-79.36"/>
<polygon fill="black" stroke="black" points="151.47,-81.87 156.2,-72.38 146.59,-76.85 151.47,-81.87"/>
</g>
<!-- bR -->
<g id="node3" class="node">
<title>bR</title>
<ellipse fill="white" stroke="black" cx="171" cy="-129" rx="27" ry="18"/>
<text text-anchor="middle" x="171" y="-125.3" font-family="Times,serif" font-size="14.00">bR</text>
</g>
<!-- bR&#45;&gt;obs -->
<g id="edge4" class="edge">
<title>bR&#45;&gt;obs</title>
<path fill="none" stroke="black" d="M171,-110.7C171,-102.98 171,-93.71 171,-85.11"/>
<polygon fill="black" stroke="black" points="174.5,-85.1 171,-75.1 167.5,-85.1 174.5,-85.1"/>
</g>
<!-- bAR -->
<g id="node4" class="node">
<title>bAR</title>
<ellipse fill="white" stroke="black" cx="243" cy="-129" rx="27.1" ry="18"/>
<text text-anchor="middle" x="243" y="-125.3" font-family="Times,serif" font-size="14.00">bAR</text>
</g>
<!-- bAR&#45;&gt;obs -->
<g id="edge1" class="edge">
<title>bAR&#45;&gt;obs</title>
<path fill="none" stroke="black" d="M228.08,-113.5C218.04,-103.73 204.62,-90.69 193.32,-79.7"/>
<polygon fill="black" stroke="black" points="195.51,-76.95 185.9,-72.49 190.63,-81.97 195.51,-76.95"/>
</g>
<!-- sigma -->
<g id="node5" class="node">
<title>sigma</title>
<ellipse fill="white" stroke="black" cx="321" cy="-129" rx="32.49" ry="18"/>
<text text-anchor="middle" x="321" y="-125.3" font-family="Times,serif" font-size="14.00">sigma</text>
</g>
<!-- sigma&#45;&gt;obs -->
<g id="edge3" class="edge">
<title>sigma&#45;&gt;obs</title>
<path fill="none" stroke="black" d="M296.9,-116.75C271.12,-104.72 230.15,-85.6 201.99,-72.46"/>
<polygon fill="black" stroke="black" points="203.15,-69.14 192.61,-68.08 200.19,-75.48 203.15,-69.14"/>
</g>
</g>
</svg>
