<?xml version="1.0" encoding="UTF-8" standalone="no"?>
<!DOCTYPE svg PUBLIC "-//W3C//DTD SVG 1.1//EN"
 "http://www.w3.org/Graphics/SVG/1.1/DTD/svg11.dtd">
<!-- Generated by graphviz version 2.40.1 (20161225.0304)
 -->
<!-- Title: %3 Pages: 1 -->
<svg width="384pt" height="167pt"
 viewBox="0.00 0.00 384.00 167.00" xmlns="http://www.w3.org/2000/svg" xmlns:xlink="http://www.w3.org/1999/xlink">
<g id="graph0" class="graph" transform="scale(1 1) rotate(0) translate(4 163)">
<title>%3</title>
<polygon fill="#ffffff" stroke="transparent" points="-4,4 -4,-163 380,-163 380,4 -4,4"/>
<!-- _AutoMultivariateNormal_latent -->
<g id="node1" class="node">
<title>_AutoMultivariateNormal_latent</title>
<ellipse fill="#ffffff" stroke="#000000" cx="182" cy="-90" rx="128.0773" ry="18"/>
<text text-anchor="middle" x="182" y="-86.3" font-family="Times,serif" font-size="14.00" fill="#000000">_AutoMultivariateNormal_latent</text>
</g>
<!-- a -->
<g id="node2" class="node">
<title>a</title>
<ellipse fill="#ffffff" stroke="#000000" cx="38" cy="-18" rx="27" ry="18"/>
<text text-anchor="middle" x="38" y="-14.3" font-family="Times,serif" font-size="14.00" fill="#000000">a</text>
</g>
<!-- _AutoMultivariateNormal_latent&#45;&gt;a -->
<g id="edge1" class="edge">
<title>_AutoMultivariateNormal_latent&#45;&gt;a</title>
<path fill="none" stroke="#000000" d="M147.1416,-72.5708C123.2923,-60.6462 91.956,-44.978 68.9813,-33.4907"/>
<polygon fill="#000000" stroke="#000000" points="70.5123,-30.3431 60.0027,-29.0014 67.3817,-36.6041 70.5123,-30.3431"/>
</g>
<!-- bA -->
<g id="node3" class="node">
<title>bA</title>
<ellipse fill="#ffffff" stroke="#000000" cx="110" cy="-18" rx="27" ry="18"/>
<text text-anchor="middle" x="110" y="-14.3" font-family="Times,serif" font-size="14.00" fill="#000000">bA</text>
</g>
<!-- _AutoMultivariateNormal_latent&#45;&gt;bA -->
<g id="edge2" class="edge">
<title>_AutoMultivariateNormal_latent&#45;&gt;bA</title>
<path fill="none" stroke="#000000" d="M163.8314,-71.8314C154.2706,-62.2706 142.4651,-50.4651 132.3481,-40.3481"/>
<polygon fill="#000000" stroke="#000000" points="134.5519,-37.6021 125.0059,-33.0059 129.6021,-42.5519 134.5519,-37.6021"/>
</g>
<!-- bR -->
<g id="node4" class="node">
<title>bR</title>
<ellipse fill="#ffffff" stroke="#000000" cx="182" cy="-18" rx="27" ry="18"/>
<text text-anchor="middle" x="182" y="-14.3" font-family="Times,serif" font-size="14.00" fill="#000000">bR</text>
</g>
<!-- _AutoMultivariateNormal_latent&#45;&gt;bR -->
<g id="edge3" class="edge">
<title>_AutoMultivariateNormal_latent&#45;&gt;bR</title>
<path fill="none" stroke="#000000" d="M182,-71.8314C182,-64.131 182,-54.9743 182,-46.4166"/>
<polygon fill="#000000" stroke="#000000" points="185.5001,-46.4132 182,-36.4133 178.5001,-46.4133 185.5001,-46.4132"/>
</g>
<!-- bAR -->
<g id="node5" class="node">
<title>bAR</title>
<ellipse fill="#ffffff" stroke="#000000" cx="254" cy="-18" rx="27.0966" ry="18"/>
<text text-anchor="middle" x="254" y="-14.3" font-family="Times,serif" font-size="14.00" fill="#000000">bAR</text>
</g>
<!-- _AutoMultivariateNormal_latent&#45;&gt;bAR -->
<g id="edge4" class="edge">
<title>_AutoMultivariateNormal_latent&#45;&gt;bAR</title>
<path fill="none" stroke="#000000" d="M200.1686,-71.8314C209.5966,-62.4034 221.2074,-50.7926 231.2294,-40.7706"/>
<polygon fill="#000000" stroke="#000000" points="233.9248,-43.0249 238.521,-33.479 228.9751,-38.0752 233.9248,-43.0249"/>
</g>
<!-- sigma -->
<g id="node6" class="node">
<title>sigma</title>
<ellipse fill="#ffffff" stroke="#000000" cx="332" cy="-18" rx="32.4942" ry="18"/>
<text text-anchor="middle" x="332" y="-14.3" font-family="Times,serif" font-size="14.00" fill="#000000">sigma</text>
</g>
<!-- _AutoMultivariateNormal_latent&#45;&gt;sigma -->
<g id="edge5" class="edge">
<title>_AutoMultivariateNormal_latent&#45;&gt;sigma</title>
<path fill="none" stroke="#000000" d="M218.3108,-72.5708C242.5442,-60.9388 274.1984,-45.7448 297.9504,-34.3438"/>
<polygon fill="#000000" stroke="#000000" points="299.7772,-37.3493 307.2778,-29.8666 296.748,-31.0387 299.7772,-37.3493"/>
</g>
<!-- AutoMultivariateNormal.scale -->
<g id="node7" class="node">
<title>AutoMultivariateNormal.scale</title>
<polygon fill="#ffffff" stroke="transparent" points="168,-159 0,-159 0,-144 168,-144 168,-159"/>
<text text-anchor="middle" x="84" y="-147.8" font-family="Times,serif" font-size="14.00" fill="#000000">AutoMultivariateNormal.scale</text>
</g>
<!-- AutoMultivariateNormal.scale&#45;&gt;_AutoMultivariateNormal_latent -->
<g id="edge6" class="edge">
<title>AutoMultivariateNormal.scale&#45;&gt;_AutoMultivariateNormal_latent</title>
<path fill="none" stroke="#000000" d="M96.0167,-143.9589C108.2035,-136.3111 127.6872,-124.0841 145.0284,-113.2016"/>
<polygon fill="#000000" stroke="#000000" points="147.2417,-115.9448 153.8515,-107.6646 143.5208,-110.0156 147.2417,-115.9448"/>
</g>
<!-- AutoMultivariateNormal.scale_tril -->
<g id="node8" class="node">
<title>AutoMultivariateNormal.scale_tril</title>
<polygon fill="#ffffff" stroke="transparent" points="376,-159 186,-159 186,-144 376,-144 376,-159"/>
<text text-anchor="middle" x="281" y="-147.8" font-family="Times,serif" font-size="14.00" fill="#000000">AutoMultivariateNormal.scale_tril</text>
</g>
<!-- AutoMultivariateNormal.scale_tril&#45;&gt;_AutoMultivariateNormal_latent -->
<g id="edge7" class="edge">
<title>AutoMultivariateNormal.scale_tril&#45;&gt;_AutoMultivariateNormal_latent</title>
<path fill="none" stroke="#000000" d="M268.8607,-143.9589C256.5495,-136.3111 236.867,-124.0841 219.3488,-113.2016"/>
<polygon fill="#000000" stroke="#000000" points="220.7771,-109.9684 210.4357,-107.6646 217.0833,-115.9145 220.7771,-109.9684"/>
</g>
</g>
</svg>
