<?xml version="1.0" encoding="UTF-8" standalone="no"?>
<!DOCTYPE svg PUBLIC "-//W3C//DTD SVG 1.1//EN"
 "http://www.w3.org/Graphics/SVG/1.1/DTD/svg11.dtd">
<!-- Generated by graphviz version 2.40.1 (20161225.0304)
 -->
<!-- Title: %3 Pages: 1 -->
<svg width="491pt" height="217pt"
 viewBox="0.00 0.00 491.00 217.00" xmlns="http://www.w3.org/2000/svg" xmlns:xlink="http://www.w3.org/1999/xlink">
<g id="graph0" class="graph" transform="scale(1 1) rotate(0) translate(4 213)">
<title>%3</title>
<polygon fill="#ffffff" stroke="transparent" points="-4,4 -4,-213 487,-213 487,4 -4,4"/>
<g id="clust1" class="cluster">
<title>cluster_data</title>
<polygon fill="none" stroke="#000000" points="136,-8 136,-83 206,-83 206,-8 136,-8"/>
<text text-anchor="middle" x="186.5" y="-15.8" font-family="Times,serif" font-size="14.00" fill="#000000">data</text>
</g>
<!-- a -->
<g id="node1" class="node">
<title>a</title>
<ellipse fill="#ffffff" stroke="#000000" cx="27" cy="-160" rx="27" ry="18"/>
<text text-anchor="middle" x="27" y="-156.3" font-family="Times,serif" font-size="14.00" fill="#000000">a</text>
</g>
<!-- obs -->
<g id="node6" class="node">
<title>obs</title>
<ellipse fill="#c0c0c0" stroke="#000000" cx="171" cy="-57" rx="27" ry="18"/>
<text text-anchor="middle" x="171" y="-53.3" font-family="Times,serif" font-size="14.00" fill="#000000">obs</text>
</g>
<!-- a&#45;&gt;obs -->
<g id="edge3" class="edge">
<title>a&#45;&gt;obs</title>
<path fill="none" stroke="#000000" d="M36.6579,-142.9693C43.108,-132.7278 52.3463,-119.9809 63,-111 85.0598,-92.404 114.6164,-78.1951 137.2326,-69.0311"/>
<polygon fill="#000000" stroke="#000000" points="138.7349,-72.2017 146.7702,-65.2963 136.1825,-65.6836 138.7349,-72.2017"/>
</g>
<!-- bA -->
<g id="node2" class="node">
<title>bA</title>
<ellipse fill="#ffffff" stroke="#000000" cx="99" cy="-160" rx="27" ry="18"/>
<text text-anchor="middle" x="99" y="-156.3" font-family="Times,serif" font-size="14.00" fill="#000000">bA</text>
</g>
<!-- bA&#45;&gt;obs -->
<g id="edge2" class="edge">
<title>bA&#45;&gt;obs</title>
<path fill="none" stroke="#000000" d="M110.568,-143.4513C122.2196,-126.7831 140.3361,-100.8664 153.6969,-81.7531"/>
<polygon fill="#000000" stroke="#000000" points="156.6,-83.709 159.4607,-73.5077 150.8627,-79.6985 156.6,-83.709"/>
</g>
<!-- bR -->
<g id="node3" class="node">
<title>bR</title>
<ellipse fill="#ffffff" stroke="#000000" cx="171" cy="-160" rx="27" ry="18"/>
<text text-anchor="middle" x="171" y="-156.3" font-family="Times,serif" font-size="14.00" fill="#000000">bR</text>
</g>
<!-- bR&#45;&gt;obs -->
<g id="edge4" class="edge">
<title>bR&#45;&gt;obs</title>
<path fill="none" stroke="#000000" d="M171,-141.5857C171,-125.9868 171,-103.365 171,-85.4401"/>
<polygon fill="#000000" stroke="#000000" points="174.5001,-85.2549 171,-75.2549 167.5001,-85.2549 174.5001,-85.2549"/>
</g>
<!-- bAR -->
<g id="node4" class="node">
<title>bAR</title>
<ellipse fill="#ffffff" stroke="#000000" cx="243" cy="-160" rx="27.0966" ry="18"/>
<text text-anchor="middle" x="243" y="-156.3" font-family="Times,serif" font-size="14.00" fill="#000000">bAR</text>
</g>
<!-- bAR&#45;&gt;obs -->
<g id="edge5" class="edge">
<title>bAR&#45;&gt;obs</title>
<path fill="none" stroke="#000000" d="M231.432,-143.4513C219.7804,-126.7831 201.6639,-100.8664 188.3031,-81.7531"/>
<polygon fill="#000000" stroke="#000000" points="191.1373,-79.6985 182.5393,-73.5077 185.4,-83.709 191.1373,-79.6985"/>
</g>
<!-- sigma -->
<g id="node5" class="node">
<title>sigma</title>
<ellipse fill="#ffffff" stroke="#000000" cx="321" cy="-160" rx="32.4942" ry="18"/>
<text text-anchor="middle" x="321" y="-156.3" font-family="Times,serif" font-size="14.00" fill="#000000">sigma</text>
</g>
<!-- sigma&#45;&gt;obs -->
<g id="edge1" class="edge">
<title>sigma&#45;&gt;obs</title>
<path fill="none" stroke="#000000" d="M309.1891,-143.0544C301.4595,-132.8449 290.6573,-120.1018 279,-111 256.2586,-93.244 226.7533,-78.9719 204.3302,-69.5698"/>
<polygon fill="#000000" stroke="#000000" points="205.4672,-66.2537 194.8858,-65.7203 202.825,-72.736 205.4672,-66.2537"/>
</g>
<!-- distribution_description_node -->
<g id="node7" class="node">
<title>distribution_description_node</title>
<text text-anchor="start" x="379" y="-193.8" font-family="Times,serif" font-size="14.00" fill="#000000">a ~ Normal</text>
<text text-anchor="start" x="379" y="-178.8" font-family="Times,serif" font-size="14.00" fill="#000000">bA ~ Normal</text>
<text text-anchor="start" x="379" y="-163.8" font-family="Times,serif" font-size="14.00" fill="#000000">bR ~ Normal</text>
<text text-anchor="start" x="379" y="-148.8" font-family="Times,serif" font-size="14.00" fill="#000000">bAR ~ Normal</text>
<text text-anchor="start" x="379" y="-133.8" font-family="Times,serif" font-size="14.00" fill="#000000">sigma ~ Uniform</text>
<text text-anchor="start" x="379" y="-118.8" font-family="Times,serif" font-size="14.00" fill="#000000">obs ~ Normal</text>
</g>
</g>
</svg>
