<?xml version="1.0" encoding="UTF-8" standalone="no"?>
<!DOCTYPE svg PUBLIC "-//W3C//DTD SVG 1.1//EN"
 "http://www.w3.org/Graphics/SVG/1.1/DTD/svg11.dtd">
<!-- Generated by graphviz version 2.40.1 (20161225.0304)
 -->
<!-- Title: %3 Pages: 1 -->
<svg width="442pt" height="217pt"
 viewBox="0.00 0.00 442.00 217.00" xmlns="http://www.w3.org/2000/svg" xmlns:xlink="http://www.w3.org/1999/xlink">
<g id="graph0" class="graph" transform="scale(1 1) rotate(0) translate(4 213)">
<title>%3</title>
<polygon fill="#ffffff" stroke="transparent" points="-4,4 -4,-213 438,-213 438,4 -4,4"/>
<g id="clust1" class="cluster">
<title>cluster_data</title>
<polygon fill="none" stroke="#000000" points="66,-8 66,-83 136,-83 136,-8 66,-8"/>
<text text-anchor="middle" x="116.5" y="-15.8" font-family="Times,serif" font-size="14.00" fill="#000000">data</text>
</g>
<!-- sigma -->
<g id="node1" class="node">
<title>sigma</title>
<polygon fill="#ffffff" stroke="transparent" points="34,-167.5 0,-167.5 0,-152.5 34,-152.5 34,-167.5"/>
<text text-anchor="middle" x="17" y="-156.3" font-family="Times,serif" font-size="14.00" fill="#000000">sigma</text>
</g>
<!-- obs -->
<g id="node6" class="node">
<title>obs</title>
<ellipse fill="#c0c0c0" stroke="#000000" cx="101" cy="-57" rx="27" ry="18"/>
<text text-anchor="middle" x="101" y="-53.3" font-family="Times,serif" font-size="14.00" fill="#000000">obs</text>
</g>
<!-- sigma&#45;&gt;obs -->
<g id="edge1" class="edge">
<title>sigma&#45;&gt;obs</title>
<path fill="none" stroke="#000000" d="M20.1542,-152.2305C24.454,-142.1535 32.7995,-124.2944 43,-111 52.3434,-98.8227 64.5583,-87.0035 75.3674,-77.543"/>
<polygon fill="#000000" stroke="#000000" points="77.9416,-79.9482 83.2884,-70.8014 73.4047,-74.6175 77.9416,-79.9482"/>
</g>
<!-- bA -->
<g id="node2" class="node">
<title>bA</title>
<polygon fill="#ffffff" stroke="transparent" points="69.5,-167.5 52.5,-167.5 52.5,-152.5 69.5,-152.5 69.5,-167.5"/>
<text text-anchor="middle" x="61" y="-156.3" font-family="Times,serif" font-size="14.00" fill="#000000">bA</text>
</g>
<!-- bA&#45;&gt;obs -->
<g id="edge2" class="edge">
<title>bA&#45;&gt;obs</title>
<path fill="none" stroke="#000000" d="M63.724,-152.3304C67.1805,-142.6587 73.371,-125.5361 79,-111 82.4528,-102.0835 86.3526,-92.3957 89.8995,-83.7194"/>
<polygon fill="#000000" stroke="#000000" points="93.1456,-85.0282 93.7115,-74.4485 86.6715,-82.3662 93.1456,-85.0282"/>
</g>
<!-- bAR -->
<g id="node3" class="node">
<title>bAR</title>
<polygon fill="#ffffff" stroke="transparent" points="114,-167.5 88,-167.5 88,-152.5 114,-152.5 114,-167.5"/>
<text text-anchor="middle" x="101" y="-156.3" font-family="Times,serif" font-size="14.00" fill="#000000">bAR</text>
</g>
<!-- bAR&#45;&gt;obs -->
<g id="edge5" class="edge">
<title>bAR&#45;&gt;obs</title>
<path fill="none" stroke="#000000" d="M101,-152.2583C101,-138.2031 101,-107.8456 101,-85.156"/>
<polygon fill="#000000" stroke="#000000" points="104.5001,-85.048 101,-75.048 97.5001,-85.0481 104.5001,-85.048"/>
</g>
<!-- a -->
<g id="node4" class="node">
<title>a</title>
<polygon fill="#ffffff" stroke="transparent" points="139.5,-167.5 132.5,-167.5 132.5,-152.5 139.5,-152.5 139.5,-167.5"/>
<text text-anchor="middle" x="136" y="-156.3" font-family="Times,serif" font-size="14.00" fill="#000000">a</text>
</g>
<!-- a&#45;&gt;obs -->
<g id="edge3" class="edge">
<title>a&#45;&gt;obs</title>
<path fill="none" stroke="#000000" d="M134.2721,-152.2718C132.0227,-142.5397 127.8065,-125.3548 123,-111 119.9641,-101.9331 116.1735,-92.2058 112.5985,-83.5397"/>
<polygon fill="#000000" stroke="#000000" points="115.8132,-82.155 108.7055,-74.2981 109.3622,-84.8725 115.8132,-82.155"/>
</g>
<!-- bR -->
<g id="node5" class="node">
<title>bR</title>
<polygon fill="#ffffff" stroke="transparent" points="174,-167.5 158,-167.5 158,-152.5 174,-152.5 174,-167.5"/>
<text text-anchor="middle" x="166" y="-156.3" font-family="Times,serif" font-size="14.00" fill="#000000">bR</text>
</g>
<!-- bR&#45;&gt;obs -->
<g id="edge4" class="edge">
<title>bR&#45;&gt;obs</title>
<path fill="none" stroke="#000000" d="M164.3239,-152.2986C161.9302,-142.2953 156.9245,-124.5158 149,-111 142.2592,-99.5031 132.8455,-88.2476 124.1387,-79.0136"/>
<polygon fill="#000000" stroke="#000000" points="126.5565,-76.48 117.0654,-71.7715 121.5487,-81.3711 126.5565,-76.48"/>
</g>
<!-- distribution_description_node -->
<g id="node7" class="node">
<title>distribution_description_node</title>
<text text-anchor="start" x="200" y="-193.8" font-family="Times,serif" font-size="14.00" fill="#000000">obs ~ Normal</text>
<text text-anchor="start" x="200" y="-178.8" font-family="Times,serif" font-size="14.00" fill="#000000">a ∈ Real()</text>
<text text-anchor="start" x="200" y="-163.8" font-family="Times,serif" font-size="14.00" fill="#000000">bA ∈ Real()</text>
<text text-anchor="start" x="200" y="-148.8" font-family="Times,serif" font-size="14.00" fill="#000000">bR ∈ Real()</text>
<text text-anchor="start" x="200" y="-133.8" font-family="Times,serif" font-size="14.00" fill="#000000">bAR ∈ Real()</text>
<text text-anchor="start" x="200" y="-118.8" font-family="Times,serif" font-size="14.00" fill="#000000">sigma ∈ GreaterThan(lower_bound=0.0)</text>
</g>
</g>
</svg>
