<?xml version="1.0" encoding="UTF-8" standalone="no"?>
<!DOCTYPE svg PUBLIC "-//W3C//DTD SVG 1.1//EN"
 "http://www.w3.org/Graphics/SVG/1.1/DTD/svg11.dtd">
<!-- Generated by graphviz version 2.40.1 (20161225.0304)
 -->
<!-- Title: %3 Pages: 1 -->
<svg width="166pt" height="182pt"
 viewBox="0.00 0.00 166.00 182.00" xmlns="http://www.w3.org/2000/svg" xmlns:xlink="http://www.w3.org/1999/xlink">
<g id="graph0" class="graph" transform="scale(1 1) rotate(0) translate(4 178)">
<title>%3</title>
<polygon fill="#ffffff" stroke="transparent" points="-4,4 -4,-178 162,-178 162,4 -4,4"/>
<g id="clust1" class="cluster">
<title>cluster_lineages</title>
<polygon fill="none" stroke="#000000" points="8,-91 8,-166 150,-166 150,-91 8,-91"/>
<text text-anchor="middle" x="119" y="-98.8" font-family="Times,serif" font-size="14.00" fill="#000000">lineages</text>
</g>
<g id="clust2" class="cluster">
<title>cluster_time</title>
<polygon fill="none" stroke="#000000" points="44,-8 44,-83 114,-83 114,-8 44,-8"/>
<text text-anchor="middle" x="93.5" y="-15.8" font-family="Times,serif" font-size="14.00" fill="#000000">time</text>
</g>
<!-- rate -->
<g id="node1" class="node">
<title>rate</title>
<ellipse fill="#ffffff" stroke="#000000" cx="115" cy="-140" rx="27" ry="18"/>
<text text-anchor="middle" x="115" y="-136.3" font-family="Times,serif" font-size="14.00" fill="#000000">rate</text>
</g>
<!-- obs -->
<g id="node3" class="node">
<title>obs</title>
<ellipse fill="#c0c0c0" stroke="#000000" cx="79" cy="-57" rx="27" ry="18"/>
<text text-anchor="middle" x="79" y="-53.3" font-family="Times,serif" font-size="14.00" fill="#000000">obs</text>
</g>
<!-- rate&#45;&gt;obs -->
<g id="edge1" class="edge">
<title>rate&#45;&gt;obs</title>
<path fill="none" stroke="#000000" d="M107.3653,-122.3978C102.4641,-111.0977 96.0074,-96.2116 90.4926,-83.4967"/>
<polygon fill="#000000" stroke="#000000" points="93.6904,-82.0737 86.5002,-74.2922 87.2685,-84.8591 93.6904,-82.0737"/>
</g>
<!-- init -->
<g id="node2" class="node">
<title>init</title>
<ellipse fill="#ffffff" stroke="#000000" cx="43" cy="-140" rx="27" ry="18"/>
<text text-anchor="middle" x="43" y="-136.3" font-family="Times,serif" font-size="14.00" fill="#000000">init</text>
</g>
<!-- init&#45;&gt;obs -->
<g id="edge2" class="edge">
<title>init&#45;&gt;obs</title>
<path fill="none" stroke="#000000" d="M50.6347,-122.3978C55.5359,-111.0977 61.9926,-96.2116 67.5074,-83.4967"/>
<polygon fill="#000000" stroke="#000000" points="70.7315,-84.8591 71.4998,-74.2922 64.3096,-82.0737 70.7315,-84.8591"/>
</g>
</g>
</svg>
