<?xml version="1.0" encoding="UTF-8" standalone="no"?>
<!DOCTYPE svg PUBLIC "-//W3C//DTD SVG 1.1//EN"
 "http://www.w3.org/Graphics/SVG/1.1/DTD/svg11.dtd">
<!-- Generated by graphviz version 2.40.1 (20161225.0304)
 -->
<!-- Title: %3 Pages: 1 -->
<svg width="367pt" height="324pt"
 viewBox="0.00 0.00 367.29 324.00" xmlns="http://www.w3.org/2000/svg" xmlns:xlink="http://www.w3.org/1999/xlink">
<g id="graph0" class="graph" transform="scale(1 1) rotate(0) translate(4 320)">
<title>%3</title>
<polygon fill="#ffffff" stroke="transparent" points="-4,4 -4,-320 363.2918,-320 363.2918,4 -4,4"/>
<g id="clust1" class="cluster">
<title>cluster_lineages</title>
<polygon fill="none" stroke="#000000" points="102.7958,-130 102.7958,-308 260.7958,-308 260.7958,-130 102.7958,-130"/>
<text text-anchor="middle" x="229.7958" y="-137.8" font-family="Times,serif" font-size="14.00" fill="#000000">lineages</text>
</g>
<g id="clust2" class="cluster">
<title>cluster_region</title>
<polygon fill="none" stroke="#000000" points="110.7958,-161 110.7958,-236 252.7958,-236 252.7958,-161 110.7958,-161"/>
<text text-anchor="middle" x="226.7958" y="-168.8" font-family="Times,serif" font-size="14.00" fill="#000000">region</text>
</g>
<g id="clust3" class="cluster">
<title>cluster_time</title>
<polygon fill="none" stroke="#000000" points="102.7958,-8 102.7958,-122 188.7958,-122 188.7958,-8 102.7958,-8"/>
<text text-anchor="middle" x="168.2958" y="-15.8" font-family="Times,serif" font-size="14.00" fill="#000000">time</text>
</g>
<g id="clust4" class="cluster">
<title>cluster_region__CLONE</title>
<polygon fill="none" stroke="#000000" points="110.7958,-39 110.7958,-114 180.7958,-114 180.7958,-39 110.7958,-39"/>
<text text-anchor="middle" x="154.7958" y="-46.8" font-family="Times,serif" font-size="14.00" fill="#000000">region</text>
</g>
<!-- rate_scale -->
<g id="node1" class="node">
<title>rate_scale</title>
<ellipse fill="#ffffff" stroke="#000000" cx="46.7958" cy="-282" rx="46.5926" ry="18"/>
<text text-anchor="middle" x="46.7958" y="-278.3" font-family="Times,serif" font-size="14.00" fill="#000000">rate_scale</text>
</g>
<!-- rate -->
<g id="node4" class="node">
<title>rate</title>
<ellipse fill="#ffffff" stroke="#000000" cx="145.7958" cy="-210" rx="27" ry="18"/>
<text text-anchor="middle" x="145.7958" y="-206.3" font-family="Times,serif" font-size="14.00" fill="#000000">rate</text>
</g>
<!-- rate_scale&#45;&gt;rate -->
<g id="edge1" class="edge">
<title>rate_scale&#45;&gt;rate</title>
<path fill="none" stroke="#000000" d="M68.7672,-266.0209C83.6671,-255.1845 103.4465,-240.7995 119.2312,-229.3197"/>
<polygon fill="#000000" stroke="#000000" points="121.5044,-231.9943 127.5332,-223.2819 117.3872,-226.3331 121.5044,-231.9943"/>
</g>
<!-- init_scale -->
<g id="node2" class="node">
<title>init_scale</title>
<ellipse fill="#ffffff" stroke="#000000" cx="313.7958" cy="-282" rx="45.4919" ry="18"/>
<text text-anchor="middle" x="313.7958" y="-278.3" font-family="Times,serif" font-size="14.00" fill="#000000">init_scale</text>
</g>
<!-- init -->
<g id="node5" class="node">
<title>init</title>
<ellipse fill="#ffffff" stroke="#000000" cx="217.7958" cy="-210" rx="27" ry="18"/>
<text text-anchor="middle" x="217.7958" y="-206.3" font-family="Times,serif" font-size="14.00" fill="#000000">init</text>
</g>
<!-- init_scale&#45;&gt;init -->
<g id="edge3" class="edge">
<title>init_scale&#45;&gt;init</title>
<path fill="none" stroke="#000000" d="M292.4903,-266.0209C278.1351,-255.2544 259.1092,-240.985 243.8522,-229.5423"/>
<polygon fill="#000000" stroke="#000000" points="245.9175,-226.7163 235.8175,-223.5162 241.7175,-232.3163 245.9175,-226.7163"/>
</g>
<!-- rate_loc -->
<g id="node3" class="node">
<title>rate_loc</title>
<ellipse fill="#ffffff" stroke="#000000" cx="151.7958" cy="-282" rx="40.0939" ry="18"/>
<text text-anchor="middle" x="151.7958" y="-278.3" font-family="Times,serif" font-size="14.00" fill="#000000">rate_loc</text>
</g>
<!-- rate_loc&#45;&gt;rate -->
<g id="edge2" class="edge">
<title>rate_loc&#45;&gt;rate</title>
<path fill="none" stroke="#000000" d="M150.2818,-263.8314C149.6401,-256.131 148.877,-246.9743 148.1639,-238.4166"/>
<polygon fill="#000000" stroke="#000000" points="151.6487,-238.088 147.3303,-228.4133 144.6729,-238.6694 151.6487,-238.088"/>
</g>
<!-- obs -->
<g id="node6" class="node">
<title>obs</title>
<ellipse fill="#c0c0c0" stroke="#000000" cx="145.7958" cy="-88" rx="27" ry="18"/>
<text text-anchor="middle" x="145.7958" y="-84.3" font-family="Times,serif" font-size="14.00" fill="#000000">obs</text>
</g>
<!-- rate&#45;&gt;obs -->
<g id="edge4" class="edge">
<title>rate&#45;&gt;obs</title>
<path fill="none" stroke="#000000" d="M145.7958,-191.9985C145.7958,-171.9958 145.7958,-139.4427 145.7958,-116.0831"/>
<polygon fill="#000000" stroke="#000000" points="149.2959,-116.0753 145.7958,-106.0754 142.2959,-116.0754 149.2959,-116.0753"/>
</g>
<!-- init&#45;&gt;obs -->
<g id="edge5" class="edge">
<title>init&#45;&gt;obs</title>
<path fill="none" stroke="#000000" d="M211.559,-192.4177C205.2496,-175.7017 194.6135,-150.186 181.7958,-130 177.6196,-123.4229 172.475,-116.7966 167.3951,-110.8127"/>
<polygon fill="#000000" stroke="#000000" points="169.8455,-108.2996 160.6053,-103.116 164.5962,-112.9305 169.8455,-108.2996"/>
</g>
</g>
</svg>
