<?xml version="1.0" encoding="UTF-8" standalone="no"?>
<!DOCTYPE svg PUBLIC "-//W3C//DTD SVG 1.1//EN"
 "http://www.w3.org/Graphics/SVG/1.1/DTD/svg11.dtd">
<!-- Generated by graphviz version 2.40.1 (20161225.0304)
 -->
<!-- Title: %3 Pages: 1 -->
<svg width="174pt" height="308pt"
 viewBox="0.00 0.00 174.00 308.00" xmlns="http://www.w3.org/2000/svg" xmlns:xlink="http://www.w3.org/1999/xlink">
<g id="graph0" class="graph" transform="scale(1 1) rotate(0) translate(4 304)">
<title>%3</title>
<polygon fill="#ffffff" stroke="transparent" points="-4,4 -4,-304 170,-304 170,4 -4,4"/>
<g id="clust1" class="cluster">
<title>cluster_lineages</title>
<polygon fill="none" stroke="#000000" points="8,-130 8,-244 158,-244 158,-130 8,-130"/>
<text text-anchor="middle" x="127" y="-137.8" font-family="Times,serif" font-size="14.00" fill="#000000">lineages</text>
</g>
<g id="clust2" class="cluster">
<title>cluster_region</title>
<polygon fill="none" stroke="#000000" points="80,-161 80,-236 150,-236 150,-161 80,-161"/>
<text text-anchor="middle" x="124" y="-168.8" font-family="Times,serif" font-size="14.00" fill="#000000">region</text>
</g>
<g id="clust3" class="cluster">
<title>cluster_time</title>
<polygon fill="none" stroke="#000000" points="38,-8 38,-122 124,-122 124,-8 38,-8"/>
<text text-anchor="middle" x="103.5" y="-15.8" font-family="Times,serif" font-size="14.00" fill="#000000">time</text>
</g>
<g id="clust4" class="cluster">
<title>cluster_region__CLONE</title>
<polygon fill="none" stroke="#000000" points="46,-39 46,-114 116,-114 116,-39 46,-39"/>
<text text-anchor="middle" x="90" y="-46.8" font-family="Times,serif" font-size="14.00" fill="#000000">region</text>
</g>
<!-- init_scale -->
<g id="node1" class="node">
<title>init_scale</title>
<ellipse fill="#ffffff" stroke="#000000" cx="115" cy="-282" rx="45.4919" ry="18"/>
<text text-anchor="middle" x="115" y="-278.3" font-family="Times,serif" font-size="14.00" fill="#000000">init_scale</text>
</g>
<!-- init -->
<g id="node3" class="node">
<title>init</title>
<ellipse fill="#ffffff" stroke="#000000" cx="115" cy="-210" rx="27" ry="18"/>
<text text-anchor="middle" x="115" y="-206.3" font-family="Times,serif" font-size="14.00" fill="#000000">init</text>
</g>
<!-- init_scale&#45;&gt;init -->
<g id="edge1" class="edge">
<title>init_scale&#45;&gt;init</title>
<path fill="none" stroke="#000000" d="M115,-263.8314C115,-256.131 115,-246.9743 115,-238.4166"/>
<polygon fill="#000000" stroke="#000000" points="118.5001,-238.4132 115,-228.4133 111.5001,-238.4133 118.5001,-238.4132"/>
</g>
<!-- rate -->
<g id="node2" class="node">
<title>rate</title>
<ellipse fill="#ffffff" stroke="#000000" cx="43" cy="-210" rx="27" ry="18"/>
<text text-anchor="middle" x="43" y="-206.3" font-family="Times,serif" font-size="14.00" fill="#000000">rate</text>
</g>
<!-- obs -->
<g id="node4" class="node">
<title>obs</title>
<ellipse fill="#c0c0c0" stroke="#000000" cx="81" cy="-88" rx="27" ry="18"/>
<text text-anchor="middle" x="81" y="-84.3" font-family="Times,serif" font-size="14.00" fill="#000000">obs</text>
</g>
<!-- rate&#45;&gt;obs -->
<g id="edge2" class="edge">
<title>rate&#45;&gt;obs</title>
<path fill="none" stroke="#000000" d="M48.5255,-192.2602C54.8014,-172.1114 65.1181,-138.9892 72.4379,-115.4888"/>
<polygon fill="#000000" stroke="#000000" points="75.8356,-116.3497 75.4678,-105.7613 69.1522,-114.268 75.8356,-116.3497"/>
</g>
<!-- init&#45;&gt;obs -->
<g id="edge3" class="edge">
<title>init&#45;&gt;obs</title>
<path fill="none" stroke="#000000" d="M110.0561,-192.2602C104.4409,-172.1114 95.2101,-138.9892 88.6608,-115.4888"/>
<polygon fill="#000000" stroke="#000000" points="92.006,-114.4545 85.9499,-105.7613 85.263,-116.3338 92.006,-114.4545"/>
</g>
</g>
</svg>
