<?xml version="1.0" encoding="UTF-8" standalone="no"?>
<!DOCTYPE svg PUBLIC "-//W3C//DTD SVG 1.1//EN"
 "http://www.w3.org/Graphics/SVG/1.1/DTD/svg11.dtd">
<!-- Generated by graphviz version 2.40.1 (20161225.0304)
 -->
<!-- Title: %3 Pages: 1 -->
<svg width="475pt" height="157pt"
 viewBox="0.00 0.00 475.00 157.00" xmlns="http://www.w3.org/2000/svg" xmlns:xlink="http://www.w3.org/1999/xlink">
<g id="graph0" class="graph" transform="scale(1 1) rotate(0) translate(4 153)">
<title>%3</title>
<polygon fill="#ffffff" stroke="transparent" points="-4,4 -4,-153 471,-153 471,4 -4,4"/>
<g id="clust1" class="cluster">
<title>cluster_data</title>
<polygon fill="none" stroke="#000000" points="8,-8 8,-83 78,-83 78,-8 8,-8"/>
<text text-anchor="middle" x="58.5" y="-15.8" font-family="Times,serif" font-size="14.00" fill="#000000">data</text>
</g>
<!-- latent_fairness -->
<g id="node1" class="node">
<title>latent_fairness</title>
<polygon fill="#ffffff" stroke="transparent" points="82.5,-137.5 3.5,-137.5 3.5,-122.5 82.5,-122.5 82.5,-137.5"/>
<text text-anchor="middle" x="43" y="-126.3" font-family="Times,serif" font-size="14.00" fill="#000000">latent_fairness</text>
</g>
<!-- obs -->
<g id="node2" class="node">
<title>obs</title>
<ellipse fill="#c0c0c0" stroke="#000000" cx="43" cy="-57" rx="27" ry="18"/>
<text text-anchor="middle" x="43" y="-53.3" font-family="Times,serif" font-size="14.00" fill="#000000">obs</text>
</g>
<!-- latent_fairness&#45;&gt;obs -->
<g id="edge1" class="edge">
<title>latent_fairness&#45;&gt;obs</title>
<path fill="none" stroke="#000000" d="M43,-122.4627C43,-113.7244 43,-98.8051 43,-85.4145"/>
<polygon fill="#000000" stroke="#000000" points="46.5001,-85.1504 43,-75.1505 39.5001,-85.1505 46.5001,-85.1504"/>
</g>
<!-- distribution_description_node -->
<g id="node3" class="node">
<title>distribution_description_node</title>
<text text-anchor="start" x="109" y="-133.8" font-family="Times,serif" font-size="14.00" fill="#000000">obs ~ Bernoulli</text>
<text text-anchor="start" x="109" y="-118.8" font-family="Times,serif" font-size="14.00" fill="#000000">latent_fairness ∈ Interval(lower_bound=0.0, upper_bound=1.0)</text>
</g>
</g>
</svg>
