<?xml version="1.0" encoding="UTF-8" standalone="no"?>
<!DOCTYPE svg PUBLIC "-//W3C//DTD SVG 1.1//EN"
 "http://www.w3.org/Graphics/SVG/1.1/DTD/svg11.dtd">
<!-- Generated by graphviz version 2.40.1 (20161225.0304)
 -->
<!-- Title: %3 Pages: 1 -->
<svg width="284pt" height="157pt"
 viewBox="0.00 0.00 284.24 157.00" xmlns="http://www.w3.org/2000/svg" xmlns:xlink="http://www.w3.org/1999/xlink">
<g id="graph0" class="graph" transform="scale(1 1) rotate(0) translate(4 153)">
<title>%3</title>
<polygon fill="#ffffff" stroke="transparent" points="-4,4 -4,-153 280.2445,-153 280.2445,4 -4,4"/>
<g id="clust1" class="cluster">
<title>cluster_data</title>
<polygon fill="none" stroke="#000000" points="26.7445,-8 26.7445,-83 96.7445,-83 96.7445,-8 26.7445,-8"/>
<text text-anchor="middle" x="77.2445" y="-15.8" font-family="Times,serif" font-size="14.00" fill="#000000">data</text>
</g>
<!-- latent_fairness -->
<g id="node1" class="node">
<title>latent_fairness</title>
<ellipse fill="#ffffff" stroke="#000000" cx="61.7445" cy="-130" rx="61.99" ry="18"/>
<text text-anchor="middle" x="61.7445" y="-126.3" font-family="Times,serif" font-size="14.00" fill="#000000">latent_fairness</text>
</g>
<!-- obs -->
<g id="node2" class="node">
<title>obs</title>
<ellipse fill="#c0c0c0" stroke="#000000" cx="61.7445" cy="-57" rx="27" ry="18"/>
<text text-anchor="middle" x="61.7445" y="-53.3" font-family="Times,serif" font-size="14.00" fill="#000000">obs</text>
</g>
<!-- latent_fairness&#45;&gt;obs -->
<g id="edge1" class="edge">
<title>latent_fairness&#45;&gt;obs</title>
<path fill="none" stroke="#000000" d="M61.7445,-111.9551C61.7445,-103.8828 61.7445,-94.1764 61.7445,-85.1817"/>
<polygon fill="#000000" stroke="#000000" points="65.2446,-85.0903 61.7445,-75.0904 58.2446,-85.0904 65.2446,-85.0903"/>
</g>
<!-- distribution_description_node -->
<g id="node3" class="node">
<title>distribution_description_node</title>
<text text-anchor="start" x="149.2445" y="-133.8" font-family="Times,serif" font-size="14.00" fill="#000000">latent_fairness ~ Beta</text>
<text text-anchor="start" x="149.2445" y="-118.8" font-family="Times,serif" font-size="14.00" fill="#000000">obs ~ Bernoulli</text>
</g>
</g>
</svg>
