<?xml version="1.0" encoding="UTF-8" standalone="no"?>
<!DOCTYPE svg PUBLIC "-//W3C//DTD SVG 1.1//EN"
 "http://www.w3.org/Graphics/SVG/1.1/DTD/svg11.dtd">
<!-- Generated by graphviz version 2.40.1 (20161225.0304)
 -->
<!-- Title: %3 Pages: 1 -->
<svg width="201pt" height="293pt"
 viewBox="0.00 0.00 201.00 293.00" xmlns="http://www.w3.org/2000/svg" xmlns:xlink="http://www.w3.org/1999/xlink">
<g id="graph0" class="graph" transform="scale(1 1) rotate(0) translate(4 289)">
<title>%3</title>
<polygon fill="#ffffff" stroke="transparent" points="-4,4 -4,-289 197,-289 197,4 -4,4"/>
<g id="clust1" class="cluster">
<title>cluster_annotator</title>
<polygon fill="none" stroke="#000000" points="8,-202 8,-277 150,-277 150,-202 8,-202"/>
<text text-anchor="middle" x="115.5" y="-209.8" font-family="Times,serif" font-size="14.00" fill="#000000">annotator</text>
</g>
<g id="clust2" class="cluster">
<title>cluster_item</title>
<polygon fill="none" stroke="#000000" points="35,-8 35,-194 185,-194 185,-8 35,-8"/>
<text text-anchor="middle" x="164.5" y="-15.8" font-family="Times,serif" font-size="14.00" fill="#000000">item</text>
</g>
<g id="clust3" class="cluster">
<title>cluster_position</title>
<polygon fill="none" stroke="#000000" points="107,-39 107,-186 177,-186 177,-39 107,-39"/>
<text text-anchor="middle" x="146" y="-46.8" font-family="Times,serif" font-size="14.00" fill="#000000">position</text>
</g>
<!-- ε -->
<g id="node1" class="node">
<title>ε</title>
<ellipse fill="#ffffff" stroke="#000000" cx="43" cy="-251" rx="27" ry="18"/>
<text text-anchor="middle" x="43" y="-247.3" font-family="Times,serif" font-size="14.00" fill="#000000">ε</text>
</g>
<!-- y -->
<g id="node5" class="node">
<title>y</title>
<ellipse fill="#c0c0c0" stroke="#000000" cx="142" cy="-88" rx="27" ry="18"/>
<text text-anchor="middle" x="142" y="-84.3" font-family="Times,serif" font-size="14.00" fill="#000000">y</text>
</g>
<!-- ε&#45;&gt;y -->
<g id="edge3" class="edge">
<title>ε&#45;&gt;y</title>
<path fill="none" stroke="#000000" d="M34.8494,-233.6516C25.4263,-210.8095 13.3308,-170.245 31,-142 47.2544,-116.0167 79.9901,-102.2116 105.7196,-95.0872"/>
<polygon fill="#000000" stroke="#000000" points="106.7112,-98.4465 115.5405,-92.5904 104.9864,-91.6624 106.7112,-98.4465"/>
</g>
<!-- θ -->
<g id="node2" class="node">
<title>θ</title>
<ellipse fill="#ffffff" stroke="#000000" cx="115" cy="-251" rx="27" ry="18"/>
<text text-anchor="middle" x="115" y="-247.3" font-family="Times,serif" font-size="14.00" fill="#000000">θ</text>
</g>
<!-- s -->
<g id="node4" class="node">
<title>s</title>
<ellipse fill="#ffffff" stroke="#000000" cx="142" cy="-160" rx="27" ry="18"/>
<text text-anchor="middle" x="142" y="-156.3" font-family="Times,serif" font-size="14.00" fill="#000000">s</text>
</g>
<!-- θ&#45;&gt;s -->
<g id="edge1" class="edge">
<title>θ&#45;&gt;s</title>
<path fill="none" stroke="#000000" d="M120.3343,-233.0213C124.1803,-220.0591 129.4425,-202.3234 133.8177,-187.5772"/>
<polygon fill="#000000" stroke="#000000" points="137.1876,-188.5238 136.6768,-177.9413 130.4768,-186.5327 137.1876,-188.5238"/>
</g>
<!-- c -->
<g id="node3" class="node">
<title>c</title>
<ellipse fill="#ffffff" stroke="#000000" cx="70" cy="-160" rx="27" ry="18"/>
<text text-anchor="middle" x="70" y="-156.3" font-family="Times,serif" font-size="14.00" fill="#000000">c</text>
</g>
<!-- c&#45;&gt;y -->
<g id="edge2" class="edge">
<title>c&#45;&gt;y</title>
<path fill="none" stroke="#000000" d="M85.2693,-144.7307C95.197,-134.803 108.3153,-121.6847 119.4363,-110.5637"/>
<polygon fill="#000000" stroke="#000000" points="122.1564,-112.7933 126.7527,-103.2473 117.2067,-107.8436 122.1564,-112.7933"/>
</g>
<!-- s&#45;&gt;y -->
<g id="edge4" class="edge">
<title>s&#45;&gt;y</title>
<path fill="none" stroke="#000000" d="M142,-141.8314C142,-134.131 142,-124.9743 142,-116.4166"/>
<polygon fill="#000000" stroke="#000000" points="145.5001,-116.4132 142,-106.4133 138.5001,-116.4133 145.5001,-116.4132"/>
</g>
</g>
</svg>
