<?xml version="1.0" encoding="UTF-8" standalone="no"?>
<!DOCTYPE svg PUBLIC "-//W3C//DTD SVG 1.1//EN"
 "http://www.w3.org/Graphics/SVG/1.1/DTD/svg11.dtd">
<!-- Generated by graphviz version 8.1.0 (0)
 -->
<!-- Pages: 1 -->
<svg width="272pt" height="292pt"
 viewBox="0.00 0.00 272.00 291.75" xmlns="http://www.w3.org/2000/svg" xmlns:xlink="http://www.w3.org/1999/xlink">
<g id="graph0" class="graph" transform="scale(1 1) rotate(0) translate(4 287.75)">
<polygon fill="white" stroke="none" points="-4,4 -4,-287.75 268,-287.75 268,4 -4,4"/>
<g id="clust1" class="cluster">
<title>cluster_annotator</title>
<polygon fill="none" stroke="black" points="8,-198.5 8,-275.75 150,-275.75 150,-198.5 8,-198.5"/>
<text text-anchor="middle" x="107.12" y="-206.45" font-family="Times,serif" font-size="14.00">annotator</text>
</g>
<g id="clust2" class="cluster">
<title>cluster_item</title>
<polygon fill="none" stroke="black" points="158,-8 158,-275.75 256,-275.75 256,-8 158,-8"/>
<text text-anchor="middle" x="231.88" y="-15.95" font-family="Times,serif" font-size="14.00">item</text>
</g>
<g id="clust3" class="cluster">
<title>cluster_position</title>
<polygon fill="none" stroke="black" points="166,-41.25 166,-190.5 239,-190.5 239,-41.25 166,-41.25"/>
<text text-anchor="middle" x="202.5" y="-49.2" font-family="Times,serif" font-size="14.00">position</text>
</g>
<!-- ε -->
<g id="node1" class="node">
<title>ε</title>
<ellipse fill="white" stroke="black" cx="43" cy="-249.75" rx="27" ry="18"/>
<text text-anchor="middle" x="43" y="-245.07" font-family="Times,serif" font-size="14.00">ε</text>
</g>
<!-- y -->
<g id="node4" class="node">
<title>y</title>
<ellipse fill="gray" stroke="black" cx="201" cy="-92.5" rx="27" ry="18"/>
<text text-anchor="middle" x="201" y="-87.83" font-family="Times,serif" font-size="14.00">y</text>
</g>
<!-- ε&#45;&gt;y -->
<g id="edge1" class="edge">
<title>ε&#45;&gt;y</title>
<path fill="none" stroke="black" d="M53.12,-232.62C59.89,-222.38 69.29,-209.11 79,-198.5 109.03,-165.67 148.9,-133.06 174.75,-113.09"/>
<polygon fill="black" stroke="black" points="176.46,-115.44 182.27,-106.58 172.2,-109.87 176.46,-115.44"/>
</g>
<!-- θ -->
<g id="node2" class="node">
<title>θ</title>
<ellipse fill="white" stroke="black" cx="115" cy="-249.75" rx="27" ry="18"/>
<text text-anchor="middle" x="115" y="-245.07" font-family="Times,serif" font-size="14.00">θ</text>
</g>
<!-- s -->
<g id="node3" class="node">
<title>s</title>
<ellipse fill="white" stroke="black" cx="201" cy="-164.5" rx="27" ry="18"/>
<text text-anchor="middle" x="201" y="-159.82" font-family="Times,serif" font-size="14.00">s</text>
</g>
<!-- θ&#45;&gt;s -->
<g id="edge2" class="edge">
<title>θ&#45;&gt;s</title>
<path fill="none" stroke="black" d="M125.51,-232.81C132.8,-222.4 143.13,-208.86 154,-198.5 159.76,-193.01 166.49,-187.74 173.03,-183.09"/>
<polygon fill="black" stroke="black" points="174.43,-185.68 180.72,-177.15 170.48,-179.9 174.43,-185.68"/>
</g>
<!-- s&#45;&gt;y -->
<g id="edge4" class="edge">
<title>s&#45;&gt;y</title>
<path fill="none" stroke="black" d="M201,-146.2C201,-138.74 201,-129.82 201,-121.47"/>
<polygon fill="black" stroke="black" points="204.5,-121.6 201,-111.6 197.5,-121.6 204.5,-121.6"/>
</g>
<!-- c -->
<g id="node5" class="node">
<title>c</title>
<ellipse fill="white" stroke="black" cx="221" cy="-249.75" rx="27" ry="18"/>
<text text-anchor="middle" x="221" y="-245.07" font-family="Times,serif" font-size="14.00">c</text>
</g>
<!-- c&#45;&gt;y -->
<g id="edge3" class="edge">
<title>c&#45;&gt;y</title>
<path fill="none" stroke="black" d="M228.11,-232.13C235.86,-211.62 246.03,-175.87 237,-146.5 233.78,-136.04 227.72,-125.79 221.47,-117.13"/>
<polygon fill="black" stroke="black" points="223.63,-115.2 214.75,-109.43 218.1,-119.48 223.63,-115.2"/>
</g>
</g>
</svg>
