<?xml version="1.0" encoding="UTF-8" standalone="no"?>
<!DOCTYPE svg PUBLIC "-//W3C//DTD SVG 1.1//EN"
 "http://www.w3.org/Graphics/SVG/1.1/DTD/svg11.dtd">
<!-- Generated by graphviz version 4.0.0 (0)
 -->
<!-- Pages: 1 -->
<svg width="110pt" height="285pt"
 viewBox="0.00 0.00 110.00 285.00" xmlns="http://www.w3.org/2000/svg" xmlns:xlink="http://www.w3.org/1999/xlink">
<g id="graph0" class="graph" transform="scale(1 1) rotate(0) translate(4 281)">
<polygon fill="white" stroke="transparent" points="-4,4 -4,-281 106,-281 106,4 -4,4"/>
<g id="clust1" class="cluster">
<title>cluster_plate1</title>
<polygon fill="none" stroke="black" points="8,-91 8,-269 94,-269 94,-91 8,-91"/>
<text text-anchor="middle" x="69" y="-98.8" font-family="Times,serif" font-size="14.00">plate1</text>
</g>
<g id="clust2" class="cluster">
<title>cluster_plate2</title>
<polygon fill="none" stroke="black" points="16,-122 16,-197 86,-197 86,-122 16,-122"/>
<text text-anchor="middle" x="61" y="-129.8" font-family="Times,serif" font-size="14.00">plate2</text>
</g>
<g id="clust3" class="cluster">
<title>cluster_plate2__CLONE</title>
<polygon fill="none" stroke="black" points="16,-8 16,-83 86,-83 86,-8 16,-8"/>
<text text-anchor="middle" x="61" y="-15.8" font-family="Times,serif" font-size="14.00">plate2</text>
</g>
<!-- x -->
<g id="node1" class="node">
<title>x</title>
<ellipse fill="white" stroke="black" cx="51" cy="-243" rx="27" ry="18"/>
<text text-anchor="middle" x="51" y="-239.3" font-family="Times,serif" font-size="14.00">x</text>
</g>
<!-- y -->
<g id="node2" class="node">
<title>y</title>
<ellipse fill="white" stroke="black" cx="51" cy="-171" rx="27" ry="18"/>
<text text-anchor="middle" x="51" y="-167.3" font-family="Times,serif" font-size="14.00">y</text>
</g>
<!-- x&#45;&gt;y -->
<g id="edge1" class="edge">
<title>x&#45;&gt;y</title>
<path fill="none" stroke="black" d="M51,-224.7C51,-216.98 51,-207.71 51,-199.11"/>
<polygon fill="black" stroke="black" points="54.5,-199.1 51,-189.1 47.5,-199.1 54.5,-199.1"/>
</g>
<!-- z -->
<g id="node3" class="node">
<title>z</title>
<ellipse fill="grey" stroke="black" cx="51" cy="-57" rx="27" ry="18"/>
<text text-anchor="middle" x="51" y="-53.3" font-family="Times,serif" font-size="14.00">z</text>
</g>
<!-- y&#45;&gt;z -->
<g id="edge2" class="edge">
<title>y&#45;&gt;z</title>
<path fill="none" stroke="black" d="M51,-152.99C51,-135.06 51,-106.56 51,-85.44"/>
<polygon fill="black" stroke="black" points="54.5,-85.17 51,-75.17 47.5,-85.17 54.5,-85.17"/>
</g>
</g>
</svg>
