<?xml version="1.0" encoding="UTF-8" standalone="no"?>
<!DOCTYPE svg PUBLIC "-//W3C//DTD SVG 1.1//EN"
 "http://www.w3.org/Graphics/SVG/1.1/DTD/svg11.dtd">
<!-- Generated by graphviz version 8.1.0 (0)
 -->
<!-- Pages: 1 -->
<svg width="563pt" height="483pt"
 viewBox="0.00 0.00 563.38 483.25" xmlns="http://www.w3.org/2000/svg" xmlns:xlink="http://www.w3.org/1999/xlink">
<g id="graph0" class="graph" transform="scale(1 1) rotate(0) translate(4 479.25)">
<polygon fill="white" stroke="none" points="-4,4 -4,-479.25 559.38,-479.25 559.38,4 -4,4"/>
<g id="clust1" class="cluster">
<title>cluster_N</title>
<polygon fill="none" stroke="black" points="8,-8 8,-229.25 140,-229.25 140,-8 8,-8"/>
<text text-anchor="middle" x="126" y="-15.95" font-family="Times,serif" font-size="14.00">N</text>
</g>
<!-- x -->
<g id="node1" class="node">
<title>x</title>
<ellipse fill="white" stroke="black" cx="201" cy="-275.25" rx="27" ry="18"/>
<text text-anchor="middle" x="201" y="-270.57" font-family="Times,serif" font-size="14.00">x</text>
</g>
<!-- y -->
<g id="node2" class="node">
<title>y</title>
<ellipse fill="white" stroke="black" cx="231" cy="-203.25" rx="27" ry="18"/>
<text text-anchor="middle" x="231" y="-198.57" font-family="Times,serif" font-size="14.00">y</text>
</g>
<!-- x&#45;&gt;y -->
<g id="edge1" class="edge">
<title>x&#45;&gt;y</title>
<path fill="none" stroke="black" d="M208.11,-257.66C211.55,-249.64 215.76,-239.82 219.62,-230.79"/>
<polygon fill="black" stroke="black" points="223.22,-232.29 223.94,-221.72 216.79,-229.53 223.22,-232.29"/>
</g>
<!-- z_loc -->
<g id="node7" class="node">
<title>z_loc</title>
<ellipse fill="gray" stroke="black" stroke-dasharray="5,2" cx="95" cy="-131.25" rx="35.42" ry="18"/>
<text text-anchor="middle" x="95" y="-126.58" font-family="Times,serif" font-size="14.00">z_loc</text>
</g>
<!-- x&#45;&gt;z_loc -->
<g id="edge3" class="edge">
<title>x&#45;&gt;z_loc</title>
<path fill="none" stroke="black" d="M190.94,-258.09C179.46,-239.93 159.82,-209.8 141,-185.25 133.47,-175.43 124.68,-165.06 116.81,-156.12"/>
<polygon fill="black" stroke="black" points="119.88,-154.19 110.62,-149.06 114.66,-158.85 119.88,-154.19"/>
</g>
<!-- y_deterministic -->
<g id="node3" class="node">
<title>y_deterministic</title>
<ellipse fill="gray" stroke="black" stroke-dasharray="5,2" cx="237" cy="-131.25" rx="88.56" ry="18"/>
<text text-anchor="middle" x="237" y="-126.58" font-family="Times,serif" font-size="14.00">y_deterministic</text>
</g>
<!-- y&#45;&gt;y_deterministic -->
<g id="edge2" class="edge">
<title>y&#45;&gt;y_deterministic</title>
<path fill="none" stroke="black" d="M232.48,-184.95C233.12,-177.49 233.89,-168.57 234.6,-160.22"/>
<polygon fill="black" stroke="black" points="238.17,-160.62 235.53,-150.35 231.19,-160.02 238.17,-160.62"/>
</g>
<!-- z -->
<g id="node8" class="node">
<title>z</title>
<ellipse fill="gray" stroke="black" cx="100" cy="-59.25" rx="27" ry="18"/>
<text text-anchor="middle" x="100" y="-54.58" font-family="Times,serif" font-size="14.00">z</text>
</g>
<!-- y_deterministic&#45;&gt;z -->
<g id="edge5" class="edge">
<title>y_deterministic&#45;&gt;z</title>
<path fill="none" stroke="black" d="M205.23,-114.01C182.74,-102.53 152.76,-87.21 130.56,-75.86"/>
<polygon fill="black" stroke="black" points="132.45,-72.39 121.96,-70.96 129.27,-78.62 132.45,-72.39"/>
</g>
<!-- sigma -->
<g id="node4" class="node">
<title>sigma</title>
<polygon fill="white" stroke="none" points="197.38,-410.88 154.62,-410.88 154.62,-393.62 197.38,-393.62 197.38,-410.88"/>
<text text-anchor="middle" x="176" y="-397.57" font-family="Times,serif" font-size="14.00">sigma</text>
</g>
<!-- sigma&#45;&gt;x -->
<g id="edge7" class="edge">
<title>sigma&#45;&gt;x</title>
<path fill="none" stroke="black" d="M177.49,-393.81C180.94,-376.54 189.64,-333.06 195.43,-304.1"/>
<polygon fill="black" stroke="black" points="199.04,-304.92 197.56,-294.43 192.17,-303.55 199.04,-304.92"/>
</g>
<!-- mu -->
<g id="node5" class="node">
<title>mu</title>
<polygon fill="white" stroke="none" points="238.25,-410.88 215.75,-410.88 215.75,-393.62 238.25,-393.62 238.25,-410.88"/>
<text text-anchor="middle" x="227" y="-397.57" font-family="Times,serif" font-size="14.00">mu</text>
</g>
<!-- mu&#45;&gt;x -->
<g id="edge8" class="edge">
<title>mu&#45;&gt;x</title>
<path fill="none" stroke="black" d="M225.45,-393.81C221.86,-376.54 212.82,-333.06 206.79,-304.1"/>
<polygon fill="black" stroke="black" points="210.04,-303.5 204.57,-294.43 203.18,-304.93 210.04,-303.5"/>
</g>
<!-- eps_z_loc -->
<g id="node6" class="node">
<title>eps_z_loc</title>
<ellipse fill="white" stroke="black" cx="74" cy="-203.25" rx="57.52" ry="18"/>
<text text-anchor="middle" x="74" y="-198.57" font-family="Times,serif" font-size="14.00">eps_z_loc</text>
</g>
<!-- eps_z_loc&#45;&gt;z_loc -->
<g id="edge4" class="edge">
<title>eps_z_loc&#45;&gt;z_loc</title>
<path fill="none" stroke="black" d="M79.19,-184.95C81.48,-177.32 84.23,-168.17 86.78,-159.65"/>
<polygon fill="black" stroke="black" points="90.35,-160.94 89.87,-150.35 83.64,-158.93 90.35,-160.94"/>
</g>
<!-- z_loc&#45;&gt;z -->
<g id="edge6" class="edge">
<title>z_loc&#45;&gt;z</title>
<path fill="none" stroke="black" d="M96.24,-112.95C96.77,-105.49 97.41,-96.57 98,-88.22"/>
<polygon fill="black" stroke="black" points="101.56,-88.58 98.78,-78.35 94.57,-88.08 101.56,-88.58"/>
</g>
<!-- distribution_description_node -->
<g id="node9" class="node">
<title>distribution_description_node</title>
<text text-anchor="start" x="264.62" y="-457.95" font-family="Times,serif" font-size="14.00">x ~ Normal</text>
<text text-anchor="start" x="264.62" y="-440.7" font-family="Times,serif" font-size="14.00">y ~ Normal</text>
<text text-anchor="start" x="264.62" y="-423.45" font-family="Times,serif" font-size="14.00">y_deterministic ~ Deterministic</text>
<text text-anchor="start" x="264.62" y="-406.2" font-family="Times,serif" font-size="14.00">eps_z_loc ~ Normal</text>
<text text-anchor="start" x="264.62" y="-388.95" font-family="Times,serif" font-size="14.00">z_loc ~ Deterministic</text>
<text text-anchor="start" x="264.62" y="-371.7" font-family="Times,serif" font-size="14.00">z ~ Normal</text>
<text text-anchor="start" x="264.62" y="-354.45" font-family="Times,serif" font-size="14.00">sigma : GreaterThan(lower_bound=0.0)</text>
<text text-anchor="start" x="264.62" y="-337.2" font-family="Times,serif" font-size="14.00">mu : Real()</text>
</g>
</g>
</svg>
