<?xml version="1.0" encoding="UTF-8" standalone="no"?>
<!DOCTYPE svg PUBLIC "-//W3C//DTD SVG 1.1//EN"
 "http://www.w3.org/Graphics/SVG/1.1/DTD/svg11.dtd">
<!-- Generated by graphviz version 2.40.1 (20161225.0304)
 -->
<!-- Title: %3 Pages: 1 -->
<svg width="211pt" height="244pt"
 viewBox="0.00 0.00 210.50 244.00" xmlns="http://www.w3.org/2000/svg" xmlns:xlink="http://www.w3.org/1999/xlink">
<g id="graph0" class="graph" transform="scale(1 1) rotate(0) translate(4 240)">
<title>%3</title>
<polygon fill="#ffffff" stroke="transparent" points="-4,4 -4,-240 206.5,-240 206.5,4 -4,4"/>
<g id="clust1" class="cluster">
<title>cluster_N</title>
<polygon fill="none" stroke="#000000" points="19,-8 19,-83 89,-83 89,-8 19,-8"/>
<text text-anchor="middle" x="75.5" y="-15.8" font-family="Times,serif" font-size="14.00" fill="#000000">N</text>
</g>
<!-- x -->
<g id="node1" class="node">
<title>x</title>
<ellipse fill="#ffffff" stroke="#000000" cx="54" cy="-209.5" rx="27" ry="18"/>
<text text-anchor="middle" x="54" y="-205.8" font-family="Times,serif" font-size="14.00" fill="#000000">x</text>
</g>
<!-- y -->
<g id="node2" class="node">
<title>y</title>
<ellipse fill="#ffffff" stroke="#000000" cx="27" cy="-129" rx="27" ry="18"/>
<text text-anchor="middle" x="27" y="-125.3" font-family="Times,serif" font-size="14.00" fill="#000000">y</text>
</g>
<!-- x&#45;&gt;y -->
<g id="edge1" class="edge">
<title>x&#45;&gt;y</title>
<path fill="none" stroke="#000000" d="M48.0078,-191.6344C44.5472,-181.3166 40.1214,-168.1213 36.2253,-156.5052"/>
<polygon fill="#000000" stroke="#000000" points="39.4738,-155.1835 32.9754,-146.8156 32.8371,-157.4096 39.4738,-155.1835"/>
</g>
<!-- z -->
<g id="node3" class="node">
<title>z</title>
<ellipse fill="#c0c0c0" stroke="#000000" cx="54" cy="-57" rx="27" ry="18"/>
<text text-anchor="middle" x="54" y="-53.3" font-family="Times,serif" font-size="14.00" fill="#000000">z</text>
</g>
<!-- x&#45;&gt;z -->
<g id="edge2" class="edge">
<title>x&#45;&gt;z</title>
<path fill="none" stroke="#000000" d="M57.2848,-191.5227C59.3883,-179.0726 61.9191,-162.0897 63,-147 64.1432,-131.0409 64.3197,-126.9455 63,-111 62.2945,-102.4753 60.9727,-93.2703 59.5551,-84.917"/>
<polygon fill="#000000" stroke="#000000" points="62.9689,-84.1258 57.7474,-74.9069 56.0803,-85.3698 62.9689,-84.1258"/>
</g>
<!-- y&#45;&gt;z -->
<g id="edge3" class="edge">
<title>y&#45;&gt;z</title>
<path fill="none" stroke="#000000" d="M33.6742,-111.2022C36.7476,-103.0064 40.4616,-93.1024 43.8695,-84.0145"/>
<polygon fill="#000000" stroke="#000000" points="47.1685,-85.1853 47.4026,-74.593 40.6142,-82.7274 47.1685,-85.1853"/>
</g>
<!-- distribution_description_node -->
<g id="node4" class="node">
<title>distribution_description_node</title>
<text text-anchor="start" x="107.5" y="-220.8" font-family="Times,serif" font-size="14.00" fill="#000000">x ~ Normal</text>
<text text-anchor="start" x="107.5" y="-205.8" font-family="Times,serif" font-size="14.00" fill="#000000">y ~ LogNormal</text>
<text text-anchor="start" x="107.5" y="-190.8" font-family="Times,serif" font-size="14.00" fill="#000000">z ~ Normal</text>
</g>
</g>
</svg>
