<?xml version="1.0" encoding="UTF-8" standalone="no"?>
<!DOCTYPE svg PUBLIC "-//W3C//DTD SVG 1.1//EN"
 "http://www.w3.org/Graphics/SVG/1.1/DTD/svg11.dtd">
<!-- Generated by graphviz version 3.0.0 (20220226.1711)
 -->
<!-- Pages: 1 -->
<svg width="166pt" height="171pt"
 viewBox="0.00 0.00 166.00 171.00" xmlns="http://www.w3.org/2000/svg" xmlns:xlink="http://www.w3.org/1999/xlink">
<g id="graph0" class="graph" transform="scale(1 1) rotate(0) translate(4 167)">
<polygon fill="white" stroke="transparent" points="-4,4 -4,-167 162,-167 162,4 -4,4"/>
<g id="clust1" class="cluster">
<title>cluster_N</title>
<polygon fill="none" stroke="black" points="8,-8 8,-155 150,-155 150,-8 8,-8"/>
<text text-anchor="middle" x="137" y="-15.8" font-family="Times,serif" font-size="14.00">N</text>
</g>
<!-- z -->
<g id="node1" class="node">
<title>z</title>
<ellipse fill="white" stroke="black" cx="115" cy="-129" rx="27" ry="18"/>
<text text-anchor="middle" x="115" y="-125.3" font-family="Times,serif" font-size="14.00">z</text>
</g>
<!-- x -->
<g id="node3" class="node">
<title>x</title>
<ellipse fill="gray" stroke="black" cx="79" cy="-57" rx="27" ry="18"/>
<text text-anchor="middle" x="79" y="-53.3" font-family="Times,serif" font-size="14.00">x</text>
</g>
<!-- z&#45;&gt;x -->
<g id="edge2" class="edge">
<title>z&#45;&gt;x</title>
<path fill="none" stroke="black" d="M106.65,-111.76C102.29,-103.28 96.85,-92.71 91.96,-83.2"/>
<polygon fill="black" stroke="black" points="94.99,-81.44 87.3,-74.15 88.77,-84.64 94.99,-81.44"/>
</g>
<!-- y -->
<g id="node2" class="node">
<title>y</title>
<defs>
<linearGradient id="l_0" gradientUnits="userSpaceOnUse" x1="16" y1="-129" x2="70" y2="-129" >
<stop offset="0" style="stop-color:gray;stop-opacity:1.;"/>
<stop offset="1" style="stop-color:white;stop-opacity:1.;"/>
</linearGradient>
</defs>
<ellipse fill="url(#l_0)" stroke="black" cx="43" cy="-129" rx="27" ry="18"/>
<text text-anchor="middle" x="43" y="-125.3" font-family="Times,serif" font-size="14.00">y</text>
</g>
<!-- y&#45;&gt;x -->
<g id="edge1" class="edge">
<title>y&#45;&gt;x</title>
<path fill="none" stroke="black" d="M51.35,-111.76C55.71,-103.28 61.15,-92.71 66.04,-83.2"/>
<polygon fill="black" stroke="black" points="69.23,-84.64 70.7,-74.15 63.01,-81.44 69.23,-84.64"/>
</g>
</g>
</svg>
