<?xml version="1.0" encoding="UTF-8" standalone="no"?>
<!DOCTYPE svg PUBLIC "-//W3C//DTD SVG 1.1//EN"
 "http://www.w3.org/Graphics/SVG/1.1/DTD/svg11.dtd">
<!-- Generated by graphviz version 4.0.0 (0)
 -->
<!-- Pages: 1 -->
<svg width="348pt" height="346pt"
 viewBox="0.00 0.00 347.50 346.00" xmlns="http://www.w3.org/2000/svg" xmlns:xlink="http://www.w3.org/1999/xlink">
<g id="graph0" class="graph" transform="scale(1 1) rotate(0) translate(4 342)">
<polygon fill="white" stroke="transparent" points="-4,4 -4,-342 343.5,-342 343.5,4 -4,4"/>
<g id="clust1" class="cluster">
<title>cluster_N</title>
<polygon fill="none" stroke="black" points="20,-8 20,-83 90,-83 90,-8 20,-8"/>
<text text-anchor="middle" x="77" y="-15.8" font-family="Times,serif" font-size="14.00">N</text>
</g>
<!-- x -->
<g id="node1" class="node">
<title>x</title>
<ellipse fill="white" stroke="black" cx="54" cy="-201" rx="27" ry="18"/>
<text text-anchor="middle" x="54" y="-197.3" font-family="Times,serif" font-size="14.00">x</text>
</g>
<!-- y -->
<g id="node2" class="node">
<title>y</title>
<ellipse fill="white" stroke="black" cx="27" cy="-129" rx="27" ry="18"/>
<text text-anchor="middle" x="27" y="-125.3" font-family="Times,serif" font-size="14.00">y</text>
</g>
<!-- x&#45;&gt;y -->
<g id="edge1" class="edge">
<title>x&#45;&gt;y</title>
<path fill="none" stroke="black" d="M47.6,-183.41C44.49,-175.34 40.67,-165.43 37.17,-156.35"/>
<polygon fill="black" stroke="black" points="40.4,-155.03 33.54,-146.96 33.87,-157.55 40.4,-155.03"/>
</g>
<!-- z -->
<g id="node5" class="node">
<title>z</title>
<ellipse fill="grey" stroke="black" cx="55" cy="-57" rx="27" ry="18"/>
<text text-anchor="middle" x="55" y="-53.3" font-family="Times,serif" font-size="14.00">z</text>
</g>
<!-- x&#45;&gt;z -->
<g id="edge2" class="edge">
<title>x&#45;&gt;z</title>
<path fill="none" stroke="black" d="M57.65,-182.91C59.68,-172.57 61.98,-159.09 63,-147 64.34,-131.06 64.2,-126.96 63,-111 62.36,-102.52 61.16,-93.34 59.88,-85.04"/>
<polygon fill="black" stroke="black" points="63.32,-84.41 58.25,-75.11 56.42,-85.55 63.32,-84.41"/>
</g>
<!-- y&#45;&gt;z -->
<g id="edge3" class="edge">
<title>y&#45;&gt;z</title>
<path fill="none" stroke="black" d="M33.64,-111.41C36.91,-103.22 40.94,-93.14 44.62,-83.95"/>
<polygon fill="black" stroke="black" points="47.95,-85.05 48.41,-74.47 41.45,-82.45 47.95,-85.05"/>
</g>
<!-- sigma -->
<g id="node3" class="node">
<title>sigma</title>
<polygon fill="white" stroke="transparent" points="49,-304 15,-304 15,-289 49,-289 49,-304"/>
<text text-anchor="middle" x="32" y="-292.8" font-family="Times,serif" font-size="14.00">sigma</text>
</g>
<!-- sigma&#45;&gt;x -->
<g id="edge4" class="edge">
<title>sigma&#45;&gt;x</title>
<path fill="none" stroke="black" d="M33.58,-288.78C36.5,-276.38 42.87,-249.32 47.72,-228.69"/>
<polygon fill="black" stroke="black" points="51.14,-229.42 50.03,-218.88 44.33,-227.81 51.14,-229.42"/>
</g>
<!-- mu -->
<g id="node4" class="node">
<title>mu</title>
<polygon fill="white" stroke="transparent" points="86.5,-304 67.5,-304 67.5,-289 86.5,-289 86.5,-304"/>
<text text-anchor="middle" x="77" y="-292.8" font-family="Times,serif" font-size="14.00">mu</text>
</g>
<!-- mu&#45;&gt;x -->
<g id="edge5" class="edge">
<title>mu&#45;&gt;x</title>
<path fill="none" stroke="black" d="M75.35,-288.78C72.3,-276.38 65.64,-249.32 60.56,-228.69"/>
<polygon fill="black" stroke="black" points="63.94,-227.76 58.15,-218.88 57.14,-229.43 63.94,-227.76"/>
</g>
<!-- distribution_description_node -->
<g id="node6" class="node">
<title>distribution_description_node</title>
<text text-anchor="start" x="112.5" y="-322.8" font-family="Times,serif" font-size="14.00">x ~ Normal</text>
<text text-anchor="start" x="112.5" y="-307.8" font-family="Times,serif" font-size="14.00">y ~ LogNormal</text>
<text text-anchor="start" x="112.5" y="-292.8" font-family="Times,serif" font-size="14.00">z ~ Normal</text>
<text text-anchor="start" x="112.5" y="-277.8" font-family="Times,serif" font-size="14.00">sigma : GreaterThan(lower_bound=0.0)</text>
<text text-anchor="start" x="112.5" y="-262.8" font-family="Times,serif" font-size="14.00">mu : Real()</text>
</g>
</g>
</svg>
