<?xml version="1.0" encoding="UTF-8" standalone="no"?>
<!DOCTYPE svg PUBLIC "-//W3C//DTD SVG 1.1//EN"
 "http://www.w3.org/Graphics/SVG/1.1/DTD/svg11.dtd">
<!-- Generated by graphviz version 8.1.0 (0)
 -->
<!-- Pages: 1 -->
<svg width="166pt" height="173pt"
 viewBox="0.00 0.00 166.00 173.25" xmlns="http://www.w3.org/2000/svg" xmlns:xlink="http://www.w3.org/1999/xlink">
<g id="graph0" class="graph" transform="scale(1 1) rotate(0) translate(4 169.25)">
<polygon fill="white" stroke="none" points="-4,4 -4,-169.25 162,-169.25 162,4 -4,4"/>
<g id="clust1" class="cluster">
<title>cluster_N</title>
<polygon fill="none" stroke="black" points="8,-8 8,-157.25 150,-157.25 150,-8 8,-8"/>
<text text-anchor="middle" x="136" y="-15.95" font-family="Times,serif" font-size="14.00">N</text>
</g>
<!-- z -->
<g id="node1" class="node">
<title>z</title>
<ellipse fill="white" stroke="black" cx="115" cy="-131.25" rx="27" ry="18"/>
<text text-anchor="middle" x="115" y="-126.58" font-family="Times,serif" font-size="14.00">z</text>
</g>
<!-- x -->
<g id="node3" class="node">
<title>x</title>
<ellipse fill="gray" stroke="black" cx="79" cy="-59.25" rx="27" ry="18"/>
<text text-anchor="middle" x="79" y="-54.58" font-family="Times,serif" font-size="14.00">x</text>
</g>
<!-- z&#45;&gt;x -->
<g id="edge1" class="edge">
<title>z&#45;&gt;x</title>
<path fill="none" stroke="black" d="M106.65,-114.01C102.38,-105.71 97.08,-95.4 92.27,-86.04"/>
<polygon fill="black" stroke="black" points="94.99,-84.69 87.3,-77.4 88.77,-87.89 94.99,-84.69"/>
</g>
<!-- y -->
<g id="node2" class="node">
<title>y</title>
<defs>
<linearGradient id="node2_l_0" gradientUnits="userSpaceOnUse" x1="16" y1="-131.25" x2="70" y2="-131.25" >
<stop offset="0" style="stop-color:gray;stop-opacity:1.;"/>
<stop offset="1" style="stop-color:white;stop-opacity:1.;"/>
</linearGradient>
</defs>
<ellipse fill="url(#node2_l_0)" stroke="black" cx="43" cy="-131.25" rx="27" ry="18"/>
<text text-anchor="middle" x="43" y="-126.58" font-family="Times,serif" font-size="14.00">y</text>
</g>
<!-- y&#45;&gt;x -->
<g id="edge2" class="edge">
<title>y&#45;&gt;x</title>
<path fill="none" stroke="black" d="M51.35,-114.01C55.62,-105.71 60.92,-95.4 65.73,-86.04"/>
<polygon fill="black" stroke="black" points="69.23,-87.89 70.7,-77.4 63.01,-84.69 69.23,-87.89"/>
</g>
</g>
</svg>
