<?xml version="1.0" encoding="UTF-8" standalone="no"?>
<!DOCTYPE svg PUBLIC "-//W3C//DTD SVG 1.1//EN"
 "http://www.w3.org/Graphics/SVG/1.1/DTD/svg11.dtd">
<!-- Generated by graphviz version 8.1.0 (0)
 -->
<!-- Pages: 1 -->
<svg width="106pt" height="283pt"
 viewBox="0.00 0.00 106.00 282.50" xmlns="http://www.w3.org/2000/svg" xmlns:xlink="http://www.w3.org/1999/xlink">
<g id="graph0" class="graph" transform="scale(1 1) rotate(0) translate(4 278.5)">
<polygon fill="white" stroke="none" points="-4,4 -4,-278.5 102,-278.5 102,4 -4,4"/>
<g id="clust1" class="cluster">
<title>cluster_N</title>
<polygon fill="none" stroke="black" points="20,-8 20,-85.25 90,-85.25 90,-8 20,-8"/>
<text text-anchor="middle" x="76" y="-15.95" font-family="Times,serif" font-size="14.00">N</text>
</g>
<!-- x -->
<g id="node1" class="node">
<title>x</title>
<ellipse fill="white" stroke="black" cx="54" cy="-203.25" rx="27" ry="18"/>
<text text-anchor="middle" x="54" y="-198.57" font-family="Times,serif" font-size="14.00">x</text>
</g>
<!-- y -->
<g id="node2" class="node">
<title>y</title>
<ellipse fill="white" stroke="black" cx="27" cy="-131.25" rx="27" ry="18"/>
<text text-anchor="middle" x="27" y="-126.58" font-family="Times,serif" font-size="14.00">y</text>
</g>
<!-- x&#45;&gt;y -->
<g id="edge1" class="edge">
<title>x&#45;&gt;y</title>
<path fill="none" stroke="black" d="M47.46,-185.3C44.45,-177.48 40.79,-168 37.41,-159.23"/>
<polygon fill="black" stroke="black" points="40.34,-158.11 33.48,-150.04 33.81,-160.63 40.34,-158.11"/>
</g>
<!-- z -->
<g id="node5" class="node">
<title>z</title>
<ellipse fill="gray" stroke="black" cx="55" cy="-59.25" rx="27" ry="18"/>
<text text-anchor="middle" x="55" y="-54.58" font-family="Times,serif" font-size="14.00">z</text>
</g>
<!-- x&#45;&gt;z -->
<g id="edge2" class="edge">
<title>x&#45;&gt;z</title>
<path fill="none" stroke="black" d="M57.65,-185.16C59.68,-174.82 61.98,-161.34 63,-149.25 64.34,-133.31 64.2,-129.21 63,-113.25 62.38,-105.05 61.24,-96.2 60.01,-88.12"/>
<polygon fill="black" stroke="black" points="63.32,-87.67 58.25,-78.36 56.41,-88.8 63.32,-87.67"/>
</g>
<!-- y&#45;&gt;z -->
<g id="edge3" class="edge">
<title>y&#45;&gt;z</title>
<path fill="none" stroke="black" d="M33.64,-113.66C36.84,-105.64 40.77,-95.82 44.38,-86.79"/>
<polygon fill="black" stroke="black" points="47.95,-88.3 48.41,-77.72 41.45,-85.7 47.95,-88.3"/>
</g>
<!-- sigma -->
<g id="node3" class="node">
<title>sigma</title>
<polygon fill="white" stroke="none" points="50.38,-274.5 7.62,-274.5 7.62,-257.25 50.38,-257.25 50.38,-274.5"/>
<text text-anchor="middle" x="29" y="-261.2" font-family="Times,serif" font-size="14.00">sigma</text>
</g>
<!-- sigma&#45;&gt;x -->
<g id="edge4" class="edge">
<title>sigma&#45;&gt;x</title>
<path fill="none" stroke="black" d="M32.07,-257.44C34.8,-250.8 38.99,-240.66 42.97,-231"/>
<polygon fill="black" stroke="black" points="46.55,-232.49 47.13,-221.91 40.08,-229.82 46.55,-232.49"/>
</g>
<!-- mu -->
<g id="node4" class="node">
<title>mu</title>
<polygon fill="white" stroke="none" points="91.25,-274.5 68.75,-274.5 68.75,-257.25 91.25,-257.25 91.25,-274.5"/>
<text text-anchor="middle" x="80" y="-261.2" font-family="Times,serif" font-size="14.00">mu</text>
</g>
<!-- mu&#45;&gt;x -->
<g id="edge5" class="edge">
<title>mu&#45;&gt;x</title>
<path fill="none" stroke="black" d="M76.81,-257.44C73.96,-250.8 69.61,-240.66 65.47,-231"/>
<polygon fill="black" stroke="black" points="68.3,-229.72 61.14,-221.91 61.87,-232.48 68.3,-229.72"/>
</g>
</g>
</svg>
