<?xml version="1.0" encoding="UTF-8" standalone="no"?>
<!DOCTYPE svg PUBLIC "-//W3C//DTD SVG 1.1//EN"
 "http://www.w3.org/Graphics/SVG/1.1/DTD/svg11.dtd">
<!-- Generated by graphviz version 8.1.0 (0)
 -->
<!-- Pages: 1 -->
<svg width="107pt" height="229pt"
 viewBox="0.00 0.00 107.00 229.25" xmlns="http://www.w3.org/2000/svg" xmlns:xlink="http://www.w3.org/1999/xlink">
<g id="graph0" class="graph" transform="scale(1 1) rotate(0) translate(4 225.25)">
<polygon fill="white" stroke="none" points="-4,4 -4,-225.25 103,-225.25 103,4 -4,4"/>
<g id="clust1" class="cluster">
<title>cluster_N</title>
<polygon fill="none" stroke="black" points="17,-8 17,-85.25 91,-85.25 91,-8 17,-8"/>
<text text-anchor="middle" x="77" y="-15.95" font-family="Times,serif" font-size="14.00">N</text>
</g>
<!-- m -->
<g id="node1" class="node">
<title>m</title>
<ellipse fill="white" stroke="black" cx="54" cy="-203.25" rx="27" ry="18"/>
<text text-anchor="middle" x="54" y="-198.57" font-family="Times,serif" font-size="14.00">m</text>
</g>
<!-- sd -->
<g id="node2" class="node">
<title>sd</title>
<ellipse fill="white" stroke="black" cx="27" cy="-131.25" rx="27" ry="18"/>
<text text-anchor="middle" x="27" y="-126.58" font-family="Times,serif" font-size="14.00">sd</text>
</g>
<!-- m&#45;&gt;sd -->
<g id="edge1" class="edge">
<title>m&#45;&gt;sd</title>
<path fill="none" stroke="black" d="M47.46,-185.3C44.45,-177.48 40.79,-168 37.41,-159.23"/>
<polygon fill="black" stroke="black" points="40.34,-158.11 33.48,-150.04 33.81,-160.63 40.34,-158.11"/>
</g>
<!-- obs -->
<g id="node3" class="node">
<title>obs</title>
<ellipse fill="gray" stroke="black" cx="54" cy="-59.25" rx="28.59" ry="18"/>
<text text-anchor="middle" x="54" y="-54.58" font-family="Times,serif" font-size="14.00">obs</text>
</g>
<!-- m&#45;&gt;obs -->
<g id="edge2" class="edge">
<title>m&#45;&gt;obs</title>
<path fill="none" stroke="black" d="M57.65,-185.16C59.68,-174.82 61.98,-161.34 63,-149.25 64.34,-133.31 64.34,-129.19 63,-113.25 62.31,-105.03 61.02,-96.17 59.63,-88.1"/>
<polygon fill="black" stroke="black" points="62.91,-87.54 57.65,-78.34 56.02,-88.81 62.91,-87.54"/>
</g>
<!-- sd&#45;&gt;obs -->
<g id="edge3" class="edge">
<title>sd&#45;&gt;obs</title>
<path fill="none" stroke="black" d="M33.54,-113.3C36.55,-105.48 40.21,-96 43.59,-87.23"/>
<polygon fill="black" stroke="black" points="47.19,-88.63 47.52,-78.04 40.66,-86.11 47.19,-88.63"/>
</g>
</g>
</svg>
