<?xml version="1.0" encoding="UTF-8" standalone="no"?>
<!DOCTYPE svg PUBLIC "-//W3C//DTD SVG 1.1//EN"
 "http://www.w3.org/Graphics/SVG/1.1/DTD/svg11.dtd">
<!-- Generated by graphviz version 2.40.1 (20161225.0304)
 -->
<!-- Title: %3 Pages: 1 -->
<svg width="362pt" height="346pt"
 viewBox="0.00 0.00 362.00 346.00" xmlns="http://www.w3.org/2000/svg" xmlns:xlink="http://www.w3.org/1999/xlink">
<g id="graph0" class="graph" transform="scale(1 1) rotate(0) translate(4 342)">
<title>%3</title>
<polygon fill="#ffffff" stroke="transparent" points="-4,4 -4,-342 358,-342 358,4 -4,4"/>
<g id="clust1" class="cluster">
<title>cluster_N</title>
<polygon fill="none" stroke="#000000" points="20,-8 20,-83 90,-83 90,-8 20,-8"/>
<text text-anchor="middle" x="77" y="-15.8" font-family="Times,serif" font-size="14.00" fill="#000000">N</text>
</g>
<!-- x -->
<g id="node1" class="node">
<title>x</title>
<ellipse fill="#ffffff" stroke="#000000" cx="54" cy="-201" rx="27" ry="18"/>
<text text-anchor="middle" x="54" y="-197.3" font-family="Times,serif" font-size="14.00" fill="#000000">x</text>
</g>
<!-- y -->
<g id="node2" class="node">
<title>y</title>
<ellipse fill="#ffffff" stroke="#000000" cx="27" cy="-129" rx="27" ry="18"/>
<text text-anchor="middle" x="27" y="-125.3" font-family="Times,serif" font-size="14.00" fill="#000000">y</text>
</g>
<!-- x&#45;&gt;y -->
<g id="edge1" class="edge">
<title>x&#45;&gt;y</title>
<path fill="none" stroke="#000000" d="M47.3258,-183.2022C44.2524,-175.0064 40.5384,-165.1024 37.1305,-156.0145"/>
<polygon fill="#000000" stroke="#000000" points="40.3858,-154.7274 33.5974,-146.593 33.8315,-157.1853 40.3858,-154.7274"/>
</g>
<!-- z -->
<g id="node5" class="node">
<title>z</title>
<ellipse fill="#c0c0c0" stroke="#000000" cx="55" cy="-57" rx="27" ry="18"/>
<text text-anchor="middle" x="55" y="-53.3" font-family="Times,serif" font-size="14.00" fill="#000000">z</text>
</g>
<!-- x&#45;&gt;z -->
<g id="edge2" class="edge">
<title>x&#45;&gt;z</title>
<path fill="none" stroke="#000000" d="M57.7474,-183.0931C59.7466,-172.6241 61.9966,-159.1241 63,-147 64.3197,-131.0545 64.1756,-126.9568 63,-111 62.3733,-102.4935 61.1985,-93.2939 59.9384,-84.9399"/>
<polygon fill="#000000" stroke="#000000" points="63.3718,-84.2455 58.3315,-74.9264 56.4602,-85.3546 63.3718,-84.2455"/>
</g>
<!-- y&#45;&gt;z -->
<g id="edge3" class="edge">
<title>y&#45;&gt;z</title>
<path fill="none" stroke="#000000" d="M33.778,-111.5708C36.9872,-103.3187 40.8935,-93.2738 44.4758,-84.0623"/>
<polygon fill="#000000" stroke="#000000" points="47.8248,-85.1069 48.1874,-74.5182 41.3008,-82.5697 47.8248,-85.1069"/>
</g>
<!-- mu -->
<g id="node3" class="node">
<title>mu</title>
<polygon fill="#ffffff" stroke="transparent" points="41.5,-304 22.5,-304 22.5,-289 41.5,-289 41.5,-304"/>
<text text-anchor="middle" x="32" y="-292.8" font-family="Times,serif" font-size="14.00" fill="#000000">mu</text>
</g>
<!-- mu&#45;&gt;x -->
<g id="edge4" class="edge">
<title>mu&#45;&gt;x</title>
<path fill="none" stroke="#000000" d="M33.8004,-288.6848C36.7852,-275.7278 42.8976,-249.1945 47.6208,-228.6914"/>
<polygon fill="#000000" stroke="#000000" points="51.0398,-229.4408 49.8741,-218.9103 44.2185,-227.8693 51.0398,-229.4408"/>
</g>
<!-- sigma -->
<g id="node4" class="node">
<title>sigma</title>
<polygon fill="#ffffff" stroke="transparent" points="94,-304 60,-304 60,-289 94,-289 94,-304"/>
<text text-anchor="middle" x="77" y="-292.8" font-family="Times,serif" font-size="14.00" fill="#000000">sigma</text>
</g>
<!-- sigma&#45;&gt;x -->
<g id="edge5" class="edge">
<title>sigma&#45;&gt;x</title>
<path fill="none" stroke="#000000" d="M75.1178,-288.6848C71.9973,-275.7278 65.6071,-249.1945 60.6691,-228.6914"/>
<polygon fill="#000000" stroke="#000000" points="64.0577,-227.8128 58.3135,-218.9103 57.2523,-229.4518 64.0577,-227.8128"/>
</g>
<!-- distribution_description_node -->
<g id="node6" class="node">
<title>distribution_description_node</title>
<text text-anchor="start" x="120" y="-322.8" font-family="Times,serif" font-size="14.00" fill="#000000">x ~ Normal</text>
<text text-anchor="start" x="120" y="-307.8" font-family="Times,serif" font-size="14.00" fill="#000000">y ~ LogNormal</text>
<text text-anchor="start" x="120" y="-292.8" font-family="Times,serif" font-size="14.00" fill="#000000">z ~ Normal</text>
<text text-anchor="start" x="120" y="-277.8" font-family="Times,serif" font-size="14.00" fill="#000000">sigma ∈ GreaterThan(lower_bound=0.0)</text>
<text text-anchor="start" x="120" y="-262.8" font-family="Times,serif" font-size="14.00" fill="#000000">mu ∈ Real()</text>
</g>
</g>
</svg>
