<?xml version="1.0" encoding="UTF-8" standalone="no"?>
<!DOCTYPE svg PUBLIC "-//W3C//DTD SVG 1.1//EN"
 "http://www.w3.org/Graphics/SVG/1.1/DTD/svg11.dtd">
<!-- Generated by graphviz version 8.1.0 (0)
 -->
<!-- Pages: 1 -->
<svg width="202pt" height="300pt"
 viewBox="0.00 0.00 202.00 299.75" xmlns="http://www.w3.org/2000/svg" xmlns:xlink="http://www.w3.org/1999/xlink">
<g id="graph0" class="graph" transform="scale(1 1) rotate(0) translate(4 295.75)">
<polygon fill="white" stroke="none" points="-4,4 -4,-295.75 198,-295.75 198,4 -4,4"/>
<g id="clust1" class="cluster">
<title>cluster_annotator</title>
<polygon fill="none" stroke="black" points="8,-206.5 8,-283.75 150,-283.75 150,-206.5 8,-206.5"/>
<text text-anchor="middle" x="107.12" y="-214.45" font-family="Times,serif" font-size="14.00">annotator</text>
</g>
<g id="clust2" class="cluster">
<title>cluster_item</title>
<polygon fill="none" stroke="black" points="35,-8 35,-198.5 186,-198.5 186,-8 35,-8"/>
<text text-anchor="middle" x="161.88" y="-15.95" font-family="Times,serif" font-size="14.00">item</text>
</g>
<g id="clust3" class="cluster">
<title>cluster_position</title>
<polygon fill="none" stroke="black" points="105,-41.25 105,-190.5 178,-190.5 178,-41.25 105,-41.25"/>
<text text-anchor="middle" x="141.5" y="-49.2" font-family="Times,serif" font-size="14.00">position</text>
</g>
<!-- ε -->
<g id="node1" class="node">
<title>ε</title>
<ellipse fill="white" stroke="black" cx="43" cy="-257.75" rx="27" ry="18"/>
<text text-anchor="middle" x="43" y="-253.07" font-family="Times,serif" font-size="14.00">ε</text>
</g>
<!-- y -->
<g id="node5" class="node">
<title>y</title>
<ellipse fill="gray" stroke="black" cx="140" cy="-92.5" rx="27" ry="18"/>
<text text-anchor="middle" x="140" y="-87.83" font-family="Times,serif" font-size="14.00">y</text>
</g>
<!-- ε&#45;&gt;y -->
<g id="edge2" class="edge">
<title>ε&#45;&gt;y</title>
<path fill="none" stroke="black" d="M35.27,-240.37C25.72,-217.51 12.82,-175.55 31,-146.5 46.75,-121.33 78.26,-107.8 103.36,-100.73"/>
<polygon fill="black" stroke="black" points="104.2,-103.88 113.02,-98 102.46,-97.09 104.2,-103.88"/>
</g>
<!-- θ -->
<g id="node2" class="node">
<title>θ</title>
<ellipse fill="white" stroke="black" cx="115" cy="-257.75" rx="27" ry="18"/>
<text text-anchor="middle" x="115" y="-253.07" font-family="Times,serif" font-size="14.00">θ</text>
</g>
<!-- s -->
<g id="node4" class="node">
<title>s</title>
<ellipse fill="white" stroke="black" cx="142" cy="-164.5" rx="27" ry="18"/>
<text text-anchor="middle" x="142" y="-159.82" font-family="Times,serif" font-size="14.00">s</text>
</g>
<!-- θ&#45;&gt;s -->
<g id="edge1" class="edge">
<title>θ&#45;&gt;s</title>
<path fill="none" stroke="black" d="M120.08,-239.59C123.96,-226.46 129.4,-208.1 133.88,-192.94"/>
<polygon fill="black" stroke="black" points="137.46,-194.17 136.94,-183.59 130.75,-192.18 137.46,-194.17"/>
</g>
<!-- c -->
<g id="node3" class="node">
<title>c</title>
<ellipse fill="white" stroke="black" cx="70" cy="-164.5" rx="27" ry="18"/>
<text text-anchor="middle" x="70" y="-159.82" font-family="Times,serif" font-size="14.00">c</text>
</g>
<!-- c&#45;&gt;y -->
<g id="edge3" class="edge">
<title>c&#45;&gt;y</title>
<path fill="none" stroke="black" d="M84.5,-149C94.17,-139.33 107.06,-126.44 117.98,-115.52"/>
<polygon fill="black" stroke="black" points="119.92,-118.53 124.51,-108.99 114.97,-113.58 119.92,-118.53"/>
</g>
<!-- s&#45;&gt;y -->
<g id="edge4" class="edge">
<title>s&#45;&gt;y</title>
<path fill="none" stroke="black" d="M141.51,-146.2C141.29,-138.74 141.04,-129.82 140.8,-121.47"/>
<polygon fill="black" stroke="black" points="144.27,-121.5 140.49,-111.6 137.28,-121.7 144.27,-121.5"/>
</g>
</g>
</svg>
