<?xml version="1.0" encoding="UTF-8" standalone="no"?>
<!DOCTYPE svg PUBLIC "-//W3C//DTD SVG 1.1//EN"
 "http://www.w3.org/Graphics/SVG/1.1/DTD/svg11.dtd">
<!-- Generated by graphviz version 4.0.0 (0)
 -->
<!-- Pages: 1 -->
<svg width="105pt" height="227pt"
 viewBox="0.00 0.00 105.00 227.00" xmlns="http://www.w3.org/2000/svg" xmlns:xlink="http://www.w3.org/1999/xlink">
<g id="graph0" class="graph" transform="scale(1 1) rotate(0) translate(4 223)">
<polygon fill="white" stroke="transparent" points="-4,4 -4,-223 101,-223 101,4 -4,4"/>
<g id="clust1" class="cluster">
<title>cluster_N</title>
<polygon fill="none" stroke="black" points="19,-8 19,-83 89,-83 89,-8 19,-8"/>
<text text-anchor="middle" x="76" y="-15.8" font-family="Times,serif" font-size="14.00">N</text>
</g>
<!-- m -->
<g id="node1" class="node">
<title>m</title>
<ellipse fill="white" stroke="black" cx="54" cy="-201" rx="27" ry="18"/>
<text text-anchor="middle" x="54" y="-197.3" font-family="Times,serif" font-size="14.00">m</text>
</g>
<!-- sd -->
<g id="node2" class="node">
<title>sd</title>
<ellipse fill="white" stroke="black" cx="27" cy="-129" rx="27" ry="18"/>
<text text-anchor="middle" x="27" y="-125.3" font-family="Times,serif" font-size="14.00">sd</text>
</g>
<!-- m&#45;&gt;sd -->
<g id="edge1" class="edge">
<title>m&#45;&gt;sd</title>
<path fill="none" stroke="black" d="M47.6,-183.41C44.49,-175.34 40.67,-165.43 37.17,-156.35"/>
<polygon fill="black" stroke="black" points="40.4,-155.03 33.54,-146.96 33.87,-157.55 40.4,-155.03"/>
</g>
<!-- obs -->
<g id="node3" class="node">
<title>obs</title>
<ellipse fill="grey" stroke="black" cx="54" cy="-57" rx="27" ry="18"/>
<text text-anchor="middle" x="54" y="-53.3" font-family="Times,serif" font-size="14.00">obs</text>
</g>
<!-- m&#45;&gt;obs -->
<g id="edge2" class="edge">
<title>m&#45;&gt;obs</title>
<path fill="none" stroke="black" d="M57.65,-182.91C59.68,-172.57 61.98,-159.09 63,-147 64.34,-131.06 64.34,-126.94 63,-111 62.28,-102.5 60.93,-93.31 59.49,-85.01"/>
<polygon fill="black" stroke="black" points="62.91,-84.29 57.65,-75.09 56.03,-85.56 62.91,-84.29"/>
</g>
<!-- sd&#45;&gt;obs -->
<g id="edge3" class="edge">
<title>sd&#45;&gt;obs</title>
<path fill="none" stroke="black" d="M33.4,-111.41C36.51,-103.34 40.33,-93.43 43.83,-84.35"/>
<polygon fill="black" stroke="black" points="47.13,-85.55 47.46,-74.96 40.6,-83.03 47.13,-85.55"/>
</g>
</g>
</svg>
