<?xml version="1.0" encoding="UTF-8" standalone="no"?>
<!DOCTYPE svg PUBLIC "-//W3C//DTD SVG 1.1//EN"
 "http://www.w3.org/Graphics/SVG/1.1/DTD/svg11.dtd">
<!-- Generated by graphviz version 2.40.1 (20161225.0304)
 -->
<!-- Title: %3 Pages: 1 -->
<svg width="272pt" height="285pt"
 viewBox="0.00 0.00 272.00 285.00" xmlns="http://www.w3.org/2000/svg" xmlns:xlink="http://www.w3.org/1999/xlink">
<g id="graph0" class="graph" transform="scale(1 1) rotate(0) translate(4 281)">
<title>%3</title>
<polygon fill="#ffffff" stroke="transparent" points="-4,4 -4,-281 268,-281 268,4 -4,4"/>
<g id="clust1" class="cluster">
<title>cluster_annotator</title>
<polygon fill="none" stroke="#000000" points="8,-194 8,-269 150,-269 150,-194 8,-194"/>
<text text-anchor="middle" x="116" y="-201.8" font-family="Times,serif" font-size="14.00" fill="#000000">annotator</text>
</g>
<g id="clust2" class="cluster">
<title>cluster_item</title>
<polygon fill="none" stroke="#000000" points="158,-8 158,-269 256,-269 256,-8 158,-8"/>
<text text-anchor="middle" x="235.5" y="-15.8" font-family="Times,serif" font-size="14.00" fill="#000000">item</text>
</g>
<g id="clust3" class="cluster">
<title>cluster_position</title>
<polygon fill="none" stroke="#000000" points="166,-39 166,-186 236,-186 236,-39 166,-39"/>
<text text-anchor="middle" x="206" y="-46.8" font-family="Times,serif" font-size="14.00" fill="#000000">position</text>
</g>
<!-- ε -->
<g id="node1" class="node">
<title>ε</title>
<ellipse fill="#ffffff" stroke="#000000" cx="43" cy="-243" rx="27" ry="18"/>
<text text-anchor="middle" x="43" y="-239.3" font-family="Times,serif" font-size="14.00" fill="#000000">ε</text>
</g>
<!-- y -->
<g id="node4" class="node">
<title>y</title>
<ellipse fill="#c0c0c0" stroke="#000000" cx="201" cy="-88" rx="27" ry="18"/>
<text text-anchor="middle" x="201" y="-84.3" font-family="Times,serif" font-size="14.00" fill="#000000">y</text>
</g>
<!-- ε&#45;&gt;y -->
<g id="edge1" class="edge">
<title>ε&#45;&gt;y</title>
<path fill="none" stroke="#000000" d="M53.82,-226.4083C60.5627,-216.5699 69.7008,-204.0918 79,-194 109.2359,-161.187 148.9839,-128.2375 174.7593,-107.9828"/>
<polygon fill="#000000" stroke="#000000" points="177.1917,-110.5247 182.9309,-101.619 172.8906,-105.0019 177.1917,-110.5247"/>
</g>
<!-- θ -->
<g id="node2" class="node">
<title>θ</title>
<ellipse fill="#ffffff" stroke="#000000" cx="115" cy="-243" rx="27" ry="18"/>
<text text-anchor="middle" x="115" y="-239.3" font-family="Times,serif" font-size="14.00" fill="#000000">θ</text>
</g>
<!-- s -->
<g id="node3" class="node">
<title>s</title>
<ellipse fill="#ffffff" stroke="#000000" cx="201" cy="-160" rx="27" ry="18"/>
<text text-anchor="middle" x="201" y="-156.3" font-family="Times,serif" font-size="14.00" fill="#000000">s</text>
</g>
<!-- θ&#45;&gt;s -->
<g id="edge2" class="edge">
<title>θ&#45;&gt;s</title>
<path fill="none" stroke="#000000" d="M126.281,-226.6249C133.5766,-216.6301 143.6211,-203.9122 154,-194 159.7081,-188.5485 166.3264,-183.2482 172.7625,-178.5175"/>
<polygon fill="#000000" stroke="#000000" points="175.1828,-181.0925 181.3236,-172.4588 171.139,-175.3786 175.1828,-181.0925"/>
</g>
<!-- s&#45;&gt;y -->
<g id="edge4" class="edge">
<title>s&#45;&gt;y</title>
<path fill="none" stroke="#000000" d="M201,-141.8314C201,-134.131 201,-124.9743 201,-116.4166"/>
<polygon fill="#000000" stroke="#000000" points="204.5001,-116.4132 201,-106.4133 197.5001,-116.4133 204.5001,-116.4132"/>
</g>
<!-- c -->
<g id="node5" class="node">
<title>c</title>
<ellipse fill="#ffffff" stroke="#000000" cx="221" cy="-243" rx="27" ry="18"/>
<text text-anchor="middle" x="221" y="-239.3" font-family="Times,serif" font-size="14.00" fill="#000000">c</text>
</g>
<!-- c&#45;&gt;y -->
<g id="edge3" class="edge">
<title>c&#45;&gt;y</title>
<path fill="none" stroke="#000000" d="M228.4359,-225.5206C236.0514,-205.1224 245.643,-170.5459 237,-142 233.7339,-131.2127 227.5236,-120.6108 221.1687,-111.6963"/>
<polygon fill="#000000" stroke="#000000" points="223.9513,-109.5732 215.1229,-103.7156 218.3715,-113.8001 223.9513,-109.5732"/>
</g>
</g>
</svg>
