<?xml version="1.0" encoding="UTF-8" standalone="no"?>
<!DOCTYPE svg PUBLIC "-//W3C//DTD SVG 1.1//EN"
 "http://www.w3.org/Graphics/SVG/1.1/DTD/svg11.dtd">
<!-- Generated by graphviz version 4.0.0 (0)
 -->
<!-- Pages: 1 -->
<svg width="272pt" height="285pt"
 viewBox="0.00 0.00 272.00 285.00" xmlns="http://www.w3.org/2000/svg" xmlns:xlink="http://www.w3.org/1999/xlink">
<g id="graph0" class="graph" transform="scale(1 1) rotate(0) translate(4 281)">
<polygon fill="white" stroke="transparent" points="-4,4 -4,-281 268,-281 268,4 -4,4"/>
<g id="clust1" class="cluster">
<title>cluster_annotator</title>
<polygon fill="none" stroke="black" points="8,-194 8,-269 150,-269 150,-194 8,-194"/>
<text text-anchor="middle" x="116" y="-201.8" font-family="Times,serif" font-size="14.00">annotator</text>
</g>
<g id="clust2" class="cluster">
<title>cluster_item</title>
<polygon fill="none" stroke="black" points="158,-8 158,-269 256,-269 256,-8 158,-8"/>
<text text-anchor="middle" x="235.5" y="-15.8" font-family="Times,serif" font-size="14.00">item</text>
</g>
<g id="clust3" class="cluster">
<title>cluster_position</title>
<polygon fill="none" stroke="black" points="166,-39 166,-186 236,-186 236,-39 166,-39"/>
<text text-anchor="middle" x="206" y="-46.8" font-family="Times,serif" font-size="14.00">position</text>
</g>
<!-- ε -->
<g id="node1" class="node">
<title>ε</title>
<ellipse fill="white" stroke="black" cx="43" cy="-243" rx="27" ry="18"/>
<text text-anchor="middle" x="43" y="-239.3" font-family="Times,serif" font-size="14.00">ε</text>
</g>
<!-- y -->
<g id="node4" class="node">
<title>y</title>
<ellipse fill="grey" stroke="black" cx="201" cy="-88" rx="27" ry="18"/>
<text text-anchor="middle" x="201" y="-84.3" font-family="Times,serif" font-size="14.00">y</text>
</g>
<!-- ε&#45;&gt;y -->
<g id="edge1" class="edge">
<title>ε&#45;&gt;y</title>
<path fill="none" stroke="black" d="M53.55,-226.19C60.33,-216.49 69.61,-204.04 79,-194 109.52,-161.36 149.52,-128.52 175.24,-108.47"/>
<polygon fill="black" stroke="black" points="177.61,-111.07 183.39,-102.18 173.33,-105.53 177.61,-111.07"/>
</g>
<!-- θ -->
<g id="node2" class="node">
<title>θ</title>
<ellipse fill="white" stroke="black" cx="115" cy="-243" rx="27" ry="18"/>
<text text-anchor="middle" x="115" y="-239.3" font-family="Times,serif" font-size="14.00">θ</text>
</g>
<!-- s -->
<g id="node3" class="node">
<title>s</title>
<ellipse fill="white" stroke="black" cx="201" cy="-160" rx="27" ry="18"/>
<text text-anchor="middle" x="201" y="-156.3" font-family="Times,serif" font-size="14.00">s</text>
</g>
<!-- θ&#45;&gt;s -->
<g id="edge2" class="edge">
<title>θ&#45;&gt;s</title>
<path fill="none" stroke="black" d="M125.96,-226.37C133.28,-216.5 143.48,-203.81 154,-194 159.82,-188.58 166.57,-183.33 173.11,-178.68"/>
<polygon fill="black" stroke="black" points="175.52,-181.27 181.8,-172.74 171.57,-175.5 175.52,-181.27"/>
</g>
<!-- s&#45;&gt;y -->
<g id="edge4" class="edge">
<title>s&#45;&gt;y</title>
<path fill="none" stroke="black" d="M201,-141.7C201,-133.98 201,-124.71 201,-116.11"/>
<polygon fill="black" stroke="black" points="204.5,-116.1 201,-106.1 197.5,-116.1 204.5,-116.1"/>
</g>
<!-- c -->
<g id="node5" class="node">
<title>c</title>
<ellipse fill="white" stroke="black" cx="221" cy="-243" rx="27" ry="18"/>
<text text-anchor="middle" x="221" y="-239.3" font-family="Times,serif" font-size="14.00">c</text>
</g>
<!-- c&#45;&gt;y -->
<g id="edge3" class="edge">
<title>c&#45;&gt;y</title>
<path fill="none" stroke="black" d="M228.18,-225.4C235.85,-205.29 245.79,-170.57 237,-142 233.71,-131.31 227.46,-120.85 221.07,-112.08"/>
<polygon fill="black" stroke="black" points="223.65,-109.69 214.75,-103.93 218.12,-113.98 223.65,-109.69"/>
</g>
</g>
</svg>
