<?xml version="1.0" encoding="UTF-8" standalone="no"?>
<!DOCTYPE svg PUBLIC "-//W3C//DTD SVG 1.1//EN"
 "http://www.w3.org/Graphics/SVG/1.1/DTD/svg11.dtd">
<!-- Generated by graphviz version 2.40.1 (20161225.0304)
 -->
<!-- Title: %3 Pages: 1 -->
<svg width="105pt" height="227pt"
 viewBox="0.00 0.00 105.00 227.00" xmlns="http://www.w3.org/2000/svg" xmlns:xlink="http://www.w3.org/1999/xlink">
<g id="graph0" class="graph" transform="scale(1 1) rotate(0) translate(4 223)">
<title>%3</title>
<polygon fill="#ffffff" stroke="transparent" points="-4,4 -4,-223 101,-223 101,4 -4,4"/>
<g id="clust1" class="cluster">
<title>cluster_N</title>
<polygon fill="none" stroke="#000000" points="19,-8 19,-83 89,-83 89,-8 19,-8"/>
<text text-anchor="middle" x="76" y="-15.8" font-family="Times,serif" font-size="14.00" fill="#000000">N</text>
</g>
<!-- m -->
<g id="node1" class="node">
<title>m</title>
<ellipse fill="#ffffff" stroke="#000000" cx="54" cy="-201" rx="27" ry="18"/>
<text text-anchor="middle" x="54" y="-197.3" font-family="Times,serif" font-size="14.00" fill="#000000">m</text>
</g>
<!-- sd -->
<g id="node2" class="node">
<title>sd</title>
<ellipse fill="#ffffff" stroke="#000000" cx="27" cy="-129" rx="27" ry="18"/>
<text text-anchor="middle" x="27" y="-125.3" font-family="Times,serif" font-size="14.00" fill="#000000">sd</text>
</g>
<!-- m&#45;&gt;sd -->
<g id="edge1" class="edge">
<title>m&#45;&gt;sd</title>
<path fill="none" stroke="#000000" d="M47.3258,-183.2022C44.2524,-175.0064 40.5384,-165.1024 37.1305,-156.0145"/>
<polygon fill="#000000" stroke="#000000" points="40.3858,-154.7274 33.5974,-146.593 33.8315,-157.1853 40.3858,-154.7274"/>
</g>
<!-- obs -->
<g id="node3" class="node">
<title>obs</title>
<ellipse fill="#c0c0c0" stroke="#000000" cx="54" cy="-57" rx="27" ry="18"/>
<text text-anchor="middle" x="54" y="-53.3" font-family="Times,serif" font-size="14.00" fill="#000000">obs</text>
</g>
<!-- m&#45;&gt;obs -->
<g id="edge3" class="edge">
<title>m&#45;&gt;obs</title>
<path fill="none" stroke="#000000" d="M57.7474,-183.0931C59.7466,-172.6241 61.9966,-159.1241 63,-147 64.3197,-131.0545 64.3197,-126.9455 63,-111 62.2945,-102.4753 60.9727,-93.2703 59.5551,-84.917"/>
<polygon fill="#000000" stroke="#000000" points="62.9689,-84.1258 57.7474,-74.9069 56.0803,-85.3698 62.9689,-84.1258"/>
</g>
<!-- sd&#45;&gt;obs -->
<g id="edge2" class="edge">
<title>sd&#45;&gt;obs</title>
<path fill="none" stroke="#000000" d="M33.6742,-111.2022C36.7476,-103.0064 40.4616,-93.1024 43.8695,-84.0145"/>
<polygon fill="#000000" stroke="#000000" points="47.1685,-85.1853 47.4026,-74.593 40.6142,-82.7274 47.1685,-85.1853"/>
</g>
</g>
</svg>
