<?xml version="1.0" encoding="UTF-8" standalone="no"?>
<!DOCTYPE svg PUBLIC "-//W3C//DTD SVG 1.1//EN"
 "http://www.w3.org/Graphics/SVG/1.1/DTD/svg11.dtd">
<!-- Generated by graphviz version 3.0.0 (20220226.1711)
 -->
<!-- Pages: 1 -->
<svg width="201pt" height="293pt"
 viewBox="0.00 0.00 201.00 293.00" xmlns="http://www.w3.org/2000/svg" xmlns:xlink="http://www.w3.org/1999/xlink">
<g id="graph0" class="graph" transform="scale(1 1) rotate(0) translate(4 289)">
<polygon fill="white" stroke="transparent" points="-4,4 -4,-289 197,-289 197,4 -4,4"/>
<g id="clust1" class="cluster">
<title>cluster_annotator</title>
<polygon fill="none" stroke="black" points="8,-202 8,-277 150,-277 150,-202 8,-202"/>
<text text-anchor="middle" x="116" y="-209.8" font-family="Times,serif" font-size="14.00">annotator</text>
</g>
<g id="clust2" class="cluster">
<title>cluster_item</title>
<polygon fill="none" stroke="black" points="35,-8 35,-194 185,-194 185,-8 35,-8"/>
<text text-anchor="middle" x="164.5" y="-15.8" font-family="Times,serif" font-size="14.00">item</text>
</g>
<g id="clust3" class="cluster">
<title>cluster_position</title>
<polygon fill="none" stroke="black" points="107,-39 107,-186 177,-186 177,-39 107,-39"/>
<text text-anchor="middle" x="147" y="-46.8" font-family="Times,serif" font-size="14.00">position</text>
</g>
<!-- ε -->
<g id="node1" class="node">
<title>ε</title>
<ellipse fill="white" stroke="black" cx="43" cy="-251" rx="27" ry="18"/>
<text text-anchor="middle" x="43" y="-247.3" font-family="Times,serif" font-size="14.00">ε</text>
</g>
<!-- y -->
<g id="node5" class="node">
<title>y</title>
<ellipse fill="gray" stroke="black" cx="142" cy="-88" rx="27" ry="18"/>
<text text-anchor="middle" x="142" y="-84.3" font-family="Times,serif" font-size="14.00">y</text>
</g>
<!-- ε&#45;&gt;y -->
<g id="edge3" class="edge">
<title>ε&#45;&gt;y</title>
<path fill="none" stroke="black" d="M35.19,-233.56C25.74,-211.06 13.19,-170.24 31,-142 47.39,-116.01 80.43,-102.49 106.22,-95.64"/>
<polygon fill="black" stroke="black" points="107.16,-99.01 116.05,-93.24 105.5,-92.21 107.16,-99.01"/>
</g>
<!-- θ -->
<g id="node2" class="node">
<title>θ</title>
<ellipse fill="white" stroke="black" cx="115" cy="-251" rx="27" ry="18"/>
<text text-anchor="middle" x="115" y="-247.3" font-family="Times,serif" font-size="14.00">θ</text>
</g>
<!-- s -->
<g id="node4" class="node">
<title>s</title>
<ellipse fill="white" stroke="black" cx="142" cy="-160" rx="27" ry="18"/>
<text text-anchor="middle" x="142" y="-156.3" font-family="Times,serif" font-size="14.00">s</text>
</g>
<!-- θ&#45;&gt;s -->
<g id="edge1" class="edge">
<title>θ&#45;&gt;s</title>
<path fill="none" stroke="black" d="M120.08,-233.26C123.98,-220.41 129.43,-202.43 133.93,-187.61"/>
<polygon fill="black" stroke="black" points="137.3,-188.55 136.85,-177.97 130.6,-186.52 137.3,-188.55"/>
</g>
<!-- c -->
<g id="node3" class="node">
<title>c</title>
<ellipse fill="white" stroke="black" cx="70" cy="-160" rx="27" ry="18"/>
<text text-anchor="middle" x="70" y="-156.3" font-family="Times,serif" font-size="14.00">c</text>
</g>
<!-- c&#45;&gt;y -->
<g id="edge2" class="edge">
<title>c&#45;&gt;y</title>
<path fill="none" stroke="black" d="M84.57,-144.83C94.75,-134.94 108.52,-121.55 120.03,-110.36"/>
<polygon fill="black" stroke="black" points="122.47,-112.87 127.2,-103.38 117.59,-107.85 122.47,-112.87"/>
</g>
<!-- s&#45;&gt;y -->
<g id="edge4" class="edge">
<title>s&#45;&gt;y</title>
<path fill="none" stroke="black" d="M142,-141.7C142,-133.98 142,-124.71 142,-116.11"/>
<polygon fill="black" stroke="black" points="145.5,-116.1 142,-106.1 138.5,-116.1 145.5,-116.1"/>
</g>
</g>
</svg>
