<?xml version="1.0" encoding="UTF-8" standalone="no"?>
<!DOCTYPE svg PUBLIC "-//W3C//DTD SVG 1.1//EN"
 "http://www.w3.org/Graphics/SVG/1.1/DTD/svg11.dtd">
<!-- Generated by graphviz version 3.0.0 (20220226.1711)
 -->
<!-- Pages: 1 -->
<svg width="106pt" height="278pt"
 viewBox="0.00 0.00 106.00 278.00" xmlns="http://www.w3.org/2000/svg" xmlns:xlink="http://www.w3.org/1999/xlink">
<g id="graph0" class="graph" transform="scale(1 1) rotate(0) translate(4 274)">
<polygon fill="white" stroke="transparent" points="-4,4 -4,-274 102,-274 102,4 -4,4"/>
<g id="clust1" class="cluster">
<title>cluster_N</title>
<polygon fill="none" stroke="black" points="20,-8 20,-83 90,-83 90,-8 20,-8"/>
<text text-anchor="middle" x="77" y="-15.8" font-family="Times,serif" font-size="14.00">N</text>
</g>
<!-- x -->
<g id="node1" class="node">
<title>x</title>
<ellipse fill="white" stroke="black" cx="54" cy="-201" rx="27" ry="18"/>
<text text-anchor="middle" x="54" y="-197.3" font-family="Times,serif" font-size="14.00">x</text>
</g>
<!-- y -->
<g id="node2" class="node">
<title>y</title>
<ellipse fill="white" stroke="black" cx="27" cy="-129" rx="27" ry="18"/>
<text text-anchor="middle" x="27" y="-125.3" font-family="Times,serif" font-size="14.00">y</text>
</g>
<!-- x&#45;&gt;y -->
<g id="edge1" class="edge">
<title>x&#45;&gt;y</title>
<path fill="none" stroke="black" d="M47.6,-183.41C44.49,-175.34 40.67,-165.43 37.17,-156.35"/>
<polygon fill="black" stroke="black" points="40.4,-155.03 33.54,-146.96 33.87,-157.55 40.4,-155.03"/>
</g>
<!-- z -->
<g id="node5" class="node">
<title>z</title>
<ellipse fill="gray" stroke="black" cx="55" cy="-57" rx="27" ry="18"/>
<text text-anchor="middle" x="55" y="-53.3" font-family="Times,serif" font-size="14.00">z</text>
</g>
<!-- x&#45;&gt;z -->
<g id="edge2" class="edge">
<title>x&#45;&gt;z</title>
<path fill="none" stroke="black" d="M57.65,-182.91C59.68,-172.57 61.98,-159.09 63,-147 64.34,-131.06 64.2,-126.96 63,-111 62.36,-102.52 61.16,-93.34 59.88,-85.04"/>
<polygon fill="black" stroke="black" points="63.32,-84.41 58.25,-75.11 56.42,-85.55 63.32,-84.41"/>
</g>
<!-- y&#45;&gt;z -->
<g id="edge3" class="edge">
<title>y&#45;&gt;z</title>
<path fill="none" stroke="black" d="M33.64,-111.41C36.91,-103.22 40.94,-93.14 44.62,-83.95"/>
<polygon fill="black" stroke="black" points="47.95,-85.05 48.41,-74.47 41.45,-82.45 47.95,-85.05"/>
</g>
<!-- sigma -->
<g id="node3" class="node">
<title>sigma</title>
<polygon fill="white" stroke="transparent" points="49,-270 15,-270 15,-255 49,-255 49,-270"/>
<text text-anchor="middle" x="32" y="-258.8" font-family="Times,serif" font-size="14.00">sigma</text>
</g>
<!-- sigma&#45;&gt;x -->
<g id="edge4" class="edge">
<title>sigma&#45;&gt;x</title>
<path fill="none" stroke="black" d="M34.52,-254.67C36.94,-248.13 40.76,-237.82 44.37,-228.05"/>
<polygon fill="black" stroke="black" points="47.67,-229.22 47.85,-218.63 41.1,-226.79 47.67,-229.22"/>
</g>
<!-- mu -->
<g id="node4" class="node">
<title>mu</title>
<polygon fill="white" stroke="transparent" points="86.5,-270 67.5,-270 67.5,-255 86.5,-255 86.5,-270"/>
<text text-anchor="middle" x="77" y="-258.8" font-family="Times,serif" font-size="14.00">mu</text>
</g>
<!-- mu&#45;&gt;x -->
<g id="edge5" class="edge">
<title>mu&#45;&gt;x</title>
<path fill="none" stroke="black" d="M74.36,-254.67C71.83,-248.13 67.85,-237.82 64.07,-228.05"/>
<polygon fill="black" stroke="black" points="67.3,-226.69 60.43,-218.63 60.77,-229.22 67.3,-226.69"/>
</g>
</g>
</svg>
